<svg width="56" height="56" viewBox="0 0 56 56" fill="none" xmlns="http://www.w3.org/2000/svg">
<circle cx="28" cy="28" r="28" fill="white"/>
<mask id="mask0_7434_1900" style="mask-type:alpha" maskUnits="userSpaceOnUse" x="11" y="11" width="34" height="34">
<rect x="11" y="11" width="34" height="34" fill="#D9D9D9"/>
</mask>
<g mask="url(#mask0_7434_1900)">
<path d="M27.5715 23.8102C27.3759 24.2927 27.1933 24.723 26.9717 25.2446C27.2976 25.5445 27.6367 25.8444 27.9757 26.1573C28.3147 26.4572 28.3408 26.7571 28.0018 27.0962C27.3628 27.7221 26.7369 28.348 26.1111 28.9869C25.7851 29.3259 25.4852 29.3259 25.1722 28.9739C25.1592 28.9608 25.1461 28.9478 25.1201 28.9217C24.1291 27.9829 24.1291 27.9829 22.8121 28.5696C22.8121 29.026 22.8121 29.4954 22.8121 29.9779C22.8121 30.4082 22.6165 30.6168 22.1862 30.6168C21.2734 30.6038 20.3607 30.6038 19.4479 30.6168C19.0437 30.6168 18.8481 30.4343 18.835 30.0301C18.835 29.8605 18.809 29.678 18.835 29.5085C18.9654 28.7913 18.6916 28.4262 17.9875 28.1915C17.5702 28.0481 17.3485 28.0741 17.0486 28.374C15.9012 29.5606 16.0837 29.5215 14.9232 28.361C14.5059 27.9437 14.1017 27.5265 13.6714 27.1223C13.3063 26.7702 13.3193 26.4572 13.6845 26.1313C13.7627 26.0661 13.8409 25.9748 13.9192 25.8965C14.7146 25.0881 14.7406 25.0229 14.1669 24.0449C14.0887 23.9145 13.8279 23.8102 13.6453 23.8102C11.7937 23.8363 12.0154 23.8885 12.0024 22.1542C12.0024 21.6066 12.0154 21.0719 12.0024 20.5243C11.9893 20.0157 12.224 19.8071 12.7065 19.8202C12.8108 19.8202 12.9282 19.8202 13.0325 19.8202C14.193 19.8202 14.2191 19.8071 14.519 18.6857C14.5581 18.5292 14.4407 18.2815 14.3234 18.1511C13.0325 16.8602 13.0846 17.0819 14.3495 15.817C14.7146 15.4519 15.1058 15.0868 15.4578 14.7087C15.836 14.2784 16.188 14.3045 16.5401 14.7217C16.6183 14.826 16.7357 14.9043 16.8139 14.9956C17.1921 15.5041 17.5832 15.6606 18.2352 15.3346C18.7046 15.0868 18.8481 14.8521 18.835 14.3566C18.809 13.0005 18.822 13.0005 20.1651 13.0005C20.817 13.0005 21.469 13.0136 22.121 13.0005C22.6165 12.9875 22.8382 13.2222 22.8121 13.7177C22.8121 13.822 22.8121 13.9394 22.8121 14.0437C22.8121 15.2042 22.8121 15.2172 23.9465 15.5302C24.103 15.5693 24.3507 15.4519 24.4811 15.3346C25.772 14.0437 25.5504 14.1089 26.8152 15.3607C27.2194 15.7518 27.6106 16.1691 28.0148 16.5603C28.3278 16.8732 28.3278 17.1601 28.0018 17.447C27.9105 17.5382 27.8192 17.6295 27.7279 17.7208C26.9065 18.5423 26.8934 18.5553 27.4802 19.5594C27.5715 19.7028 27.8583 19.8071 28.0539 19.8071C29.8534 19.8071 29.6056 19.768 29.6187 21.411C29.6187 21.9717 29.6056 22.5454 29.6187 23.1061C29.6317 23.6016 29.4231 23.8363 28.9276 23.8102C28.4712 23.7972 28.0148 23.8102 27.5715 23.8102ZM27.1542 26.5616C26.8543 26.2877 26.5674 26.0139 26.2675 25.7661C25.9415 25.4793 25.8763 25.2054 26.098 24.8012C26.3327 24.3709 26.5283 23.9015 26.6718 23.4321C26.7891 23.0148 27.0238 22.8714 27.428 22.8975C27.8323 22.9235 28.2365 22.8975 28.6668 22.8975C28.6668 22.1542 28.6668 21.4892 28.6668 20.7199C27.6497 20.7981 26.8804 20.8372 26.3588 19.5463C25.8503 18.2554 26.2936 17.6947 27.1412 17.0427C26.6066 16.5081 26.1241 16.0257 25.6808 15.5823C25.1722 15.9474 24.6898 16.5603 24.1682 16.5994C23.5944 16.6516 22.9685 16.1821 22.3818 15.9214C21.4038 15.5041 22.1862 14.5783 21.808 13.9654C21.1561 13.9654 20.478 13.9654 19.7478 13.9654C19.7478 14.2523 19.7217 14.487 19.7478 14.7217C19.8521 15.4911 19.6044 15.9474 18.7829 16.0909C18.4569 16.143 18.1309 16.3386 17.831 16.5081C17.4398 16.7428 17.1399 16.6907 16.8661 16.3517C16.6053 16.0387 16.3445 15.7258 16.1098 15.4389C15.4969 16.0387 15.0145 16.4951 14.4147 17.0819C14.7146 17.3296 15.0145 17.5774 15.3274 17.8251C15.6925 18.112 15.7447 18.4249 15.51 18.8552C15.2883 19.2464 15.1058 19.6767 14.9884 20.107C14.858 20.6156 14.5711 20.772 14.0887 20.7329C13.7105 20.7068 13.3324 20.7329 12.9542 20.7329C12.9542 21.5153 12.9542 22.1673 12.9542 22.9105C14.0104 22.7931 14.7276 22.8453 15.2622 24.0971C15.8229 25.401 15.2622 25.9357 14.5581 26.5355C15.0797 27.0701 15.5621 27.5526 16.0576 28.0481C16.1619 27.9568 16.2793 27.8394 16.4097 27.7221C17.2573 26.8875 17.2573 26.8875 18.3526 27.37C18.6264 27.4874 18.9133 27.6047 19.2132 27.6829C19.6044 27.7742 19.7478 27.9959 19.7348 28.374C19.7217 28.8043 19.7348 29.2216 19.7348 29.691C20.1651 29.691 20.491 29.691 20.804 29.691C21.143 29.691 21.482 29.691 21.7298 29.691C21.8863 28.9869 21.8341 28.2176 22.1862 27.8133C22.5643 27.383 23.3206 27.2396 23.9465 27.044C24.8723 26.7441 24.9897 27.8655 25.6286 28.0611C26.1111 27.6047 26.5805 27.1353 27.1542 26.5616Z" fill="black"/>
<path d="M30.7452 41.3872C30.4844 41.6871 30.1975 42.0261 29.8976 42.3652C29.5977 42.7042 29.2848 42.7303 28.9588 42.3912C28.3198 41.7393 27.6679 41.1003 27.0289 40.4484C26.7421 40.1615 26.7421 39.8877 27.042 39.6138C27.394 39.2879 27.7461 38.9749 28.0721 38.675C28.033 38.5055 28.0199 38.4533 28.0069 38.3881C27.7852 37.4232 27.2245 36.9929 26.2075 37.1885C25.6598 37.2928 25.4251 36.9929 25.4512 36.4322C25.4772 35.6107 25.4772 34.7762 25.4512 33.9547C25.4381 33.4331 25.6468 33.1854 26.1814 33.2115C26.3118 33.2245 26.4422 33.2115 26.5726 33.2115C27.5244 33.2115 27.8504 32.9507 28.0069 32.0118C28.033 31.8554 27.8635 31.6337 27.7331 31.5033C26.5204 30.2645 26.5334 30.5123 27.7592 29.2736C28.1764 28.8563 28.5937 28.4521 28.9979 28.0218C29.3108 27.7088 29.5977 27.7088 29.8846 28.0348C30.2106 28.3869 30.5366 28.7259 30.7973 29.0128C30.9408 28.9997 30.9669 28.9997 30.9799 28.9997C31.9839 28.7781 32.4664 28.2174 32.2578 27.1351C32.1535 26.6265 32.4403 26.3918 32.9749 26.4049C33.8225 26.4309 34.6701 26.4309 35.5176 26.4049C36.0131 26.3918 36.3 26.6005 36.2218 27.0829C36.0522 28.1652 36.4043 28.8302 37.8126 28.9736C37.9821 28.7781 38.282 28.4129 38.5819 28.0478C38.8818 27.6958 39.1817 27.6827 39.5207 28.0218C40.1466 28.6607 40.7725 29.2866 41.4115 29.9125C41.7505 30.2385 41.7375 30.5514 41.3984 30.8513C41.3072 30.9426 41.2159 31.0339 41.1246 31.1252C40.3944 31.8554 40.3422 32.1162 40.916 32.9768C41.0072 33.1072 41.268 33.1854 41.4636 33.1854C43.237 33.1854 43.0544 33.0941 43.0675 34.8284C43.0675 35.376 43.0544 35.9106 43.0675 36.4583C43.0936 36.9929 42.8458 37.2146 42.3242 37.1885C42.2199 37.1885 42.1026 37.1885 41.9982 37.1885C40.929 37.1885 40.7595 37.3059 40.5248 38.349C40.4857 38.5055 40.6291 38.7402 40.7595 38.8706C42.0113 40.1224 41.9722 39.9268 40.7334 41.1525C40.3553 41.5306 39.951 41.9088 39.5859 42.313C39.2208 42.7042 38.8949 42.6912 38.5428 42.3C38.4776 42.2217 38.3863 42.1435 38.3081 42.0653C37.5779 41.3351 37.291 41.2829 36.4565 41.8566C36.3261 41.9479 36.2478 42.2217 36.2478 42.4043C36.2609 44.2298 36.2739 43.9821 34.6049 43.9951C34.0442 43.9951 33.4704 43.9821 32.9097 43.9951C32.4403 44.0081 32.2317 43.7734 32.2447 43.317C32.2447 43.291 32.2447 43.2779 32.2447 43.2519C32.1926 41.9088 32.1926 41.9088 30.7452 41.3872ZM35.309 43.0693C35.309 42.5868 35.2829 42.1826 35.322 41.7784C35.3481 41.5698 35.4524 41.2568 35.5959 41.1916C36.2739 40.8787 36.9911 40.4614 37.7083 40.4353C38.1255 40.4223 38.5558 41.0873 38.9731 41.4524C38.9992 41.4785 39.0513 41.4785 39.0904 41.4915C39.5729 41.0221 40.0423 40.5527 40.5639 40.0311C39.7555 39.3531 39.2339 38.8184 39.7685 37.5145C40.3031 36.2105 41.1116 36.2627 42.0765 36.3018C42.0765 35.5455 42.0765 34.8805 42.0765 34.1112C41.0072 34.2677 40.3031 34.2025 39.7685 32.9507C39.2078 31.6467 39.7555 31.1121 40.4857 30.4993C39.9641 29.9646 39.4816 29.4822 38.9731 28.9476C38.3472 29.7169 37.8256 30.2385 36.5477 29.6908C35.2699 29.1562 35.2308 28.3999 35.322 27.3828C34.5658 27.3828 33.9007 27.3828 33.3009 27.3828C33.1575 28.0478 33.2227 28.8172 32.8576 29.2214C32.4534 29.6647 31.684 29.8473 31.0451 30.0168C30.1715 30.2515 30.0411 29.1953 29.4152 28.9736C28.9327 29.4431 28.4372 29.9255 27.9156 30.4341C28.685 31.0991 29.2717 31.5946 28.711 32.8985C28.1634 34.1633 27.4462 34.2416 26.39 34.1242C26.39 34.8805 26.39 35.5455 26.39 36.2888C27.381 36.2627 28.1764 36.1714 28.698 37.4884C29.1935 38.7663 28.7762 39.3531 27.9156 39.992C28.4502 40.5266 28.9457 41.0091 29.3891 41.4524C29.8976 41.0873 30.367 40.4744 30.8886 40.4353C31.4624 40.3832 32.0883 40.8526 32.675 41.1003C33.653 41.5176 32.8706 42.4434 33.2618 43.0693C33.8877 43.0693 34.5527 43.0693 35.309 43.0693Z" fill="black"/>
<path d="M37.2757 22.0238C35.8283 19.8592 33.8724 18.3467 31.434 17.46C31.3297 17.4209 31.2254 17.3948 31.1211 17.3557C30.7821 17.2513 30.3909 17.134 30.5604 16.6646C30.7169 16.2473 31.0689 16.3777 31.3949 16.482C33.9767 17.3165 36.0761 18.8291 37.6799 20.9937C37.9538 21.3588 38.1885 21.5674 38.7101 21.5413C39.6359 21.4892 40.3922 22.1803 40.6138 23.1061C40.8225 23.9797 40.4052 24.8794 39.6098 25.2967C38.8274 25.7139 37.8364 25.5575 37.2105 24.9185C36.5716 24.2535 36.4673 23.2495 36.9628 22.4541C37.041 22.3107 37.1584 22.1803 37.2757 22.0238ZM38.6449 22.441C38.0581 22.441 37.5626 22.9235 37.5626 23.5233C37.5626 24.1231 38.032 24.6056 38.6318 24.6056C39.2186 24.6056 39.7141 24.1231 39.7141 23.5364C39.7271 22.9496 39.2316 22.441 38.6449 22.441Z" fill="black"/>
<path d="M17.7634 35.011C19.2499 37.2017 21.2189 38.7143 23.6833 39.6009C23.8007 39.6401 23.9702 39.6531 24.0484 39.7313C24.218 39.9139 24.3614 40.1225 24.5048 40.3311C24.2571 40.4224 23.9572 40.6441 23.7616 40.5789C21.0624 39.7444 18.8979 38.1536 17.2288 35.8847C17.0984 35.7021 16.7985 35.5196 16.5899 35.5326C15.5598 35.5457 14.7383 34.998 14.4775 34.0592C14.2297 33.1594 14.6079 32.2336 15.4163 31.7773C16.2378 31.3078 17.294 31.4904 17.9069 32.1945C18.5458 32.9247 18.5719 33.9157 17.9721 34.7633C17.9069 34.8285 17.8417 34.9067 17.7634 35.011ZM16.4204 32.4292C15.8206 32.4162 15.3381 32.8987 15.3251 33.4854C15.312 34.0722 15.7945 34.5807 16.3943 34.5807C16.9811 34.5938 17.4766 34.1113 17.4896 33.5115C17.4896 32.9247 17.0071 32.4423 16.4204 32.4292Z" fill="black"/>
<path d="M24.7707 21.8415C24.7577 24.0191 22.9321 25.8055 20.7546 25.7664C18.603 25.7403 16.8297 23.9278 16.8558 21.7894C16.8818 19.6118 18.7074 17.8123 20.8719 17.8515C23.0365 17.8906 24.7968 19.69 24.7707 21.8415ZM23.8579 21.8285C23.871 20.1855 22.5018 18.8033 20.8458 18.7773C19.2029 18.7512 17.8076 20.1073 17.7816 21.7763C17.7424 23.4323 19.1507 24.8667 20.8197 24.8536C22.4758 24.8536 23.8449 23.4845 23.8579 21.8285Z" fill="black"/>
<path d="M30.2617 35.2068C30.2748 33.0292 32.0742 31.2428 34.2648 31.2688C36.4033 31.2949 38.2027 33.1074 38.1767 35.2459C38.1636 37.4104 36.3903 39.1707 34.2388 39.1968C32.0612 39.1838 30.2617 37.3843 30.2617 35.2068ZM31.1875 35.2068C31.1745 36.8628 32.5436 38.2449 34.1866 38.258C35.8556 38.271 37.2639 36.8758 37.2639 35.1937C37.2509 33.5377 35.8687 32.1686 34.2257 32.1686C32.5697 32.1816 31.1875 33.5507 31.1875 35.2068Z" fill="black"/>
</g>
</svg>
