<svg width="56" height="56" viewBox="0 0 56 56" fill="none" xmlns="http://www.w3.org/2000/svg">
<circle cx="28" cy="28" r="28" fill="white"/>
<mask id="mask0_7434_1901" style="mask-type:alpha" maskUnits="userSpaceOnUse" x="11" y="11" width="34" height="34">
<rect x="11" y="11" width="34" height="34" fill="#D9D9D9"/>
</mask>
<g mask="url(#mask0_7434_1901)">
<path d="M28.2842 17.7173L28.7041 17.7349C32.7199 17.97 36.3599 21.0655 37.2471 25.1567C37.6825 27.1526 37.5686 28.9586 36.9609 30.5874C36.3531 32.2163 35.2495 33.6751 33.6963 34.9741C33.2974 35.3005 32.8669 35.6376 32.5479 36.0317L32.5469 36.0327C32.3441 36.2907 32.1717 36.5616 32.1436 36.8599C32.1148 37.1662 32.2395 37.4782 32.5732 37.812C33.3025 38.5418 33.2256 39.7103 32.459 40.3374L32.2969 40.4556C31.9054 40.7039 31.6765 40.9938 31.5381 41.3169C31.4012 41.6364 31.355 41.9845 31.3184 42.3413C31.277 42.7506 31.2467 43.0497 31.1992 43.272C31.1518 43.4939 31.0904 43.6212 31.001 43.7017C30.9114 43.7821 30.7771 43.8293 30.5498 43.854C30.3224 43.8787 30.0202 43.8794 29.6064 43.8794H29.6035C28.9832 43.8976 28.3627 43.8979 27.7588 43.8979C27.1738 43.8979 26.57 43.8771 25.9717 43.8823L25.376 43.8979C25.0169 43.9155 24.7832 43.8355 24.6318 43.688C24.5169 43.576 24.4385 43.4152 24.3955 43.1997L24.3643 42.9653C24.355 42.8267 24.3413 42.6882 24.3252 42.5503L24.2725 42.1362C24.2356 41.8329 24.1831 41.5522 24.0508 41.3022C23.9166 41.049 23.7042 40.8344 23.3604 40.6528H23.3594C22.2743 40.0844 22.108 38.5931 23 37.6831L23.001 37.6821C23.2006 37.473 23.3184 37.2696 23.3398 37.0601C23.3614 36.8484 23.2829 36.6505 23.1367 36.4556V36.4546L22.8701 36.1118C22.5966 35.7708 22.2991 35.4408 21.9473 35.1733C18.6139 32.6294 17.3202 28.4901 18.6426 24.479L18.7783 24.0913C20.2517 20.0921 23.9673 17.6208 28.2842 17.7173ZM25.3906 41.2446C25.4454 41.8107 25.482 42.2154 25.5371 42.6382L25.5488 42.7251H30.0059L30.0166 42.6372C30.0714 42.1807 30.1264 41.7615 30.1992 41.3062L30.2168 41.1968L30.1064 41.1899C29.9622 41.1809 29.8322 41.1673 29.7051 41.1558C29.5788 41.1443 29.4557 41.1353 29.332 41.1353H25.3799L25.3906 41.2446ZM24.667 38.2993C24.4172 38.2993 24.1517 38.3267 23.9512 38.4438C23.8486 38.5038 23.762 38.5878 23.7051 38.7026C23.6486 38.8167 23.6239 38.9548 23.6338 39.1187C23.6391 39.282 23.6768 39.4163 23.7441 39.5239C23.812 39.6323 23.9062 39.7069 24.0127 39.7583C24.2202 39.8582 24.4834 39.8705 24.7197 39.8706V39.8716C25.6904 39.8899 26.68 39.8901 27.6494 39.8901H30.5576C30.8046 39.8901 31.0691 39.8726 31.2754 39.7671C31.3811 39.7129 31.4733 39.6349 31.5391 39.5249C31.6045 39.4154 31.6405 39.2797 31.6455 39.1157C31.6504 38.9517 31.6218 38.8142 31.5625 38.7007C31.5029 38.5866 31.4159 38.5026 31.3125 38.4429C31.1101 38.3261 30.8447 38.2993 30.5947 38.2993H24.667ZM27.9453 18.9985C24.3699 18.8874 21.0756 21.1656 19.7988 24.5884C18.5392 27.9599 19.6324 31.7748 22.5381 34.0513C23.4702 34.7823 24.2875 35.5147 24.6074 36.6694V36.6724C24.6272 36.7381 24.6692 36.7983 24.7168 36.8491C24.7652 36.9008 24.825 36.9476 24.8877 36.9878C25.0097 37.0659 25.1608 37.1262 25.2881 37.1265V37.1274C27.0267 37.1457 28.7473 37.146 30.54 37.146H30.6143L30.6357 37.0737C30.8641 36.288 31.0343 35.8361 31.3184 35.4419C31.6037 35.046 32.0082 34.7018 32.7227 34.1431C35.5911 31.9409 36.7585 28.2932 35.6846 24.8862C34.6292 21.5166 31.4275 19.0915 27.9453 18.9985Z" fill="black" stroke="white" stroke-width="0.2"/>
<path d="M27.6475 12.0996C27.6845 12.0997 27.7368 12.1146 27.7998 12.1475C27.8615 12.1797 27.927 12.2263 27.9893 12.2822C28.1157 12.3958 28.2145 12.5341 28.2451 12.6445V12.6455C28.2967 12.8607 28.302 13.0876 28.293 13.3271C28.2841 13.5611 28.2607 13.819 28.2607 14.0674C28.2607 14.2948 28.2835 14.5445 28.29 14.7607C28.2968 14.9858 28.2877 15.197 28.2285 15.3916L28.2275 15.3955C28.2 15.4987 28.1093 15.5955 27.9746 15.7051C27.8731 15.7876 27.7425 15.8805 27.6309 15.9785C27.5896 15.9395 27.5463 15.901 27.5029 15.8643C27.4322 15.8044 27.3641 15.7481 27.3008 15.6904C27.1694 15.5706 27.0941 15.4712 27.0879 15.3779V15.377L27.0469 14.6943C27.0197 14.0153 27.0338 13.339 27.0879 12.6729C27.0944 12.6274 27.118 12.5676 27.1592 12.5C27.1996 12.4336 27.2532 12.3651 27.3135 12.3037C27.374 12.2421 27.4388 12.1888 27.5 12.1523C27.5629 12.1148 27.6138 12.0996 27.6475 12.0996Z" fill="black" stroke="white" stroke-width="0.2"/>
<path d="M17.8057 16.1626L17.833 16.1743C18.6162 16.8848 19.3633 17.6502 20.0947 18.3999L20.0957 18.4009C20.1193 18.4244 20.1337 18.4579 20.1494 18.5298C20.1619 18.5866 20.1764 18.6647 20.2041 18.7534C20.184 18.7836 20.1624 18.8151 20.1436 18.8462C20.1145 18.8941 20.0866 18.9409 20.0566 18.9849C19.9937 19.0771 19.9373 19.1322 19.8818 19.1489L19.8789 19.1499C19.7827 19.182 19.6487 19.1992 19.5195 19.1929C19.3876 19.1863 19.2807 19.1557 19.2227 19.1108C18.4946 18.4553 17.8034 17.7833 17.168 17.0571V17.0562L17.1387 17.0073C17.1295 16.9859 17.1208 16.9594 17.1143 16.9272C17.1015 16.8645 17.0973 16.7888 17.1016 16.7095C17.1102 16.5477 17.1535 16.3895 17.2129 16.3003C17.2245 16.2829 17.2577 16.2556 17.3193 16.228C17.3777 16.202 17.4505 16.1802 17.5254 16.1665C17.6004 16.1528 17.6739 16.1482 17.7334 16.1519C17.7661 16.1539 17.7896 16.158 17.8057 16.1626Z" fill="black" stroke="white" stroke-width="0.2"/>
<path d="M37.6865 16.3601C37.7587 16.3653 37.8309 16.3788 37.8926 16.3982C37.9556 16.418 38.0019 16.4421 38.0283 16.4656C38.0549 16.4893 38.0863 16.5353 38.1172 16.6003C38.1473 16.6637 38.1734 16.7381 38.1914 16.8123C38.2095 16.8869 38.2185 16.9575 38.2178 17.0125C38.2174 17.0397 38.2148 17.0607 38.2109 17.075C38.2069 17.0896 38.2041 17.0916 38.207 17.0886H38.2061L38.2021 17.0925C37.5101 17.8756 36.7455 18.6046 35.9941 19.3376L35.9932 19.3386C35.9663 19.3655 35.9271 19.3821 35.8828 19.3914C35.839 19.4004 35.7975 19.4011 35.7705 19.4011C35.4849 19.401 35.268 19.2584 35.1631 19.074C35.0592 18.8912 35.0607 18.6616 35.2246 18.4666C35.878 17.7226 36.6246 17.0508 37.373 16.4119L37.374 16.4109C37.391 16.3963 37.4275 16.3788 37.4873 16.3679C37.545 16.3575 37.6144 16.3549 37.6865 16.3601Z" fill="black" stroke="white" stroke-width="0.2"/>
<path d="M22.1709 13.0913C22.2364 13.0913 22.3097 13.101 22.3809 13.1177C22.4523 13.1345 22.5188 13.1579 22.5703 13.1851C22.6241 13.2135 22.6501 13.2403 22.6592 13.2563C23.1072 14.1889 23.4829 15.1505 23.9492 16.2124C23.9155 16.2555 23.8817 16.2992 23.8506 16.3423C23.8069 16.4027 23.7654 16.4605 23.7227 16.5142C23.6367 16.6221 23.5551 16.6998 23.4629 16.7358C23.3907 16.7621 23.2588 16.7586 23.1279 16.7222C23.065 16.7046 23.008 16.6811 22.9648 16.6548C22.92 16.6273 22.9 16.6028 22.8936 16.5884L22.8916 16.5854C22.5494 15.8737 22.2287 15.1518 21.9355 14.4126L21.6523 13.6675C21.6497 13.6555 21.6492 13.6247 21.667 13.5708C21.6849 13.5165 21.7165 13.4529 21.7568 13.3892C21.797 13.3258 21.8447 13.2648 21.8926 13.2153C21.9415 13.1649 21.9864 13.1312 22.0205 13.1157C22.0526 13.1013 22.104 13.0913 22.1709 13.0913Z" fill="black" stroke="white" stroke-width="0.2"/>
<path d="M33.0068 13.1521C33.2871 13.2314 33.4712 13.337 33.5674 13.4695C33.6628 13.6009 33.6862 13.7778 33.5938 14.031C33.2631 14.876 32.9546 15.7284 32.5371 16.5271L32.5361 16.5291C32.5171 16.5669 32.4771 16.6148 32.418 16.6658C32.3599 16.7158 32.289 16.7642 32.2168 16.8035C32.1443 16.8429 32.074 16.8718 32.0166 16.8855C31.9879 16.8923 31.9646 16.8948 31.9482 16.8943C31.9321 16.8938 31.9274 16.8906 31.9287 16.8914L31.9209 16.8865L31.8379 16.8337C31.7523 16.7679 31.6614 16.6666 31.5898 16.5544C31.543 16.4811 31.5078 16.4073 31.4883 16.3425C31.4681 16.2758 31.4677 16.2296 31.4766 16.2029L31.4775 16.2009C31.6955 15.4927 31.9749 14.8035 32.2783 14.1257L32.5889 13.4509C32.6216 13.397 32.689 13.3462 32.7822 13.2908C32.8051 13.2771 32.8287 13.2643 32.8525 13.2507C32.876 13.2374 32.9006 13.2234 32.9238 13.2097C32.9523 13.1929 32.9795 13.1712 33.0068 13.1521Z" fill="black" stroke="white" stroke-width="0.2"/>
<path d="M27.8027 21.1401C30.9813 21.4436 33.5358 23.9264 33.7148 26.8979V26.8989C33.7243 27.0312 33.7378 27.1591 33.7412 27.2856C33.7445 27.411 33.7367 27.5243 33.709 27.6206C33.6818 27.7149 33.6356 27.7914 33.5596 27.8481C33.4821 27.9058 33.365 27.9506 33.1855 27.9634H33.1846C33.0186 27.9761 32.9043 27.9523 32.8242 27.9116C32.7458 27.8716 32.6916 27.8103 32.6514 27.73C32.6101 27.6475 32.5837 27.5462 32.5654 27.4302C32.547 27.3131 32.5376 27.1915 32.5234 27.064V27.061L32.4844 26.811C32.2737 25.5752 31.7863 24.5817 31.0391 23.8608C30.2418 23.0917 29.1576 22.6411 27.8223 22.5298H27.8203C27.5389 22.511 27.2643 22.4922 27.0752 22.4019C26.9846 22.3585 26.9214 22.3016 26.8857 22.2261C26.8588 22.1689 26.844 22.0933 26.8525 21.9917L26.8691 21.8813L26.8701 21.8726C26.8757 21.8254 26.9047 21.7712 26.9648 21.7085C27.0245 21.6464 27.1076 21.5839 27.2061 21.519C27.3045 21.4542 27.4123 21.3904 27.5225 21.3237C27.6188 21.2654 27.7151 21.2031 27.8027 21.1401Z" fill="black" stroke="white" stroke-width="0.2"/>
</g>
</svg>
