<svg width="56" height="56" viewBox="0 0 56 56" fill="none" xmlns="http://www.w3.org/2000/svg">
<circle cx="28" cy="28" r="28" fill="white"/>
<path d="M27.9096 33.4651C27.2756 35.5597 26.6732 37.5448 26.0709 39.5299C25.7697 40.4991 25.5161 41.4838 25.1832 42.4373C25.104 42.6561 24.8345 42.8124 24.6443 43C24.4699 42.8281 24.2321 42.6718 24.1529 42.4685C23.6298 41.1712 23.1542 39.8426 22.6153 38.4201C21.5691 39.1861 20.5863 39.9051 19.6036 40.6397C19.4134 40.7804 19.239 40.9523 19.0171 41.0461C18.8269 41.1243 18.4781 41.2337 18.383 41.1399C18.2404 40.9992 18.1453 40.671 18.1928 40.4834C18.5415 39.2329 18.9378 37.9825 19.3024 36.7476C19.9047 34.7625 20.5071 32.7774 21.0936 30.7922C21.0143 30.7297 20.9826 30.6985 20.9351 30.6828C18.7952 29.9325 18.5891 29.6668 18.7952 27.4629C18.8744 26.65 18.7159 25.9779 18.1136 25.3996C17.8758 25.1651 17.6539 24.8994 17.4636 24.618C16.8455 23.7427 16.8455 23.0237 17.4636 22.164C17.6539 21.8826 17.8758 21.6169 18.1136 21.3824C18.7 20.8041 18.9378 20.1319 18.811 19.3348C18.7635 19.0222 18.7635 18.7095 18.7635 18.3969C18.7476 17.1777 19.1597 16.6306 20.3327 16.2711C20.5863 16.193 20.84 16.1148 21.0936 16.0835C21.9971 15.9585 22.647 15.5052 23.0433 14.6768C23.2335 14.3016 23.4871 13.9577 23.7566 13.6451C24.2638 13.0511 24.9296 12.8636 25.6904 13.098C26.1343 13.2387 26.5623 13.5201 27.022 13.5826C27.6402 13.6607 28.2901 13.6295 28.9241 13.5826C29.1936 13.567 29.463 13.3638 29.7325 13.27C31.064 12.7698 31.8566 12.9574 32.5382 14.1766C33.1881 15.3489 34.0441 15.9898 35.3914 16.2242C36.7863 16.4587 37.3094 17.1621 37.1351 18.5532C36.9765 19.9131 37.3253 20.9448 38.2763 21.9295C39.2116 22.883 39.1957 23.8208 38.2763 24.7743C37.3094 25.7591 36.9765 26.8064 37.1351 28.1506C37.2936 29.5574 36.7863 30.1201 35.3914 30.5109C35.2171 30.5578 35.0427 30.6203 34.7891 30.6985C35.2805 32.3553 35.7718 33.981 36.2632 35.6222C36.7071 37.0915 37.1668 38.5608 37.5947 40.0301C37.6898 40.374 37.6106 40.7491 37.5947 41.1087C37.2302 40.9836 36.8022 40.9367 36.501 40.7179C35.439 39.9989 34.4245 39.2173 33.3149 38.3889C32.8077 39.7331 32.3638 40.9992 31.8566 42.2497C31.7456 42.5311 31.4603 42.7343 31.2542 42.9687C31.064 42.7186 30.7787 42.4998 30.6836 42.2185C29.7959 39.358 28.94 36.4975 28.0681 33.6214C28.0681 33.6527 28.0364 33.6371 27.9096 33.4651ZM36.1681 19.3035C36.3108 17.4747 36.2474 17.3184 34.6623 17.0214C33.3783 16.7713 32.554 16.0835 31.9517 14.9894C31.2859 13.8014 31.0165 13.7076 29.8118 14.2704C28.5437 14.88 27.3707 14.8643 26.1026 14.2547C24.9454 13.7076 24.6284 13.8014 24.0261 14.9425C23.3762 16.1461 22.4568 16.8182 21.0936 17.0527C19.7779 17.2871 19.6036 17.506 19.7621 18.7877C19.9523 20.1945 19.5719 21.3043 18.5574 22.3203C17.7331 23.1487 17.7331 23.5708 18.5574 24.3836C19.5402 25.3683 19.9523 26.4468 19.7621 27.838C19.5877 29.1979 19.7938 29.448 21.157 29.6824C22.4251 29.9013 23.3128 30.4953 23.931 31.6207C24.6601 32.9337 24.8979 33.0118 26.3245 32.3553C27.4341 31.8551 28.4644 31.8239 29.574 32.3397C31.064 33.0275 31.2542 32.9493 32.0627 31.5113C32.6333 30.4953 33.4259 29.9013 34.583 29.7137C34.9 29.6668 35.2646 29.6512 35.4865 29.4636C35.7877 29.2135 36.0413 28.8384 36.184 28.4789C36.2949 28.2131 36.2157 27.8536 36.1681 27.5566C35.9621 26.4156 36.3583 25.4934 37.1351 24.6493C38.2446 23.4613 38.2446 23.2425 37.1351 22.0389C36.3742 21.2261 35.9304 20.3195 36.1681 19.3035ZM26.9744 33.2307C24.3906 34.0122 24.2955 33.981 22.8531 31.777C22.6629 31.4956 22.4092 31.2612 22.0922 30.886C21.2045 33.8246 20.3803 36.5757 19.4926 39.5612C20.5388 38.7796 21.3789 38.1544 22.2349 37.5448C22.9323 37.0446 23.1384 37.1071 23.4396 37.8887C23.82 38.8578 24.1846 39.8426 24.5492 40.8117C24.5967 40.8117 24.6601 40.796 24.7077 40.796C25.4368 38.2951 26.1977 35.8254 26.9744 33.2307ZM36.2632 39.4049C36.2949 39.3736 36.3425 39.3267 36.3742 39.2955C35.5499 36.5444 34.7098 33.7934 33.8221 30.8391C33.4734 31.2768 33.2198 31.5582 33.0137 31.8708C31.7139 33.9184 31.4762 34.0122 29.1936 33.2776C29.146 33.2619 29.0985 33.2932 28.9717 33.3088C29.7325 35.8254 30.4775 38.3107 31.3018 41.0461C31.7615 39.8269 32.1261 38.8422 32.5065 37.8574C32.7918 37.1228 33.0137 37.0446 33.6478 37.5135C34.5354 38.1232 35.3914 38.764 36.2632 39.4049Z" fill="black"/>
<path d="M27.9826 29.9013C24.465 29.9013 21.6445 26.9869 21.6445 23.3684C21.6445 19.7663 24.4966 16.8027 27.9826 16.8027C31.4685 16.8027 34.3206 19.7499 34.3206 23.3684C34.3206 26.9869 31.5002 29.9013 27.9826 29.9013ZM27.9826 28.9189C30.9614 28.9189 33.3699 26.4629 33.3857 23.3848C33.3857 20.3394 30.9614 17.8179 28.0142 17.8015C25.0671 17.7851 22.6269 20.3066 22.6269 23.352C22.5952 26.4302 25.0037 28.9189 27.9826 28.9189Z" fill="black"/>
<path d="M25.3875 26.3405C26.291 24.7757 25.6729 23.7269 24.4207 22.8113C23.9769 22.4949 24.1829 21.879 24.7377 21.9123C26.2752 22.0122 27.1628 21.3296 27.559 19.7648C27.7017 19.1987 28.304 19.1987 28.4625 19.7481C28.8587 21.2963 29.7305 22.0288 31.2679 21.8956C31.4264 21.879 31.6959 22.1121 31.7752 22.3118C31.8227 22.445 31.6959 22.778 31.5532 22.8612C30.3011 23.6936 29.8573 24.7757 30.5071 26.2573C30.5705 26.4238 30.4596 26.79 30.3169 26.8899C30.1743 26.9898 29.889 26.8732 29.6829 26.8566C29.6512 26.8566 29.6354 26.84 29.6195 26.8233C28.5576 25.8411 27.5115 25.8411 26.4337 26.8067C26.2752 26.9565 25.9423 26.9731 25.7204 26.9065C25.5778 26.8732 25.5144 26.5736 25.3875 26.3405ZM30.0792 22.8279C28.9063 22.9444 28.3198 22.3451 27.987 21.2464C27.7017 22.4284 27.0043 22.8945 25.8948 22.8445C26.9409 23.4605 27.0518 24.3262 26.7348 25.4416C27.6066 24.5426 28.4149 24.7424 29.2867 25.3916C28.938 24.3262 29.0965 23.4772 30.0792 22.8279Z" fill="black"/>
</svg>
