<svg width="56" height="56" viewBox="0 0 56 56" fill="none" xmlns="http://www.w3.org/2000/svg">
<circle cx="28" cy="28" r="28" fill="white"/>
<mask id="mask0_7434_1902" style="mask-type:alpha" maskUnits="userSpaceOnUse" x="11" y="11" width="34" height="34">
<rect x="11" y="11" width="34" height="34" fill="#D9D9D9"/>
</mask>
<g mask="url(#mask0_7434_1902)">
<path d="M29.5599 37.1221C30.818 37.1221 32.0762 37.1221 33.3344 37.1221C34.1373 37.1221 34.8682 36.8944 35.5153 36.4151C38.463 34.2462 40.7278 31.4902 42.5252 28.3387C42.8248 27.8235 42.681 27.5 42.1058 27.2723C41.0393 26.8649 39.7452 27.2244 39.2539 28.2549C38.5349 29.7767 37.3367 30.6634 35.8628 31.2745C35.5273 31.4183 35.3475 31.5741 35.3595 32.0055C35.3835 33.2037 34.4967 34.0905 33.2865 34.1025C31.2734 34.1264 29.2483 34.1144 27.2352 34.1144C26.8757 34.1144 26.5522 34.0306 26.5642 33.6231C26.5761 33.2157 26.8997 33.1438 27.2592 33.1558C29.1764 33.1558 31.0936 33.1678 33.0109 33.1438C33.3464 33.1438 33.7898 33.06 33.9815 32.8323C34.2092 32.5806 34.3649 32.0654 34.2571 31.7778C34.1492 31.4902 33.6939 31.1667 33.3704 31.1427C32.4597 31.0588 31.537 31.0828 30.6143 31.1068C29.2723 31.1427 28.074 30.8551 27.0075 29.9564C26.648 29.6568 26.0609 29.525 25.5696 29.4891C24.7428 29.4172 23.892 29.4651 23.0532 29.4651C22.2264 29.4771 21.4955 29.7527 20.8843 30.3399C20.3211 30.8791 19.758 31.4063 19.1828 31.9456C18.9192 32.1852 18.6316 32.341 18.356 32.0294C18.0804 31.7299 18.2242 31.4423 18.4878 31.2026C19.0989 30.6275 19.698 30.0403 20.3211 29.4891C21.088 28.8181 21.9867 28.4825 23.0053 28.4706C23.8201 28.4706 24.6469 28.4706 25.4617 28.4706C26.3844 28.4706 27.2352 28.7462 27.9781 29.2974C28.6492 29.7887 29.3921 30.0163 30.2189 29.9924C31.1416 29.9684 32.0642 29.9325 32.9749 30.0044C33.5261 30.0523 34.0654 30.3039 34.6166 30.4477C34.7843 30.4956 35 30.5436 35.1438 30.4837C36.4859 29.8845 37.6842 29.1895 38.3672 27.7276C39.0742 26.2178 41.1352 25.6906 42.633 26.4095C43.5437 26.8529 43.8553 27.7756 43.364 28.6623C41.5426 31.8976 39.218 34.7136 36.2702 36.9903C35.3236 37.7212 34.2811 38.0568 33.1067 38.0568C30.8061 38.0568 28.5174 38.0448 26.2167 38.0568C25.8092 38.0568 25.3899 38.1886 24.9824 38.1886C24.7907 38.1886 24.587 38.0568 24.3953 37.9849C24.4911 37.7572 24.5271 37.3857 24.6949 37.3138C25.0304 37.17 25.4258 37.1461 25.8092 37.1341C27.0435 37.1101 28.3017 37.1221 29.5599 37.1221Z" fill="black"/>
<path d="M19.6875 23.45C19.6875 21.9401 20.059 21.4968 21.5688 21.305C22.2278 21.2212 22.9348 21.1972 23.0547 20.3344C23.0906 20.0708 23.0786 19.7473 22.9588 19.5196C22.7551 19.1362 22.4316 18.8246 22.1799 18.4651C21.5448 17.5784 21.7725 16.9553 23.1745 15.6012C23.7137 15.086 24.2529 15.098 24.9959 15.6372C25.2235 15.805 25.4512 15.9727 25.6669 16.1285C26.6734 16.8594 27.5602 16.488 27.7279 15.2537C28.0035 13.2047 28.3391 12.9291 30.436 13.013C31.1909 13.0489 31.7661 13.5162 31.9099 14.2592C31.9818 14.6067 32.0537 14.9662 32.0657 15.3256C32.1016 15.8769 32.3653 16.1644 32.8805 16.3562C33.2879 16.5119 33.5875 16.5119 33.923 16.2363C34.1866 16.0206 34.4622 15.8289 34.7378 15.6372C35.6246 15.0021 36.2836 15.05 37.0745 15.8289C37.2063 15.9607 37.3261 16.0806 37.4579 16.2124C38.2488 17.0152 38.2967 17.6503 37.6497 18.537C37.4699 18.7767 37.2902 19.0163 37.1104 19.256C36.4753 20.1187 36.8708 21.0414 37.9372 21.1732C38.0211 21.1852 38.093 21.1972 38.1769 21.1972C40.4177 21.4249 40.2978 22.3595 40.2259 23.9532C40.19 24.7441 39.6508 25.2593 38.8599 25.3792C38.5843 25.4151 38.3087 25.4631 38.0331 25.487C37.1344 25.5709 36.9307 25.7267 36.7509 26.6014C36.703 26.8171 36.8468 27.0927 36.9786 27.2964C37.1703 27.62 37.2902 27.9315 36.9187 28.1831C36.5472 28.4348 36.3435 28.1352 36.1398 27.8716C35.2291 26.7093 35.9002 24.8759 37.3501 24.5883C37.7815 24.5044 38.2128 24.4565 38.6562 24.3846C39.0516 24.3247 39.2314 24.121 39.2434 23.7016C39.2793 22.4194 39.2913 22.3955 38.0451 22.2397C37.0146 22.1199 36.2237 21.7963 35.8882 20.6939C35.6845 20.0349 35.6485 19.4597 36.1039 18.8965C36.2597 18.7168 36.3915 18.5131 36.5353 18.3213C37.2303 17.3867 37.2183 17.3987 36.3675 16.5958C35.9721 16.2244 35.6366 16.1644 35.2291 16.5359C35.0853 16.6677 34.8936 16.7516 34.7498 16.8954C33.8511 17.8181 32.8805 17.6503 31.9219 17.0631C31.5984 16.8594 31.3467 16.464 31.2029 16.1045C31.0352 15.6612 31.0232 15.1699 30.9513 14.6906C30.8914 14.2712 30.6877 14.0315 30.2443 14.0675C30.1245 14.0794 30.0047 14.0675 29.8848 14.0675C28.9741 14.0675 28.9502 14.0914 28.8184 14.9662C28.7824 15.1819 28.7345 15.3975 28.7225 15.6132C28.6626 16.9194 27.9676 17.2309 26.7334 17.5425C26.3978 17.6263 25.9665 17.4346 25.607 17.3028C25.3673 17.2189 25.1876 17.0152 24.9719 16.8594C23.9414 16.1045 23.9414 16.1165 23.0786 17.0392C22.791 17.3387 22.7431 17.5904 23.0067 17.9259C23.3063 18.2974 23.5939 18.6808 23.8575 19.0762C24.5405 20.0828 23.8815 21.8562 22.6952 22.1558C22.2159 22.2756 21.7126 22.3236 21.2213 22.4075C20.8019 22.4674 20.5742 22.6831 20.6102 23.1264C20.6222 23.3301 20.6222 23.5218 20.6102 23.7256C20.5622 24.1929 20.7899 24.4325 21.2453 24.4925C21.4969 24.5284 21.7605 24.6003 22.0122 24.6003C23.2703 24.6123 23.7856 25.4271 24.0972 26.4696C24.1571 26.6613 24.193 26.889 24.1211 27.0568C24.0492 27.2365 23.8335 27.4881 23.6778 27.4881C23.51 27.4881 23.3422 27.2485 23.1865 27.0927C23.1505 27.0448 23.1745 26.9369 23.1745 26.865C23.0547 26.0143 22.7551 25.7267 21.9043 25.5709C21.7725 25.5469 21.6287 25.511 21.4969 25.499C20.023 25.3193 19.6875 24.9238 19.6875 23.45Z" fill="black"/>
<path d="M29.8723 28.3033C27.0923 28.2913 24.8395 26.0625 24.8635 23.3424C24.8755 20.6223 27.1522 18.4175 29.9322 18.4295C32.7122 18.4415 34.941 20.6463 34.929 23.3904C34.917 26.1104 32.6523 28.3153 29.8723 28.3033ZM29.9082 27.3327C32.125 27.3327 33.9344 25.5472 33.9344 23.3544C33.9344 21.1735 32.1011 19.3881 29.8962 19.3881C27.6794 19.3881 25.882 21.1735 25.894 23.3664C25.894 25.5832 27.6794 27.3447 29.9082 27.3327Z" fill="black"/>
<path d="M24.1472 39.7104C23.8956 40.1777 23.7279 40.633 23.4283 40.9805C22.8771 41.6037 22.242 42.1549 21.6429 42.754C21.2954 43.1015 21.0198 43.0655 20.6723 42.742C18.2278 40.2855 15.7473 37.853 13.2669 35.4205C12.8954 35.0491 12.9194 34.7615 13.2909 34.426C13.902 33.8508 14.4891 33.2517 15.1003 32.6765C15.8192 31.9935 16.8138 31.9815 17.5208 32.6645C19.5339 34.6297 21.547 36.5949 23.5361 38.596C23.7997 38.8596 23.9196 39.291 24.1472 39.7104ZM21.2235 41.9991C21.8106 41.352 22.2779 40.8008 22.7692 40.2855C23.1167 39.9141 23.1527 39.5546 22.7812 39.1951C20.8041 37.2539 18.8269 35.3247 16.8378 33.3955C16.4783 33.048 16.0948 33.0599 15.7234 33.3955C15.2081 33.8868 14.6929 34.378 14.2854 34.7735C16.5861 37.158 18.8389 39.4947 21.2235 41.9991Z" fill="black"/>
</g>
</svg>
