<svg width="66" height="66" viewBox="0 0 66 66" fill="none" xmlns="http://www.w3.org/2000/svg">
<circle opacity="0.34" cx="33" cy="33" r="33" fill="#ADADAD"/>
<path fill-rule="evenodd" clip-rule="evenodd" d="M33.9014 48.0746C35.7703 46.3788 37.5 44.5355 39.0738 42.5626C42.3888 38.3978 44.4054 34.2914 44.5419 30.64C44.5959 29.156 44.3502 27.6764 43.8196 26.2895C43.289 24.9026 42.4843 23.6369 41.4536 22.568C40.4228 21.499 39.1872 20.6488 37.8205 20.0681C36.4538 19.4874 34.9841 19.1881 33.4992 19.1881C32.0142 19.1881 30.5445 19.4874 29.1779 20.0681C27.8112 20.6488 26.5756 21.499 25.5448 22.568C24.5141 23.6369 23.7094 24.9026 23.1787 26.2895C22.6481 27.6764 22.4025 29.156 22.4565 30.64C22.5946 34.2914 24.6129 38.3978 27.9262 42.5626C29.5 44.5355 31.2297 46.3788 33.0986 48.0746C33.2785 48.2371 33.4122 48.3552 33.5 48.4289L33.9014 48.0746ZM32.3008 49.9678C32.3008 49.9678 20.5 40.0293 20.5 30.25C20.5 26.8022 21.8696 23.4956 24.3076 21.0576C26.7456 18.6196 30.0522 17.25 33.5 17.25C36.9478 17.25 40.2544 18.6196 42.6924 21.0576C45.1304 23.4956 46.5 26.8022 46.5 30.25C46.5 40.0293 34.6992 49.9678 34.6992 49.9678C34.0427 50.5723 32.9621 50.5658 32.3008 49.9678ZM33.5 34.8C34.7067 34.8 35.864 34.3206 36.7173 33.4673C37.5706 32.614 38.05 31.4567 38.05 30.25C38.05 29.0433 37.5706 27.886 36.7173 27.0327C35.864 26.1794 34.7067 25.7 33.5 25.7C32.2933 25.7 31.136 26.1794 30.2827 27.0327C29.4294 27.886 28.95 29.0433 28.95 30.25C28.95 31.4567 29.4294 32.614 30.2827 33.4673C31.136 34.3206 32.2933 34.8 33.5 34.8ZM33.5 36.75C31.7761 36.75 30.1228 36.0652 28.9038 34.8462C27.6848 33.6272 27 31.9739 27 30.25C27 28.5261 27.6848 26.8728 28.9038 25.6538C30.1228 24.4348 31.7761 23.75 33.5 23.75C35.2239 23.75 36.8772 24.4348 38.0962 25.6538C39.3152 26.8728 40 28.5261 40 30.25C40 31.9739 39.3152 33.6272 38.0962 34.8462C36.8772 36.0652 35.2239 36.75 33.5 36.75Z" fill="white"/>
</svg>
