<svg width="56" height="56" viewBox="0 0 56 56" fill="none" xmlns="http://www.w3.org/2000/svg">
<circle cx="28" cy="28" r="28" fill="white"/>
<mask id="mask0_6318_1832" style="mask-type:alpha" maskUnits="userSpaceOnUse" x="11" y="11" width="34" height="34">
<rect x="11" y="11" width="34" height="34" fill="#D9D9D9"/>
</mask>
<g mask="url(#mask0_6318_1832)">
<path d="M20.3446 39.5745C18.4331 39.5413 16.8131 39.2433 15.3389 38.2828C15.1445 38.1503 14.8367 38.1503 14.5937 38.1668C13.5569 38.2662 12.7307 37.8688 12.2771 36.9911C11.8074 36.0803 11.9369 35.186 12.6497 34.3249C12.8117 34.1262 12.9899 33.8612 12.9899 33.6294C13.0385 31.7415 13.7513 30.0855 14.6909 28.5289C14.9177 28.148 14.9339 27.883 14.6909 27.5022C13.7675 25.9455 13.0547 24.2895 13.0223 22.4016C13.0223 22.1864 12.8765 21.938 12.7307 21.7724C11.9369 20.8284 11.7912 19.9839 12.2933 19.0399C12.7469 18.1457 13.5569 17.7648 14.6747 17.8807C14.8691 17.8973 15.1283 17.9139 15.2741 17.8145C16.9589 16.6719 18.8381 16.4235 20.782 16.4897C21.3166 16.5063 21.5434 16.3075 21.8512 15.877C22.7098 14.6515 23.5522 13.3598 24.6376 12.3828C26.7111 10.5281 29.4327 10.5446 31.5063 12.3994C32.5593 13.3433 33.3855 14.5853 34.1954 15.7611C34.5518 16.2579 34.811 16.5228 35.4428 16.4897C37.322 16.4235 39.1526 16.6884 40.7888 17.7814C40.9832 17.9139 41.291 17.8807 41.5501 17.8642C42.5707 17.7648 43.3969 18.1788 43.8505 19.0565C44.3041 19.9508 44.1583 20.845 43.4941 21.6564C43.3159 21.8717 43.1053 22.1532 43.1053 22.4182C43.0567 24.1901 42.4249 25.7633 41.5501 27.2372C41.21 27.8002 41.1614 28.1811 41.5177 28.7773C42.4087 30.2346 43.0405 31.8078 43.0891 33.5797C43.0891 33.8447 43.2835 34.1262 43.4455 34.3415C44.1421 35.186 44.2717 36.13 43.8019 37.0242C43.3483 37.8853 42.5383 38.2662 41.4691 38.1668C41.2424 38.1503 40.967 38.1337 40.7888 38.2496C39.104 39.3757 37.2248 39.6241 35.2808 39.5579C34.7786 39.5413 34.5356 39.7069 34.2602 40.1209C33.5799 41.1808 32.9157 42.2737 32.0409 43.1514C29.5947 45.6354 26.4358 45.6023 23.9734 43.1349C23.293 42.4559 22.6774 41.6445 22.1752 40.7999C21.7216 39.9885 21.349 39.1108 20.3446 39.5745ZM35.8802 28.0321C35.7992 26.7735 35.7506 25.5315 35.5886 24.3061C35.54 23.9252 35.297 23.4449 34.9892 23.2462C32.9481 21.9711 30.8745 20.7291 28.7847 19.5533C28.4283 19.3546 27.7803 19.338 27.4401 19.5368C25.318 20.7291 23.2282 21.9876 21.1546 23.2628C20.863 23.4449 20.5876 23.9086 20.5876 24.2564C20.539 26.7569 20.539 29.2575 20.5876 31.7747C20.5876 32.1224 20.863 32.5861 21.1546 32.7683C23.2282 34.0599 25.318 35.3185 27.4401 36.4943C27.7965 36.693 28.4283 36.6764 28.7847 36.4777C30.8907 35.302 32.9481 34.0599 34.9892 32.7848C35.297 32.5861 35.5562 32.1059 35.6048 31.725C35.7344 30.5161 35.783 29.2741 35.8802 28.0321ZM22.8718 16.5559C23.8114 16.7712 24.7996 16.8871 25.6744 17.2515C27.2943 17.9304 28.8333 17.947 30.4695 17.2515C31.3605 16.8706 32.3649 16.7712 33.3207 16.5394C32.3001 13.9229 29.9187 12.0682 27.7965 12.1841C25.9012 12.2834 23.4388 14.4694 22.8718 16.5559ZM22.8718 39.5745C23.7142 42.0585 26.3062 44.0457 28.4769 43.847C30.3399 43.6814 32.9481 41.2801 33.2397 39.5579C31.6521 39.0942 30.0807 38.6305 28.4931 38.1834C28.2501 38.1172 27.9585 38.1006 27.7155 38.1668C26.1118 38.614 24.5242 39.0777 22.8718 39.5745ZM40.076 18.6591C38.5694 17.7483 36.9494 17.5495 35.216 17.6158C35.6048 19.0399 36.0584 20.3316 36.2852 21.673C36.4634 22.6997 36.8846 23.4284 37.6784 24.0411C38.7152 24.8525 39.7034 25.7468 40.6916 26.6079C41.372 25.5646 41.9227 24.1073 41.9713 22.4844C39.7196 21.9214 39.3146 20.4641 40.076 18.6591ZM20.8792 17.5827C19.1621 17.5827 17.5097 17.7151 16.0355 18.7087C16.8941 20.6794 16.3271 21.822 14.1725 22.4679C14.2535 24.1073 14.7557 25.5812 15.6629 26.8729C16.9265 25.6309 18.1577 24.422 19.3726 23.2297C19.486 23.1137 19.567 22.9647 19.6156 22.8156C20.0368 21.11 20.4418 19.4043 20.8792 17.5827ZM20.9278 38.4649C20.5228 36.9414 20.053 35.5504 19.7938 34.1427C19.6318 33.3313 19.324 32.7517 18.7085 32.2383C17.6231 31.311 16.6025 30.3174 15.5333 29.3403C14.7719 30.5161 14.2373 31.9734 14.1563 33.5963C16.4567 34.1593 16.7969 35.6497 16.0679 37.4051C17.5421 38.3159 19.1783 38.4649 20.9278 38.4649ZM41.9875 33.5631C41.8741 31.9403 41.4044 30.4498 40.4324 29.0919C39.6548 29.9365 39.0068 30.8142 38.1968 31.4766C37.0304 32.4371 36.3338 33.5466 36.1232 35.0867C35.9612 36.1962 35.54 37.2726 35.2322 38.3821C36.8684 38.614 39.0068 38.1172 40.076 37.3057C39.3632 35.7325 39.59 34.1593 41.9875 33.5631ZM26.4844 18.5597C25.0264 18.2451 23.779 17.9801 22.5316 17.7317C22.4182 17.7151 22.1914 17.8311 22.159 17.9304C21.7216 19.189 21.3166 20.4476 20.8306 21.9048C22.7908 20.7456 24.508 19.7189 26.4844 18.5597ZM35.2484 21.8552C34.9244 20.7291 34.6004 19.752 34.3574 18.7584C34.1468 17.8807 33.7257 17.5495 32.8185 17.8311C31.8465 18.1291 30.8421 18.3113 29.7081 18.5763C31.6521 19.7189 33.3531 20.7456 35.2484 21.8552ZM21.025 34.2587C21.025 34.3911 21.0088 34.4905 21.025 34.5899C21.2194 35.3351 21.4138 36.0803 21.6406 36.8089C22.1266 38.4152 22.1428 38.4152 23.7142 38.084C24.5728 37.9019 25.4152 37.67 26.3872 37.4216C24.4918 36.3121 22.7746 35.302 21.025 34.2587ZM29.6757 37.4879C31.1337 37.8025 32.3973 38.0675 33.6771 38.3324C33.7743 38.349 33.9687 38.2496 34.0011 38.1668C34.4384 36.9083 34.8434 35.6332 35.3294 34.1593C33.3369 35.3185 31.6197 36.3287 29.6757 37.4879ZM19.2916 24.6704C18.3197 25.7799 17.4449 26.7735 16.6025 27.7837C16.5215 27.8665 16.5053 28.1314 16.5701 28.2142C17.4287 29.241 18.3197 30.2346 19.2916 31.3607C19.2916 29.0422 19.2916 26.9722 19.2916 24.6704ZM36.8522 24.7035C36.8522 26.9888 36.8522 29.0588 36.8522 31.3441C37.889 30.1849 38.8286 29.1416 39.833 28.0155C38.8286 26.8894 37.889 25.8627 36.8522 24.7035ZM15.3389 20.0998C15.3389 19.5202 14.8529 19.0068 14.2697 18.9903C13.6541 18.9737 13.1357 19.4871 13.1357 20.1164C13.1357 20.7291 13.6703 21.259 14.2859 21.2424C14.8529 21.1928 15.3389 20.6794 15.3389 20.0998ZM41.9227 18.9737C41.3557 18.9737 40.8374 19.454 40.8212 20.0501C40.7888 20.6628 41.3071 21.2093 41.9227 21.2093C42.4897 21.2093 43.0081 20.7125 43.0243 20.1329C43.0405 19.5202 42.5221 18.9903 41.9227 18.9737ZM13.1357 35.9644C13.1519 36.5771 13.6865 37.0904 14.2859 37.0739C14.8529 37.0408 15.3389 36.5274 15.3227 35.9312C15.3065 35.3351 14.8205 34.8383 14.2373 34.8217C13.6541 34.8051 13.1195 35.3351 13.1357 35.9644ZM41.8741 34.8217C41.3071 34.8383 40.805 35.3516 40.805 35.9312C40.805 36.544 41.3234 37.0739 41.9389 37.0573C42.5221 37.0408 43.0081 36.5274 43.0081 35.9478C43.0243 35.3351 42.4897 34.8051 41.8741 34.8217Z" fill="#0D5DA4"/>
<path d="M22.3897 32.2709C21.7373 31.622 21.9886 31.4777 22.183 30.9974C22.75 29.5898 23.317 28.1988 23.884 26.7912C24.1918 26.046 24.4672 25.3008 24.8074 24.5887C24.9046 24.3734 25.18 24.125 25.3744 24.125C25.5688 24.125 25.8604 24.3734 25.9414 24.5887C26.8486 26.7415 27.7233 28.9109 28.5819 31.0802C28.6629 31.2955 28.6743 31.7685 28.3713 31.9082C28.0532 32.0549 27.6261 31.6598 27.5937 31.4611C27.2697 29.8879 26.0745 29.571 24.8884 29.7057C24.1594 29.7885 23.8608 29.9076 23.4952 30.6828C23.332 30.9974 23.236 31.2955 23.1226 31.5936C23.0416 31.8089 22.9606 32.0242 22.8958 32.2394C22.7824 32.1401 22.4707 32.3537 22.3897 32.2709ZM26.3626 28.5631C26.0224 27.7185 25.7308 27.023 25.342 26.1122C24.9694 27.0561 24.694 27.7848 24.3862 28.5631C25.0666 28.5631 25.6336 28.5631 26.3626 28.5631Z" fill="#0D5DA4"/>
<path d="M30.7823 25.2677C30.3935 25.2346 30.0371 25.2843 29.7131 25.1684C29.5025 25.1021 29.2433 24.8206 29.2433 24.6219C29.2433 24.4397 29.5349 24.1085 29.6969 24.0919C30.8309 24.0423 31.9649 24.0423 33.0827 24.0919C33.2609 24.0919 33.5525 24.4563 33.5363 24.6219C33.5201 24.8206 33.2609 25.0856 33.0503 25.1518C32.7263 25.2512 32.3699 25.218 31.9811 25.2346C31.9811 27.0893 31.9811 28.8944 31.9811 30.7657C32.3375 30.7822 32.6224 30.7657 32.9693 30.8485C33.2123 30.9313 33.5814 31.0612 33.5849 31.3784C33.5883 31.6859 33.2123 31.9249 33.0179 31.9249C31.9487 31.9745 30.8633 31.9745 29.7941 31.9249C29.5997 31.9083 29.2157 31.7026 29.2109 31.3949C29.2062 31.0829 29.5673 30.9313 29.7941 30.8485C30.0857 30.7491 30.4097 30.7988 30.7823 30.7657C30.7823 28.9275 30.7823 27.1224 30.7823 25.2677Z" fill="#0D5DA4"/>
</g>
</svg>
