<svg width="45" height="45" viewBox="0 0 45 45" fill="none" xmlns="http://www.w3.org/2000/svg">
<circle cx="22.5" cy="22.5" r="22.5" fill="white"/>
<mask id="mask0_7036_5530" style="mask-type:alpha" maskUnits="userSpaceOnUse" x="9" y="9" width="28" height="28">
<rect x="9" y="9" width="28" height="28" fill="#5C009F"/>
</mask>
<g mask="url(#mask0_7036_5530)">
<path d="M34.6239 15.4421C34.6239 14.6603 34.6239 13.8653 34.6239 13.0836C34.6239 12.6595 34.677 12.2355 35.2075 12.2223C35.7513 12.209 35.8044 12.633 35.8044 13.0571C35.8044 14.4483 35.7911 15.8396 35.8044 17.2309C35.8176 17.8537 35.5391 18.1054 34.929 18.0922C33.5363 18.0789 32.1437 18.0922 30.7511 18.0922C30.3266 18.0922 29.9022 18.0259 29.9287 17.4694C29.942 16.9526 30.3664 16.9261 30.7511 16.9261C31.7591 16.9261 32.7803 16.9261 33.9475 16.9261C33.7353 16.5949 33.6027 16.3564 33.4435 16.1311C30.4725 11.9573 24.8887 10.0227 20.0343 11.4803C14.7821 13.0571 11.2143 17.5489 11.0153 22.8225C11.0153 22.9285 11.0021 23.0478 11.0153 23.1538C11.0153 23.6043 10.896 23.9886 10.3787 23.9621C9.88795 23.9356 9.80837 23.5513 9.82163 23.1406C9.92774 19.457 11.2673 16.3034 13.8935 13.7196C19.6762 8.02193 29.1197 8.65794 34.1332 15.0711C34.2393 15.2036 34.3587 15.3361 34.478 15.4686C34.5178 15.4686 34.5709 15.4554 34.6239 15.4421Z" fill="#5C009F"/>
<path d="M12.1887 31.367C12.1887 32.1356 12.1887 32.8908 12.1887 33.6593C12.1887 34.0966 12.202 34.5736 11.6051 34.5869C11.0083 34.6134 11.0083 34.1364 11.0083 33.6991C11.0083 32.3343 11.0215 30.9563 11.0083 29.5915C10.995 28.9687 11.2603 28.717 11.8837 28.717C13.2763 28.7302 14.6689 28.717 16.0616 28.717C16.486 28.717 16.9104 28.77 16.8972 29.3265C16.8839 29.8433 16.4727 29.883 16.0748 29.883C15.0668 29.883 14.0456 29.883 12.8784 29.883C13.0906 30.2275 13.2232 30.4925 13.4089 30.7178C16.685 34.8784 20.9557 36.5214 26.1284 35.4879C30.9827 34.5206 34.776 30.4793 35.6249 25.6297C35.731 25.0466 35.7708 24.4504 35.8106 23.8541C35.8371 23.3903 35.784 22.8206 36.4472 22.8471C37.1104 22.8736 37.0308 23.4698 37.0043 23.9204C36.7523 28.399 34.8424 32.0031 31.1552 34.5471C25.1337 38.721 17.1624 37.4357 12.6529 31.685C12.5601 31.5658 12.454 31.4465 12.3611 31.3405C12.2948 31.3538 12.2418 31.367 12.1887 31.367Z" fill="#5C009F"/>
<path d="M22.7817 28.6386C22.7817 27.1016 22.7817 25.6043 22.7817 24.0275C21.5614 24.0408 20.5136 23.6167 19.9301 22.57C19.5587 21.881 19.2802 21.0329 19.2934 20.2644C19.3067 18.3431 20.4871 17.2566 22.7551 16.8591C22.9143 16.4616 22.6756 15.6798 23.4581 15.8123C23.7499 15.8653 23.9488 16.3821 24.1876 16.6868C24.1345 16.7398 24.0815 16.8061 24.0417 16.8591C24.2539 16.8856 24.4661 16.9121 24.665 16.9386C25.8853 17.0711 26.6678 17.7734 27.1851 18.8334C27.3575 19.1911 27.4371 19.5886 26.9861 19.8007C26.5352 20.0127 26.3097 19.7211 26.1107 19.3501C25.5802 18.3564 24.9966 18.0251 24.0417 18.1576C24.0417 19.6681 24.0417 21.1787 24.0417 22.7687C25.2354 22.7555 26.2964 23.1795 26.88 24.2395C27.2514 24.9285 27.5299 25.7765 27.5166 26.5451C27.5034 28.4664 26.3229 29.5529 24.0549 29.9504C23.8958 30.3479 24.1345 31.1297 23.352 30.9972C23.0602 30.9442 22.8612 30.4274 22.6225 30.1227C22.6756 30.0697 22.7286 30.0034 22.7684 29.9504C22.5827 29.9239 22.397 29.8841 22.1981 29.8709C20.9646 29.7649 20.1555 29.0494 19.625 27.9761C19.4526 27.6183 19.373 27.2208 19.824 27.0088C20.2749 26.7968 20.5004 27.0883 20.6993 27.4593C21.2299 28.4531 21.8002 28.7711 22.7817 28.6386ZM22.7551 22.782C22.7551 21.2184 22.7551 19.6814 22.7551 18.1311C21.4288 18.0649 20.4606 19.0454 20.4473 20.4234C20.4341 21.8014 21.3758 22.8085 22.7551 22.782ZM24.0549 24.054C24.0549 25.6308 24.0549 27.1546 24.0549 28.6784C25.3945 28.7579 26.4025 27.7243 26.3627 26.3331C26.3362 24.9285 25.3547 23.948 24.0549 24.054Z" fill="#5C009F"/>
</g>
</svg>
