<svg width="34" height="34" viewBox="0 0 34 34" fill="none" xmlns="http://www.w3.org/2000/svg">
<mask id="mask0_6183_14854" style="mask-type:alpha" maskUnits="userSpaceOnUse" x="0" y="0" width="34" height="34">
<rect width="34" height="34" fill="#D9D9D9"/>
</mask>
<g mask="url(#mask0_6183_14854)">
<path d="M31.1187 7.82291C31.1187 6.87362 31.1187 5.90824 31.1187 4.95895C31.1187 4.44408 31.1831 3.92921 31.8273 3.91312C32.4876 3.89703 32.552 4.4119 32.552 4.92677C32.552 6.61618 32.5359 8.3056 32.552 9.99502C32.5682 10.7512 32.2299 11.0569 31.4891 11.0408C29.798 11.0248 28.107 11.0408 26.4159 11.0408C25.9005 11.0408 25.3852 10.9604 25.4174 10.2846C25.4335 9.65713 25.9488 9.62495 26.4159 9.62495C27.6399 9.62495 28.88 9.62495 30.2973 9.62495C30.0396 9.22271 29.8786 8.9331 29.6853 8.65957C26.0777 3.59132 19.2973 1.24223 13.4027 3.01209C7.02502 4.92677 2.69267 10.3812 2.45109 16.7849C2.45109 16.9136 2.43498 17.0584 2.45109 17.1871C2.45109 17.7342 2.30614 18.2008 1.67803 18.1686C1.08213 18.1364 0.9855 17.6698 1.00161 17.171C1.13045 12.6981 2.75709 8.86874 5.94596 5.73125C12.9679 -1.18731 24.4349 -0.415008 30.5228 7.3724C30.6516 7.5333 30.7966 7.69419 30.9415 7.85509C30.9898 7.85509 31.0542 7.839 31.1187 7.82291Z" fill="#0D5DA4"/>
<path d="M3.87145 27.1632C3.87145 28.0964 3.87145 29.0135 3.87145 29.9467C3.87145 30.4776 3.88756 31.0569 3.16282 31.0729C2.43807 31.1051 2.43807 30.5259 2.43807 29.9949C2.43807 28.3377 2.45418 26.6644 2.43807 25.0071C2.42197 24.2509 2.74408 23.9452 3.50103 23.9452C5.19209 23.9613 6.88316 23.9452 8.57422 23.9452C9.0896 23.9452 9.60497 24.0096 9.58886 24.6853C9.57276 25.3128 9.07349 25.3611 8.59033 25.3611C7.36632 25.3611 6.12621 25.3611 4.70893 25.3611C4.96662 25.7794 5.12767 26.1012 5.35315 26.3748C9.33118 31.4269 14.5171 33.422 20.7982 32.167C26.6928 30.9925 31.2989 26.0851 32.3297 20.1963C32.4585 19.4884 32.5068 18.7643 32.5551 18.0403C32.5873 17.4772 32.5229 16.7853 33.3282 16.8175C34.1335 16.8497 34.0368 17.5737 34.0046 18.1208C33.6986 23.5591 31.3794 27.9355 26.9021 31.0247C19.5903 36.0929 9.91097 34.5322 4.43514 27.5493C4.3224 27.4045 4.19356 27.2597 4.08082 27.131C4.0003 27.1471 3.93587 27.1632 3.87145 27.1632Z" fill="#0D5DA4"/>
<path d="M16.7363 23.8469C16.7363 21.9805 16.7363 20.1623 16.7363 18.2476C15.2546 18.2637 13.9822 17.7489 13.2736 16.4778C12.8227 15.6411 12.4844 14.6114 12.5006 13.6782C12.5167 11.3452 13.95 10.0258 16.7041 9.54313C16.8973 9.06044 16.6074 8.11115 17.5576 8.27205C17.912 8.33641 18.1535 8.9639 18.4434 9.33397C18.379 9.39832 18.3146 9.47877 18.2663 9.54313C18.524 9.57531 18.7817 9.60749 19.0232 9.63967C20.5049 9.80057 21.4551 10.6533 22.0833 11.9405C22.2926 12.3749 22.3893 12.8576 21.8417 13.115C21.2941 13.3725 21.0203 13.0185 20.7787 12.568C20.1345 11.3613 19.4259 10.959 18.2663 11.1199C18.2663 12.9541 18.2663 14.7884 18.2663 16.7191C19.7158 16.703 21.0042 17.2179 21.7128 18.5051C22.1638 19.3417 22.502 20.3715 22.4859 21.3047C22.4698 23.6377 21.0364 24.957 18.2824 25.4397C18.0891 25.9224 18.379 26.8717 17.4288 26.7108C17.0745 26.6465 16.8329 26.019 16.543 25.6489C16.6074 25.5845 16.6718 25.5041 16.7202 25.4397C16.4947 25.4076 16.2692 25.3593 16.0276 25.3432C14.5298 25.2145 13.5474 24.3456 12.9032 23.0424C12.6938 22.608 12.5972 22.1253 13.1448 21.8678C13.6924 21.6104 13.9661 21.9644 14.2077 22.4149C14.8519 23.6216 15.5445 24.0078 16.7363 23.8469ZM16.7041 16.7352C16.7041 14.8366 16.7041 12.9702 16.7041 11.0877C15.0935 11.0073 13.9178 12.1979 13.9017 13.8713C13.8856 15.5446 15.0291 16.7674 16.7041 16.7352ZM18.2824 18.2798C18.2824 20.1945 18.2824 22.0448 18.2824 23.8951C19.909 23.9917 21.133 22.7367 21.0847 21.0473C21.0525 19.3417 19.8607 18.1511 18.2824 18.2798Z" fill="#0D5DA4"/>
</g>
</svg>
