<svg width="28" height="28" viewBox="0 0 28 28" fill="none" xmlns="http://www.w3.org/2000/svg">
<g clip-path="url(#clip0_6185_25673)">
<path d="M13.0139 19.5586C13.0139 19.0896 13.0139 18.8082 13.0139 18.5424C13.0139 12.883 13.0139 7.23924 13.0139 1.57983C13.0139 1.31406 12.9357 0.985749 13.0608 0.813778C13.2955 0.48547 13.624 0.125894 13.9837 0.0320919C14.4999 -0.108612 14.8597 0.297865 14.9849 0.798144C15.0474 1.04828 15.0161 1.31406 15.0161 1.57983C15.0161 7.23924 15.0161 12.883 15.0161 18.5424C15.0161 18.8238 15.0161 19.1052 15.0161 19.5742C15.3759 19.2303 15.6106 19.0114 15.8452 18.7769C17.5971 17.0259 19.3335 15.275 21.0854 13.524C21.4608 13.1488 21.8519 12.7892 22.4463 13.1175C23.1502 13.4927 23.1659 14.2431 22.4776 14.931C20.5536 16.8696 18.6139 18.7926 16.6742 20.7311C16.0798 21.3252 15.5011 21.9193 14.9066 22.4978C14.2184 23.1544 13.7647 23.17 13.0921 22.4978C10.558 19.9807 8.03961 17.4481 5.52117 14.931C4.92676 14.3369 4.84854 13.7429 5.28653 13.2895C5.75581 12.8205 6.27201 12.8674 6.91335 13.5084C8.7748 15.3688 10.6363 17.2292 12.4977 19.0896C12.6228 19.199 12.7323 19.3085 13.0139 19.5586Z" fill="black"/>
<path d="M14.0128 27.9833C9.78936 27.9833 5.5659 27.9833 1.34243 27.9677C0.982658 27.9677 0.529027 27.8739 0.278747 27.655C-0.253096 27.2016 -0.00281675 26.2949 0.685451 26.0916C0.951373 26.0135 1.24858 26.0135 1.53014 26.0135C9.83629 26.0135 18.1581 26.0135 26.4642 26.0135C26.7301 26.0135 26.9961 25.9978 27.2463 26.0604C27.7782 26.1854 28.1223 26.5919 27.9659 27.0922C27.8564 27.4361 27.4653 27.7332 27.1368 27.952C26.9804 28.0615 26.6832 27.9833 26.4486 27.9833C22.3033 27.9833 18.1581 27.9833 14.0128 27.9833Z" fill="black"/>
</g>
<defs>
<clipPath id="clip0_6185_25673">
<rect width="28" height="28" fill="white"/>
</clipPath>
</defs>
</svg>
