<svg width="34" height="34" viewBox="0 0 34 34" fill="none" xmlns="http://www.w3.org/2000/svg">
<mask id="mask0_6183_14851" style="mask-type:alpha" maskUnits="userSpaceOnUse" x="0" y="0" width="34" height="34">
<rect width="34" height="34" fill="#D9D9D9"/>
</mask>
<g mask="url(#mask0_6183_14851)">
<path d="M3.92273 14.4713C3.92273 16.896 3.90625 19.1869 3.93921 21.4611C3.93921 21.6617 4.16993 21.8457 4.28529 22.0463C4.51601 22.4142 4.9445 22.7988 4.91153 23.15C4.71377 25.2569 5.38946 27.2636 5.4389 29.3371C5.47186 30.6916 5.24114 30.9926 3.92273 30.9926C3.46129 30.9926 2.98337 31.0093 2.52193 30.9926C1.69792 30.9591 1.28592 30.5411 1.33536 29.7384C1.43424 28.3505 1.51664 26.9626 1.7144 25.5747C1.81328 24.8723 2.14288 24.2369 1.86272 23.451C1.74736 23.1165 2.24176 22.548 2.45601 22.0965C2.60433 21.7788 2.88449 21.4611 2.88449 21.1266C2.91745 19.0029 2.88449 16.896 2.91745 14.7723C2.93393 14.1536 2.70321 13.8693 2.15936 13.7021C1.81328 13.6017 1.50016 13.4178 1.18704 13.2673C0.395997 12.866 -0.0160043 12.1804 0.000475739 11.3108C0.0169558 10.4246 0.412477 9.75567 1.22 9.38779C2.85153 8.65202 4.49953 7.9497 6.13106 7.23066C9.03155 5.97651 11.932 4.72236 14.8325 3.45149C16.2004 2.8495 17.5353 2.8495 18.9031 3.45149C23.3362 5.39124 27.7859 7.31427 32.2355 9.23729C33.1748 9.63862 33.7846 10.3075 33.7681 11.3777C33.7516 12.4646 33.0924 13.0833 32.1531 13.468C30.6369 14.1034 29.1208 14.7555 27.6211 15.4579C27.3739 15.5749 27.1431 15.9595 27.1102 16.2438C27.0443 17.0799 27.0278 17.916 27.0937 18.7521C27.275 21.1266 26.1049 22.6818 24.1767 23.752C20.8148 25.6081 17.2386 25.8756 13.5306 25.19C11.5036 24.8222 9.62483 24.0864 8.07571 22.6483C7.13634 21.762 6.65842 20.6918 6.65842 19.3875C6.6749 18.3842 6.62546 17.3809 6.6749 16.3776C6.69138 15.8425 6.5101 15.5749 6.0157 15.391C5.37298 15.1401 4.73025 14.8224 3.92273 14.4713ZM5.07634 13.7355C5.34002 13.9194 5.42242 14.0031 5.5213 14.0365C8.78435 15.4579 12.0309 16.8625 15.294 18.2839C16.4146 18.7688 17.5517 18.7186 18.6559 18.2337C23.0231 16.3274 27.3739 14.4378 31.7411 12.5315C32.2684 12.2974 32.7464 12.0466 32.7628 11.3777C32.7793 10.6587 32.2684 10.3911 31.7081 10.157C27.3409 8.26742 22.9737 6.36112 18.6229 4.45481C17.4199 3.93643 16.2333 3.96987 15.0303 4.50498C12.0639 5.82601 9.08099 7.09688 6.0981 8.38447C4.66433 9.00319 3.21409 9.6219 1.7968 10.2741C0.939839 10.6587 0.692639 11.662 1.36832 12.1469C2.09344 12.6486 2.86801 13.1335 3.87329 12.9496C7.13634 12.3476 10.4159 11.7958 13.6954 11.1938C13.9261 11.1603 14.1733 11.0433 14.3217 10.876C15.4423 9.67206 17.2551 9.3209 18.6559 10.1904C19.0514 10.4246 19.447 10.9764 19.4799 11.3944C19.4964 11.7623 19.0679 12.3141 18.6889 12.5148C17.4529 13.1837 16.1674 13.1335 14.9149 12.4479C14.6842 12.3309 14.4041 12.1636 14.1733 12.1971C11.1904 12.6653 8.22403 13.1837 5.07634 13.7355ZM7.79555 16.1602C7.51539 17.9829 7.84499 18.9695 9.11395 19.9895C9.64131 20.4243 10.2511 20.7754 10.8608 21.0764C13.3493 22.247 15.9861 22.4309 18.6724 22.247C18.9526 22.2303 19.4933 22.2805 19.5294 22.6483C19.565 23.0115 19.035 23.2001 18.7878 23.2169C14.9149 23.5179 11.2069 23.1165 8.05923 20.4912C8.04275 20.4745 7.97683 20.5246 7.94387 20.5246C8.28995 21.5447 9.11395 22.3808 10.3994 23.0496C13.168 24.471 16.1345 24.6884 19.1503 24.3372C21.062 24.1198 22.8583 23.5513 24.4239 22.3808C25.0831 21.8958 25.6764 21.344 25.9071 20.4243C25.1491 20.9092 24.4899 21.3942 23.7812 21.7788C23.5835 21.8791 23.0798 21.9468 22.9407 21.645C22.8079 21.3567 23.122 21.0764 23.3198 20.9259C23.8966 20.4577 24.5558 20.0898 25.0996 19.5882C26.0719 18.6852 26.2697 17.5314 26.006 16.1769C25.6105 16.3274 25.2809 16.4612 24.9678 16.595C22.8913 17.4812 20.8313 18.3842 18.7548 19.2872C17.5353 19.8223 16.2993 19.8056 15.0797 19.2872C14.0415 18.8524 13.0032 18.3842 11.9815 17.9494C10.5807 17.3474 9.22931 16.7789 7.79555 16.1602ZM2.32417 29.8889C3.08225 29.8889 3.72497 29.8889 4.43361 29.8889C4.31825 28.4676 4.23585 27.1131 4.07105 25.7753C4.03809 25.5078 3.67553 25.2737 3.46129 25.0228C3.23057 25.2402 2.81857 25.4242 2.78561 25.675C2.58785 27.0462 2.47249 28.4508 2.32417 29.8889ZM18.4581 11.3108C17.5517 10.5416 15.9861 10.5751 15.3434 11.3777C16.3322 12.1135 17.6671 12.08 18.4581 11.3108ZM3.39537 22.5981C3.14817 22.9493 2.85153 23.2001 2.90097 23.3506C2.95041 23.568 3.23057 23.8188 3.44481 23.8857C3.56017 23.9192 3.92273 23.568 3.90625 23.3841C3.90625 23.1667 3.64257 22.9493 3.39537 22.5981Z" fill="#0D5DA4"/>
<circle cx="21.2231" cy="22.3051" r="0.965261" fill="#0D5DA4"/>
</g>
</svg>
