<svg width="66" height="66" viewBox="0 0 66 66" fill="none" xmlns="http://www.w3.org/2000/svg">
<circle opacity="0.34" cx="33" cy="33" r="33" fill="#ADADAD"/>
<path d="M20.8857 45.4596C20.0987 45.4596 19.4421 45.1965 18.916 44.6704C18.3898 44.1442 18.1261 43.4871 18.125 42.699V24.3036C18.125 23.5167 18.3887 22.8601 18.916 22.3339C19.4433 21.8078 20.0993 21.5441 20.884 21.543H46.116C46.9019 21.543 47.5579 21.8066 48.084 22.3339C48.6102 22.8612 48.8739 23.5178 48.875 24.3036V42.7007C48.875 43.4865 48.6113 44.1431 48.084 44.6704C47.5567 45.1977 46.9007 45.4608 46.116 45.4596H20.8857ZM33.5 33.6995L19.8333 24.7632V42.7007C19.8333 43.007 19.9318 43.2587 20.1289 43.4558C20.3259 43.6528 20.5782 43.7513 20.8857 43.7513H46.116C46.4224 43.7513 46.6741 43.6528 46.8711 43.4558C47.0682 43.2587 47.1667 43.0065 47.1667 42.699V24.7615L33.5 33.6995ZM33.5 31.793L46.6405 23.2513H20.3595L33.5 31.793ZM19.8333 24.7632V23.2513V42.7007C19.8333 43.007 19.9318 43.2587 20.1289 43.4558C20.3259 43.6528 20.5782 43.7513 20.8857 43.7513H19.8333V24.7632Z" fill="white"/>
</svg>
