<svg width="34" height="34" viewBox="0 0 34 34" fill="none" xmlns="http://www.w3.org/2000/svg">
<mask id="mask0_6183_14857" style="mask-type:alpha" maskUnits="userSpaceOnUse" x="0" y="0" width="34" height="34">
<rect width="34" height="34" fill="#D9D9D9"/>
</mask>
<g mask="url(#mask0_6183_14857)">
<path d="M5.02344 16.5959C4.50561 16.5959 3.97108 16.5959 3.45326 16.5959C2.96884 16.6127 2.73498 16.3777 2.73498 15.891C2.73498 15.1693 2.68487 14.4308 2.76839 13.7092C2.8018 13.4574 3.2027 13.0211 3.36974 13.0546C5.2406 13.3903 6.61033 12.3162 8.03018 11.4267C10.5525 9.84904 13.0748 8.25464 15.6305 6.71059C16.1484 6.39171 16.3488 6.05605 16.3321 5.43508C16.282 4.04207 16.3488 2.63229 16.2987 1.23929C16.282 0.534395 16.5827 0.232299 17.2174 0.0980333C18.203 -0.120148 19.1217 0.0309007 19.9736 0.500829C21.1429 1.15537 22.2955 1.80991 23.4481 2.48124C23.9826 2.78334 23.9826 3.23648 23.4314 3.55536C22.3623 4.17634 21.2097 4.39452 19.9736 4.3106C19.5894 4.29382 19.1718 4.19312 18.8043 4.27704C18.3366 4.37774 17.6851 4.512 17.4847 4.86445C17.1005 5.51899 17.468 6.25745 18.1362 6.67703C21.3433 8.69101 24.5338 10.7218 27.7911 12.6686C28.3758 13.0211 29.2277 12.9875 29.9627 12.9875C30.7645 12.9875 31.0985 13.256 31.015 14.0616C30.9816 14.4812 31.015 14.9008 31.015 15.3204C31.015 16.5959 31.015 16.5959 29.6954 16.5959C29.3947 16.5959 29.094 16.5959 29.0272 16.5959C28.5762 17.3511 28.2087 17.9553 27.8579 18.5763C27.7744 18.7105 27.7744 18.8952 27.7744 19.063C27.7744 21.2448 27.7744 23.4266 27.7744 25.6084C27.7744 25.8098 27.8412 26.0448 27.9415 26.2294C28.2421 26.7832 28.5595 27.3203 28.9771 28.0252C30.5807 27.9916 29.4949 29.5357 29.9126 30.2909C29.9627 30.3077 30.0128 30.3581 30.0629 30.3581C31.75 30.5427 31.75 30.5427 31.75 32.3217C31.75 34 31.75 34 30.0629 34C21.1262 34 12.1895 34 3.25281 34C2.03341 34 2 33.9664 2 32.7245C2 32.607 2 32.5063 2 32.3888C2 30.5259 2 30.5259 3.92097 30.3245C3.92097 29.821 3.93768 29.3007 3.92097 28.7972C3.88756 27.9413 4.62254 28.2098 4.87311 27.8909C5.22389 27.3371 5.57468 26.7832 5.89205 26.1958C5.99228 26.0112 6.02569 25.7763 6.02569 25.5749C6.04239 23.4434 6.04239 21.3287 6.02569 19.1973C6.02569 18.9623 5.95887 18.7105 5.84194 18.5092C5.54127 17.9553 5.20719 17.4182 4.88981 16.8644C4.93992 16.7637 4.97333 16.6798 5.02344 16.5959ZM3.80404 15.4714C12.557 15.4714 21.2431 15.4714 29.8958 15.4714C29.8958 14.9847 29.8958 14.5819 29.8958 14.028C28.0083 14.5148 26.7555 13.3232 25.3857 12.4672C22.546 10.705 19.723 8.94275 16.8666 7.16374C13.9434 8.9931 11.0369 10.8057 8.14711 12.6183C6.86089 13.4239 5.64149 14.3805 3.97108 14.1287C3.93768 14.1287 3.88756 14.1959 3.82075 14.2462C3.80404 14.6155 3.80404 15.0015 3.80404 15.4714ZM22.4291 28.0252C22.8634 27.3035 23.1975 26.7497 23.5149 26.179C23.6151 25.9944 23.6485 25.7595 23.6485 25.5413C23.6652 23.4266 23.6652 21.2952 23.6485 19.1805C23.6485 18.9623 23.6318 18.7273 23.5483 18.5427C23.2309 17.9385 22.8801 17.3679 22.4792 16.663C21.7609 16.663 20.8422 16.663 20.1072 16.663C19.8233 17.3008 19.6061 17.821 19.3723 18.3245C19.2553 18.6098 19.0215 18.8952 19.0048 19.1637C18.9714 21.2784 18.9881 23.4098 18.9881 25.5245C18.9881 25.7427 19.0048 25.9777 19.105 26.1623C19.4224 26.7329 19.7732 27.2867 20.2075 28.0252C20.8422 28.0252 21.7609 28.0252 22.4291 28.0252ZM13.6261 16.663C12.9579 16.663 12.0392 16.663 11.2708 16.663C10.9868 17.3008 10.7529 17.8043 10.5358 18.3245C10.4022 18.6098 10.185 18.8952 10.1683 19.1805C10.1349 21.3119 10.1516 23.4266 10.1516 25.5581C10.1516 25.7763 10.185 26.0112 10.2852 26.1958C10.6026 26.7665 10.9534 27.3371 11.371 28.042C12.0559 28.042 12.9746 28.042 13.6261 28.042C14.0437 27.3203 14.3777 26.7832 14.6617 26.2294C14.7619 26.028 14.812 25.7595 14.812 25.5245C14.8287 23.4266 14.8287 21.3287 14.812 19.2308C14.812 18.9959 14.7786 18.7273 14.6784 18.5259C14.3777 17.9217 14.027 17.3679 13.6261 16.663ZM3.10247 32.842C12.3231 32.842 21.4603 32.842 30.6308 32.842C30.6308 32.372 30.6308 31.9692 30.6308 31.5497C21.4269 31.5497 12.273 31.5497 3.10247 31.5497C3.10247 32.0028 3.10247 32.3888 3.10247 32.842ZM28.7433 29.2336C20.7921 29.2336 12.8911 29.2336 5.00674 29.2336C5.00674 29.6364 5.00674 29.9553 5.00674 30.3077C12.9579 30.3077 20.8422 30.3077 28.7433 30.3077C28.7433 29.9049 28.7433 29.586 28.7433 29.2336ZM14.8789 16.6462C15.0626 17.0322 15.1294 17.4686 15.3132 17.5357C15.8978 17.7539 15.9312 18.1567 15.9312 18.6602C15.9145 21.1273 15.9145 23.5777 15.9312 26.0448C15.9312 26.5483 15.8978 26.9679 15.2965 27.1693C15.1461 27.2196 15.0626 27.5553 15.0292 27.7734C15.0125 27.8574 15.2296 28.0588 15.3299 28.0588C16.4658 28.0755 17.5849 28.0755 18.9213 28.0755C18.7208 27.6392 18.6707 27.2364 18.5037 27.186C17.8355 26.9679 17.9023 26.4811 17.9023 25.9777C17.9023 23.5944 17.9023 21.228 17.9023 18.8448C17.9023 18.291 17.8021 17.7203 18.5705 17.4854C18.7208 17.435 18.7542 16.9819 18.8711 16.6462C17.5181 16.6462 16.3321 16.6462 14.8789 16.6462ZM6.00898 16.6462C6.27625 17.0826 6.45999 17.3343 6.59363 17.6029C6.76067 17.905 7.06134 18.2238 7.06134 18.5427C7.09475 21.077 7.09475 23.628 7.06134 26.1623C7.06134 26.4811 6.74396 26.7832 6.57692 27.1021C6.42659 27.3707 6.27625 27.6224 6.0591 28.0252C7.49565 28.0252 8.68164 28.0252 10.1516 28.0252C9.88433 27.6056 9.68389 27.3539 9.53355 27.0853C9.36651 26.8 9.09924 26.4979 9.09924 26.2126C9.06583 23.6448 9.06583 21.077 9.09924 18.5092C9.09924 18.2071 9.43332 17.905 9.60036 17.6029C9.7507 17.3343 9.90104 17.0658 10.1182 16.663C8.71505 16.6462 7.52906 16.6462 6.00898 16.6462ZM23.6652 28.0923C24.9514 28.0923 26.0038 28.1091 27.0561 28.0755C27.2399 28.0755 27.5573 27.8741 27.5573 27.807C27.5239 27.5721 27.3735 27.3371 27.2566 27.1357C27.0896 26.8336 26.7388 26.5315 26.7388 26.2294C26.6887 23.628 26.7054 21.0434 26.7388 18.442C26.7388 18.1735 26.9392 17.7539 27.1564 17.6532C27.6909 17.4015 27.6575 17.0826 27.5072 16.6462C26.2878 16.6462 25.1018 16.6462 23.6986 16.6462C23.8991 17.0322 24.016 17.3175 24.1663 17.5861C24.3501 17.905 24.7176 18.2238 24.7176 18.5427C24.7677 21.077 24.7677 23.628 24.7176 26.1623C24.7176 26.4979 24.3668 26.8168 24.183 27.1357C24.016 27.3874 23.8824 27.6727 23.6652 28.0923ZM21.7442 3.20292C21.7609 3.10222 21.7777 2.98474 21.7944 2.88404C20.4246 2.19593 19.3222 0.836492 17.4847 1.13859C17.4847 1.9274 17.4847 2.63229 17.4847 3.20292C18.938 3.20292 20.3411 3.20292 21.7442 3.20292Z" fill="#0D5DA4"/>
<path d="M16.9018 9.66034C18.2883 9.67712 19.4575 10.8519 19.4408 12.2282C19.4241 13.6044 18.2381 14.7624 16.8517 14.7456C15.4653 14.7288 14.296 13.5372 14.3127 12.1778C14.3294 10.8016 15.5154 9.64355 16.9018 9.66034ZM16.9018 10.7512C16.1 10.7345 15.4653 11.3554 15.4486 12.161C15.4151 13.0002 16.0499 13.6715 16.8684 13.6883C17.6702 13.7051 18.305 13.0841 18.3217 12.2785C18.3551 11.4226 17.737 10.7512 16.9018 10.7512Z" fill="#0D5DA4"/>
</g>
</svg>
