<svg width="56" height="56" viewBox="0 0 56 56" fill="none" xmlns="http://www.w3.org/2000/svg">
<circle cx="28" cy="28" r="28" fill="white"/>
<mask id="mask0_6318_1819" style="mask-type:alpha" maskUnits="userSpaceOnUse" x="11" y="11" width="34" height="34">
<rect x="11" y="11" width="34" height="34" fill="#D9D9D9"/>
</mask>
<g mask="url(#mask0_6318_1819)">
<path d="M14.9227 25.4713C14.9227 27.896 14.9063 30.1869 14.9392 32.4611C14.9392 32.6617 15.1699 32.8457 15.2853 33.0463C15.516 33.4142 15.9445 33.7988 15.9115 34.15C15.7138 36.2569 16.3895 38.2636 16.4389 40.3371C16.4719 41.6916 16.2411 41.9926 14.9227 41.9926C14.4613 41.9926 13.9834 42.0093 13.5219 41.9926C12.6979 41.9591 12.2859 41.5411 12.3354 40.7384C12.4342 39.3505 12.5166 37.9626 12.7144 36.5747C12.8133 35.8723 13.1429 35.2369 12.8627 34.451C12.7474 34.1165 13.2418 33.548 13.456 33.0965C13.6043 32.7788 13.8845 32.4611 13.8845 32.1266C13.9174 30.0029 13.8845 27.896 13.9174 25.7723C13.9339 25.1536 13.7032 24.8693 13.1594 24.7021C12.8133 24.6017 12.5002 24.4178 12.187 24.2673C11.396 23.866 10.984 23.1804 11.0005 22.3108C11.017 21.4246 11.4125 20.7557 12.22 20.3878C13.8515 19.652 15.4995 18.9497 17.1311 18.2307C20.0316 16.9765 22.932 15.7224 25.8325 14.4515C27.2004 13.8495 28.5353 13.8495 29.9031 14.4515C34.3362 16.3912 38.7859 18.3143 43.2355 20.2373C44.1748 20.6386 44.7846 21.3075 44.7681 22.3777C44.7516 23.4646 44.0924 24.0833 43.1531 24.468C41.6369 25.1034 40.1208 25.7555 38.6211 26.4579C38.3739 26.5749 38.1431 26.9595 38.1102 27.2438C38.0443 28.0799 38.0278 28.916 38.0937 29.7521C38.275 32.1266 37.1049 33.6818 35.1767 34.752C31.8148 36.6081 28.2386 36.8756 24.5306 36.19C22.5036 35.8222 20.6248 35.0864 19.0757 33.6483C18.1363 32.762 17.6584 31.6918 17.6584 30.3875C17.6749 29.3842 17.6255 28.3809 17.6749 27.3776C17.6914 26.8425 17.5101 26.5749 17.0157 26.391C16.373 26.1401 15.7303 25.8224 14.9227 25.4713ZM16.0763 24.7355C16.34 24.9194 16.4224 25.0031 16.5213 25.0365C19.7844 26.4579 23.0309 27.8625 26.294 29.2839C27.4146 29.7688 28.5517 29.7186 29.6559 29.2337C34.0231 27.3274 38.3739 25.4378 42.7411 23.5315C43.2684 23.2974 43.7464 23.0466 43.7628 22.3777C43.7793 21.6587 43.2684 21.3911 42.7081 21.157C38.3409 19.2674 33.9737 17.3611 29.6229 15.4548C28.4199 14.9364 27.2333 14.9699 26.0303 15.505C23.0639 16.826 20.081 18.0969 17.0981 19.3845C15.6643 20.0032 14.2141 20.6219 12.7968 21.2741C11.9398 21.6587 11.6926 22.662 12.3683 23.1469C13.0934 23.6486 13.868 24.1335 14.8733 23.9496C18.1363 23.3476 21.4159 22.7958 24.6954 22.1938C24.9261 22.1603 25.1733 22.0433 25.3217 21.876C26.4423 20.6721 28.2551 20.3209 29.6559 21.1904C30.0514 21.4246 30.447 21.9764 30.4799 22.3944C30.4964 22.7623 30.0679 23.3141 29.6889 23.5148C28.4529 24.1837 27.1674 24.1335 25.9149 23.4479C25.6842 23.3309 25.4041 23.1636 25.1733 23.1971C22.1904 23.6653 19.224 24.1837 16.0763 24.7355ZM18.7955 27.1602C18.5154 28.9829 18.845 29.9695 20.114 30.9895C20.6413 31.4243 21.2511 31.7754 21.8608 32.0764C24.3493 33.247 26.9861 33.4309 29.6724 33.247C29.9526 33.2303 30.4933 33.2805 30.5294 33.6483C30.565 34.0115 30.035 34.2001 29.7878 34.2169C25.9149 34.5179 22.2069 34.1165 19.0592 31.4912C19.0427 31.4745 18.9768 31.5246 18.9439 31.5246C19.2899 32.5447 20.114 33.3808 21.3994 34.0496C24.168 35.471 27.1345 35.6884 30.1503 35.3372C32.062 35.1198 33.8583 34.5513 35.4239 33.3808C36.0831 32.8958 36.6764 32.344 36.9071 31.4243C36.1491 31.9092 35.4899 32.3942 34.7812 32.7788C34.5835 32.8791 34.0798 32.9468 33.9407 32.645C33.8079 32.3567 34.122 32.0764 34.3198 31.9259C34.8966 31.4577 35.5558 31.0898 36.0996 30.5882C37.0719 29.6852 37.2697 28.5314 37.006 27.1769C36.6105 27.3274 36.2809 27.4612 35.9678 27.595C33.8913 28.4812 31.8313 29.3842 29.7548 30.2872C28.5353 30.8223 27.2993 30.8056 26.0797 30.2872C25.0415 29.8524 24.0032 29.3842 22.9815 28.9494C21.5807 28.3474 20.2293 27.7789 18.7955 27.1602ZM13.3242 40.8889C14.0822 40.8889 14.725 40.8889 15.4336 40.8889C15.3183 39.4676 15.2359 38.1131 15.0711 36.7753C15.0381 36.5078 14.6755 36.2737 14.4613 36.0228C14.2306 36.2402 13.8186 36.4242 13.7856 36.675C13.5878 38.0462 13.4725 39.4508 13.3242 40.8889ZM29.4581 22.3108C28.5517 21.5416 26.9861 21.5751 26.3434 22.3777C27.3322 23.1135 28.6671 23.08 29.4581 22.3108ZM14.3954 33.5981C14.1482 33.9493 13.8515 34.2001 13.901 34.3506C13.9504 34.568 14.2306 34.8188 14.4448 34.8857C14.5602 34.9192 14.9227 34.568 14.9063 34.3841C14.9063 34.1667 14.6426 33.9493 14.3954 33.5981Z" fill="#0D5DA4"/>
<circle cx="32.2231" cy="33.3051" r="0.965261" fill="#0D5DA4"/>
</g>
</svg>
