<svg width="45" height="45" viewBox="0 0 45 45" fill="none" xmlns="http://www.w3.org/2000/svg">
<circle cx="22.5" cy="22.5" r="22.5" fill="white"/>
<mask id="mask0_7036_5539" style="mask-type:alpha" maskUnits="userSpaceOnUse" x="9" y="9" width="28" height="28">
<rect x="9" y="9" width="28" height="28" fill="#5C009F"/>
</mask>
<g mask="url(#mask0_7036_5539)">
<path d="M12.2305 20.9176C12.2305 22.9144 12.2169 24.8011 12.2441 26.6739C12.2441 26.8392 12.4341 26.9907 12.5291 27.1559C12.7191 27.4589 13.0719 27.7756 13.0448 28.0648C12.8819 29.7999 13.4384 31.4525 13.4791 33.1601C13.5062 34.2755 13.3162 34.5234 12.2305 34.5234C11.8505 34.5234 11.4569 34.5372 11.0769 34.5234C10.3983 34.4959 10.059 34.1516 10.0997 33.4906C10.1811 32.3476 10.249 31.2046 10.4119 30.0616C10.4933 29.4832 10.7647 28.9599 10.534 28.3127C10.439 28.0373 10.8462 27.569 11.0226 27.1972C11.1447 26.9356 11.3755 26.6739 11.3755 26.3985C11.4026 24.6496 11.3755 22.9144 11.4026 21.1655C11.4162 20.656 11.2262 20.4219 10.7783 20.2842C10.4933 20.2015 10.2354 20.0501 9.97756 19.9261C9.32612 19.5956 8.98682 19.031 9.00039 18.3149C9.01396 17.585 9.33969 17.0342 10.0047 16.7312C11.3483 16.1253 12.7055 15.5469 14.0491 14.9548C16.4377 13.9219 18.8264 12.8891 21.215 11.8425C22.3415 11.3468 23.4408 11.3468 24.5673 11.8425C28.2181 13.44 31.8825 15.0236 35.5469 16.6073C36.3205 16.9378 36.8226 17.4886 36.809 18.37C36.7955 19.2651 36.2526 19.7746 35.479 20.0914C34.2304 20.6147 32.9818 21.1517 31.7468 21.7301C31.5432 21.8265 31.3532 22.1433 31.326 22.3774C31.2717 23.0659 31.2582 23.7545 31.3125 24.443C31.4617 26.3985 30.4981 27.6792 28.9102 28.5606C26.1416 30.0891 23.1965 30.3095 20.1429 29.7449C18.4735 29.4419 16.9263 28.836 15.6506 27.6517C14.877 26.9218 14.4834 26.0405 14.4834 24.9663C14.497 24.1401 14.4563 23.3138 14.497 22.4875C14.5105 22.0469 14.3613 21.8265 13.9541 21.675C13.4248 21.4685 12.8955 21.2068 12.2305 20.9176ZM13.1805 20.3117C13.3977 20.4632 13.4655 20.532 13.547 20.5596C16.2342 21.7301 18.9078 22.8869 21.595 24.0574C22.5179 24.4568 23.4544 24.4155 24.3637 24.0161C27.9602 22.4462 31.5432 20.8901 35.1397 19.3202C35.574 19.1274 35.9676 18.9208 35.9812 18.37C35.9947 17.7778 35.574 17.5575 35.1126 17.3647C31.516 15.8086 27.9195 14.2387 24.3365 12.6688C23.3458 12.2419 22.3686 12.2694 21.3779 12.7101C18.935 13.798 16.4785 14.8446 14.022 15.905C12.8412 16.4145 11.6469 16.924 10.4797 17.4611C9.77399 17.7778 9.57041 18.6041 10.1269 19.0035C10.724 19.4166 11.3619 19.8159 12.1898 19.6645C14.877 19.1687 17.5778 18.7143 20.2786 18.2185C20.4686 18.191 20.6722 18.0946 20.7943 17.9569C21.7172 16.9653 23.2101 16.6762 24.3637 17.3922C24.6894 17.585 25.0151 18.0395 25.0423 18.3838C25.0559 18.6867 24.703 19.1412 24.3908 19.3064C23.3729 19.8573 22.3143 19.8159 21.2829 19.2513C21.0929 19.1549 20.8622 19.0172 20.6722 19.0448C18.2157 19.4304 15.7727 19.8573 13.1805 20.3117ZM15.4199 22.3085C15.1891 23.8095 15.4606 24.622 16.5056 25.4621C16.9399 25.8201 17.4421 26.1093 17.9442 26.3572C19.9936 27.3212 22.1651 27.4726 24.3773 27.3212C24.608 27.3074 25.0533 27.3488 25.083 27.6517C25.1123 27.9508 24.6758 28.1061 24.4723 28.1199C21.2829 28.3678 18.2292 28.0373 15.637 25.8752C15.6234 25.8614 15.5692 25.9027 15.542 25.9027C15.827 26.7428 16.5056 27.4313 17.5642 27.9822C19.8443 29.1527 22.2872 29.3317 24.7708 29.0425C26.3452 28.8635 27.8245 28.3953 29.1138 27.4313C29.6567 27.032 30.1453 26.5775 30.3353 25.8201C29.711 26.2195 29.1681 26.6188 28.5845 26.9356C28.4217 27.0182 28.0069 27.074 27.8924 26.8254C27.7829 26.588 28.0417 26.3572 28.2045 26.2332C28.6795 25.8477 29.2224 25.5447 29.6703 25.1316C30.471 24.3879 30.6339 23.4377 30.4167 22.3223C30.091 22.4462 29.8196 22.5564 29.5617 22.6666C27.8516 23.3964 26.1552 24.1401 24.4451 24.8837C23.4408 25.3244 22.4229 25.3106 21.4186 24.8837C20.5636 24.5256 19.7086 24.1401 18.8671 23.782C17.7135 23.2862 16.6006 22.818 15.4199 22.3085ZM10.914 33.6145C11.5383 33.6145 12.0676 33.6145 12.6512 33.6145C12.5562 32.444 12.4883 31.3285 12.3526 30.2268C12.3255 30.0065 12.0269 29.8137 11.8505 29.6071C11.6605 29.7862 11.3212 29.9377 11.294 30.1442C11.1312 31.2734 11.0362 32.4302 10.914 33.6145ZM24.2008 18.3149C23.4544 17.6814 22.1651 17.709 21.6358 18.37C22.4501 18.9759 23.5494 18.9484 24.2008 18.3149ZM11.7962 27.6103C11.5926 27.8995 11.3483 28.1061 11.389 28.23C11.4297 28.4091 11.6605 28.6156 11.8369 28.6707C11.9319 28.6983 12.2305 28.4091 12.2169 28.2576C12.2169 28.0786 11.9998 27.8995 11.7962 27.6103Z" fill="#5C009F"/>
<circle cx="26.4785" cy="27.3677" r="0.794921" fill="#5C009F"/>
</g>
</svg>
