<svg width="34" height="34" viewBox="0 0 34 34" fill="none" xmlns="http://www.w3.org/2000/svg">
<mask id="mask0_6183_14852" style="mask-type:alpha" maskUnits="userSpaceOnUse" x="0" y="0" width="34" height="34">
<rect width="34" height="34" fill="#D9D9D9"/>
</mask>
<g mask="url(#mask0_6183_14852)">
<path d="M14.1953 8.10547C16.1497 6.34025 19.2825 6.5398 21.0537 8.5332L21.2266 8.73926C22.0578 9.77801 22.3894 10.9702 22.2334 12.1768C22.0716 13.4265 21.3873 14.6811 20.2148 15.792C21.1228 16.2936 22.0309 16.7954 22.9531 17.2969C23.5346 16.9386 24.1704 16.5638 24.8594 16.1523C23.8937 15.2793 23.3703 14.1981 23.4658 12.8535C23.5318 11.8272 23.9619 10.9317 24.7363 10.2363V10.2354C26.254 8.87664 28.4983 8.92729 29.9814 10.334C30.8032 11.1099 31.1952 12.0172 31.1455 13.0283C31.0973 14.0066 30.6334 15.068 29.7754 16.1943C31.1334 16.8404 32.1842 17.6989 32.9023 18.7959C33.6398 19.9224 34.0212 21.2939 34.0293 22.9316L34.0303 23.0322H26.0293C26.0304 23.4474 26.0373 23.8155 26.0352 24.1699L26.0283 24.5488C25.9803 26.4232 24.7075 27.9218 22.8496 28.0439L22.668 28.0518C19.1802 28.1163 15.7085 28.1163 12.2207 28.0518C10.3325 28.0185 8.99376 26.6336 8.8291 24.748C8.783 24.2228 8.82181 23.6738 8.82617 23.0645C6.20968 23.08 3.62351 23.0801 1.02246 23.0801H0.929688L0.922852 22.9873C0.817236 21.5339 1.06972 20.3174 1.75977 19.2129C2.43504 18.1321 3.52523 17.1673 5.08887 16.1904C4.22495 15.0577 3.7674 13.9678 3.74121 12.9639C3.71424 11.93 4.14322 11.003 5.02246 10.2354C6.57238 8.87722 8.89767 8.95958 10.333 10.418L10.4766 10.5713C11.167 11.3478 11.484 12.2544 11.4238 13.2041C11.3615 14.185 10.8964 15.2013 10.0439 16.1641C10.6063 16.5304 11.1672 16.8941 11.7422 17.2285L11.7451 17.2305L11.8262 17.2607C11.859 17.2675 11.8972 17.2704 11.9385 17.2695C12.0201 17.2677 12.0978 17.2496 12.1455 17.2256C12.9618 16.7613 13.755 16.2728 14.5586 15.8047C13.324 14.3829 12.6527 12.9983 12.5742 11.7021C12.4938 10.3737 13.0361 9.15514 14.1953 8.10547ZM17.332 16.6885C13.196 16.7044 9.99268 20.0308 10.0244 24.2549C10.0323 25.067 10.2717 25.7055 10.6992 26.1426C11.1265 26.5793 11.7533 26.8271 12.5605 26.835C14.1507 26.8511 15.7574 26.8506 17.3643 26.8506H22.167C23.0067 26.8427 23.6576 26.5872 24.0967 26.1328C24.5359 25.6782 24.7754 25.0117 24.7676 24.1592C24.7358 19.9518 21.4691 16.6726 17.332 16.6885ZM29.1699 17.3604C28.2404 17.0043 27.2069 16.9322 26.2695 17.1006C25.3575 17.2645 24.5447 17.6547 24.0078 18.2207C24.5751 19.3615 25.1107 20.468 25.6777 21.5439L25.7461 21.6318C25.7754 21.6617 25.8109 21.6915 25.8496 21.7178C25.9286 21.7712 26.0052 21.7988 26.0566 21.7988H26.0576C28.2245 21.8306 30.3913 21.8159 32.6367 21.8154C32.5618 20.0498 31.2908 18.3411 29.5342 17.5156L29.1699 17.3604ZM10.9141 18.2705C9.26471 16.8795 7.0471 16.6137 5.07031 17.6455L5.06934 17.6465C3.41388 18.5014 2.45851 19.8713 2.15332 21.7832H9.00586C9.26401 21.1808 9.49078 20.5462 9.80469 19.9785C10.1152 19.3864 10.5325 18.8446 10.9141 18.2705ZM7.57715 10.5234C6.13902 10.5081 4.96174 11.6734 4.93066 13.1045C4.91568 14.5498 6.07678 15.7306 7.51562 15.7461C8.95407 15.7615 10.13 14.5961 10.1455 13.166V13.165C10.1764 11.7365 9.00046 10.539 7.57715 10.5234ZM27.2627 10.5234C25.8242 10.539 24.6787 11.7203 24.6787 13.1514C24.695 14.6126 25.8541 15.7459 27.3086 15.7305C28.7489 15.7149 29.9246 14.532 29.9092 13.1035C29.8937 11.6741 28.702 10.5079 27.2627 10.5234ZM17.3633 8.16699C15.4108 8.1513 13.7842 9.76834 13.7686 11.7314V11.7324C13.7374 13.7268 15.3638 15.3915 17.3486 15.4072C19.3491 15.4229 20.9753 13.8062 20.9912 11.7949C20.9911 9.78372 19.3644 8.1513 17.3643 8.16699H17.3633Z" fill="#0D5DA4" stroke="#0D5DA4" stroke-width="0.2"/>
</g>
</svg>
