<svg width="45" height="45" viewBox="0 0 45 45" fill="none" xmlns="http://www.w3.org/2000/svg">
<circle cx="22.5" cy="22.5" r="22.5" fill="white"/>
<mask id="mask0_7036_5556" style="mask-type:alpha" maskUnits="userSpaceOnUse" x="9" y="9" width="28" height="28">
<rect x="9.5" y="9.5" width="27" height="27" fill="#5C009F" stroke="white"/>
</mask>
<g mask="url(#mask0_7036_5556)">
<path d="M20.6758 15.6602C22.2422 14.2454 24.7226 14.3559 26.208 15.8633L26.3486 16.0137C27.1406 16.9112 27.462 17.9631 27.3242 19.0283C27.1912 20.0561 26.6309 21.0861 25.6738 21.999C26.4114 22.4065 27.1495 22.8134 27.8984 23.2207C28.3692 22.9308 28.8837 22.6286 29.4395 22.2969C28.6522 21.5777 28.2261 20.6872 28.3047 19.582L28.3389 19.2686C28.4524 18.5493 28.7952 17.9179 29.3564 17.4141L29.5986 17.2168C30.8429 16.2985 32.548 16.4041 33.6992 17.4961C34.3793 18.1383 34.7054 18.8899 34.6641 19.7285C34.6243 20.5344 34.2442 21.4066 33.5439 22.3301C34.6551 22.8622 35.5184 23.5655 36.1084 24.4668C36.7179 25.3979 37.0324 26.5313 37.0391 27.8828V27.9834H30.4502C30.4517 28.4402 30.4616 28.8298 30.4492 29.2158C30.4079 30.817 29.2863 32.0895 27.665 32.1172C24.7925 32.1704 21.9331 32.1704 19.0605 32.1172C17.4957 32.0896 16.3864 30.9415 16.25 29.3809C16.2124 28.9525 16.2428 28.5031 16.2471 28.0098C14.0985 28.0224 11.9748 28.0234 9.83887 28.0234H9.74609L9.73926 27.9307C9.65202 26.7308 9.86016 25.7249 10.4307 24.8115C10.9864 23.9219 11.8818 23.128 13.1621 22.3262C12.457 21.3972 12.0812 20.5019 12.0596 19.6748C12.0372 18.8175 12.3935 18.0484 13.1211 17.4131C14.4043 16.2889 16.3299 16.3572 17.5186 17.5645L17.5195 17.5654C18.1727 18.2353 18.4761 19.0335 18.4229 19.873C18.3716 20.6806 17.9885 21.5141 17.293 22.3047C17.6287 22.5233 17.9635 22.7407 18.3027 22.9482L18.6758 23.1709L18.6787 23.1729C18.7082 23.1913 18.7617 23.2036 18.8281 23.2021C18.8935 23.2007 18.9548 23.1863 18.9912 23.168C19.6572 22.7891 20.303 22.3913 20.959 22.0088C19.9499 20.842 19.3988 19.7043 19.334 18.6367C19.2673 17.5364 19.7178 16.5276 20.6758 15.6602ZM23.2705 22.7598C19.9806 22.7724 17.4091 25.3351 17.2754 28.6494L17.2695 28.9727C17.2761 29.6379 17.4723 30.1587 17.8203 30.5146C18.1682 30.8703 18.6796 31.0726 19.3408 31.0791C20.6502 31.0924 21.9736 31.0928 23.2969 31.0928H27.252C27.9399 31.0863 28.4706 30.8768 28.8281 30.5068C29.1858 30.1366 29.3824 29.5931 29.376 28.8945C29.3499 25.4391 26.6675 22.7468 23.2705 22.7598ZM33.0127 23.3105C32.2504 23.0186 31.4018 22.9604 30.6328 23.0986C29.8887 23.2325 29.2279 23.5503 28.7891 24.0088C29.254 24.9439 29.6945 25.8497 30.1592 26.7314L30.2119 26.7998C30.2351 26.8235 30.2637 26.847 30.2949 26.8682C30.3586 26.9113 30.4178 26.9326 30.4551 26.9326H30.457C32.2343 26.9587 34.011 26.9458 35.8525 26.9453C35.7828 25.5056 34.7468 24.1129 33.3115 23.4385L33.0127 23.3105ZM17.9609 24.0479C16.6093 22.9158 14.7974 22.702 13.1807 23.5459H13.1797C11.8277 24.2441 11.0452 25.3605 10.791 26.9189H16.4023C16.6123 26.4276 16.7987 25.9071 17.0557 25.4424C17.3093 24.9587 17.6501 24.5141 17.9609 24.0479ZM15.2373 17.6816C14.0628 17.669 13.1007 18.621 13.0752 19.79C13.0629 20.9706 14.0113 21.9355 15.1865 21.9482C16.361 21.9607 17.3221 21.0087 17.335 19.8408V19.8389C17.3599 18.6727 16.3994 17.6946 15.2373 17.6816ZM31.4482 17.6816C30.2736 17.6945 29.3379 18.6593 29.3379 19.8281C29.3511 21.022 30.2981 21.9473 31.4863 21.9346C32.6629 21.9218 33.623 20.9554 33.6104 19.7891C33.5975 18.6218 32.6238 17.6689 31.4482 17.6816ZM23.1465 15.7441C21.6156 15.8117 20.365 17.1024 20.3525 18.6592V18.6602C20.327 20.2928 21.6594 21.6561 23.2842 21.6689C24.9215 21.6817 26.2532 20.3583 26.2666 18.7119L26.2627 18.5586C26.1832 16.9829 24.8832 15.7288 23.2969 15.7412H23.2959L23.1465 15.7441Z" fill="#5C009F" stroke="white" stroke-width="0.2"/>
</g>
</svg>
