<svg width="56" height="56" viewBox="0 0 56 56" fill="none" xmlns="http://www.w3.org/2000/svg">
<circle cx="28" cy="28" r="28" fill="white"/>
<mask id="mask0_6318_1826" style="mask-type:alpha" maskUnits="userSpaceOnUse" x="11" y="11" width="34" height="34">
<rect x="11" y="11" width="34" height="34" fill="#D9D9D9"/>
</mask>
<g mask="url(#mask0_6318_1826)">
<path d="M25.1953 19.1055C27.1497 17.3403 30.2825 17.5398 32.0537 19.5332L32.2266 19.7393C33.0578 20.778 33.3894 21.9702 33.2334 23.1768C33.0716 24.4265 32.3873 25.6811 31.2148 26.792C32.1228 27.2936 33.0309 27.7954 33.9531 28.2969C34.5346 27.9386 35.1704 27.5638 35.8594 27.1523C34.8937 26.2793 34.3703 25.1981 34.4658 23.8535C34.5318 22.8272 34.9619 21.9317 35.7363 21.2363V21.2354C37.254 19.8766 39.4983 19.9273 40.9814 21.334C41.8032 22.1099 42.1952 23.0172 42.1455 24.0283C42.0973 25.0066 41.6334 26.068 40.7754 27.1943C42.1334 27.8404 43.1842 28.6989 43.9023 29.7959C44.6398 30.9224 45.0212 32.2939 45.0293 33.9316L45.0303 34.0322H37.0293C37.0304 34.4474 37.0373 34.8155 37.0352 35.1699L37.0283 35.5488C36.9803 37.4232 35.7075 38.9218 33.8496 39.0439L33.668 39.0518C30.1802 39.1163 26.7085 39.1163 23.2207 39.0518C21.3325 39.0185 19.9938 37.6336 19.8291 35.748C19.783 35.2228 19.8218 34.6738 19.8262 34.0645C17.2097 34.08 14.6235 34.0801 12.0225 34.0801H11.9297L11.9229 33.9873C11.8172 32.5339 12.0697 31.3174 12.7598 30.2129C13.435 29.1321 14.5252 28.1673 16.0889 27.1904C15.225 26.0577 14.7674 24.9678 14.7412 23.9639C14.7142 22.93 15.1432 22.003 16.0225 21.2354C17.5724 19.8772 19.8977 19.9596 21.333 21.418L21.4766 21.5713C22.167 22.3478 22.484 23.2544 22.4238 24.2041C22.3615 25.185 21.8964 26.2013 21.0439 27.1641C21.6063 27.5304 22.1672 27.8941 22.7422 28.2285L22.7451 28.2305L22.8262 28.2607C22.859 28.2675 22.8972 28.2704 22.9385 28.2695C23.0201 28.2677 23.0978 28.2496 23.1455 28.2256C23.9618 27.7613 24.755 27.2728 25.5586 26.8047C24.324 25.3829 23.6527 23.9983 23.5742 22.7021C23.4938 21.3737 24.0361 20.1551 25.1953 19.1055ZM28.332 27.6885C24.196 27.7044 20.9927 31.0308 21.0244 35.2549C21.0323 36.067 21.2717 36.7055 21.6992 37.1426C22.1265 37.5793 22.7533 37.8271 23.5605 37.835C25.1507 37.8511 26.7574 37.8506 28.3643 37.8506H33.167C34.0067 37.8427 34.6576 37.5872 35.0967 37.1328C35.5359 36.6782 35.7754 36.0117 35.7676 35.1592C35.7358 30.9518 32.4691 27.6726 28.332 27.6885ZM40.1699 28.3604C39.2404 28.0043 38.2069 27.9322 37.2695 28.1006C36.3575 28.2645 35.5447 28.6547 35.0078 29.2207C35.5751 30.3615 36.1107 31.468 36.6777 32.5439L36.7461 32.6318C36.7754 32.6617 36.8109 32.6915 36.8496 32.7178C36.9286 32.7712 37.0052 32.7988 37.0566 32.7988H37.0576C39.2245 32.8306 41.3913 32.8159 43.6367 32.8154C43.5618 31.0498 42.2908 29.3411 40.5342 28.5156L40.1699 28.3604ZM21.9141 29.2705C20.2647 27.8795 18.0471 27.6137 16.0703 28.6455L16.0693 28.6465C14.4139 29.5014 13.4585 30.8713 13.1533 32.7832H20.0059C20.264 32.1808 20.4908 31.5462 20.8047 30.9785C21.1152 30.3864 21.5325 29.8446 21.9141 29.2705ZM18.5771 21.5234C17.139 21.5081 15.9617 22.6734 15.9307 24.1045C15.9157 25.5498 17.0768 26.7306 18.5156 26.7461C19.9541 26.7615 21.13 25.5961 21.1455 24.166V24.165C21.1764 22.7365 20.0005 21.539 18.5771 21.5234ZM38.2627 21.5234C36.8242 21.539 35.6787 22.7203 35.6787 24.1514C35.695 25.6126 36.8541 26.7459 38.3086 26.7305C39.7489 26.7149 40.9246 25.532 40.9092 24.1035C40.8937 22.6741 39.702 21.5079 38.2627 21.5234ZM28.3633 19.167C26.4108 19.1513 24.7842 20.7683 24.7686 22.7314V22.7324C24.7374 24.7268 26.3638 26.3915 28.3486 26.4072C30.3491 26.4229 31.9753 24.8062 31.9912 22.7949C31.9911 20.7837 30.3644 19.1513 28.3643 19.167H28.3633Z" fill="#0D5DA4" stroke="#0D5DA4" stroke-width="0.2"/>
</g>
</svg>
