<svg width="34" height="34" viewBox="0 0 34 34" fill="none" xmlns="http://www.w3.org/2000/svg">
<mask id="mask0_6183_14853" style="mask-type:alpha" maskUnits="userSpaceOnUse" x="0" y="0" width="34" height="34">
<rect width="34" height="34" fill="#D9D9D9"/>
</mask>
<g mask="url(#mask0_6183_14853)">
<path d="M4 11.748C4 10.0504 4 8.36946 4 6.67185C4 5.65662 4.28404 5.40697 5.20297 5.73983C8.61139 6.95479 11.435 5.97284 13.8243 3.44307C14.6597 2.56099 15.4282 1.59568 16.1801 0.647019C16.8651 -0.218426 17.1324 -0.201783 17.8342 0.613733C18.9703 1.92854 20.1065 3.27664 21.3763 4.45831C23.3311 6.25577 25.6869 6.65521 28.2265 5.88962C28.5273 5.80641 28.8113 5.70655 29.112 5.63997C29.6467 5.52347 30.031 5.73983 30.0143 6.3057C29.9307 10.4831 30.2315 14.7272 29.63 18.838C28.7111 25.1291 24.8849 29.6894 19.6052 33.1179C17.8175 34.2829 16.2469 34.2995 14.4425 33.1345C8.76176 29.4231 5.01918 24.4634 4.16708 17.6397C3.93317 15.7091 4.13366 13.7119 4.13366 11.7314C4.10025 11.748 4.05012 11.748 4 11.748ZM5.42018 7.18779C5.38676 7.42079 5.35334 7.55394 5.35334 7.68709C5.35334 10.5497 5.23639 13.4123 5.40347 16.2583C5.85458 23.6479 9.81437 28.8406 16.0464 32.5187C16.7147 32.9015 17.3831 32.8849 18.018 32.4854C18.7531 32.0361 19.505 31.6033 20.19 31.0874C24.8348 27.6755 27.8924 23.2318 28.4939 17.4233C28.7779 14.6772 28.6108 11.8812 28.6442 9.1184C28.6442 8.51924 28.6442 7.90345 28.6442 7.17115C23.1473 8.81882 19.9895 5.55676 16.9821 1.86197C14.0081 5.52347 10.8503 8.80218 5.42018 7.18779Z" fill="#0D5DA4"/>
<path d="M19.7627 19.7861C19.7627 20.7514 19.746 21.5669 19.7627 22.399C19.7794 23.0648 19.4954 23.3644 18.827 23.3644C17.6241 23.3477 16.4378 23.3477 15.2348 23.3644C14.5164 23.381 14.2491 23.0315 14.2658 22.3325C14.2992 21.5336 14.2658 20.7347 14.2658 19.7861C13.3802 19.7861 12.5616 19.7694 11.7429 19.7861C11.0077 19.8194 10.6568 19.5364 10.6568 18.7875C10.6736 17.6225 10.6736 16.4574 10.6568 15.2924C10.6401 14.5768 10.9743 14.2938 11.676 14.3105C12.4947 14.3437 13.3301 14.3105 14.2658 14.3105C14.2658 13.3784 14.2825 12.5629 14.2658 11.7308C14.2491 11.0318 14.5498 10.7155 15.2515 10.7155C16.4211 10.7322 17.5906 10.7322 18.7602 10.7155C19.4619 10.6989 19.7961 10.9818 19.7627 11.7141C19.7293 12.5463 19.7627 13.3618 19.7627 14.3105C20.6816 14.3105 21.5003 14.3271 22.319 14.3105C23.004 14.2938 23.3716 14.5435 23.3549 15.2758C23.3382 16.4741 23.3382 17.6557 23.3549 18.8541C23.3549 19.5198 23.0541 19.8194 22.3858 19.8027C21.5671 19.7694 20.7317 19.7861 19.7627 19.7861ZM15.6358 12.1302C15.6358 12.6961 15.6358 13.212 15.6358 13.728C15.6358 15.6419 15.6358 15.6419 13.7478 15.6419C13.1965 15.6419 12.6618 15.6419 12.0937 15.6419C12.0937 16.6239 12.0937 17.4727 12.0937 18.4213C12.6618 18.4213 13.1797 18.4213 13.6977 18.4213C15.6191 18.4213 15.6191 18.4213 15.6191 20.302C15.6191 20.8512 15.6191 21.3838 15.6191 21.9497C16.6049 21.9497 17.457 21.9497 18.4093 21.9497C18.4093 21.1675 18.4093 20.4185 18.4093 19.6862C18.4093 18.5045 18.4929 18.4213 19.7126 18.4213C20.4477 18.4213 21.1996 18.4213 21.9514 18.4213C21.9514 17.4394 21.9514 16.5906 21.9514 15.6419C21.3833 15.6419 20.8654 15.6419 20.3475 15.6419C18.4093 15.6419 18.4093 15.6419 18.4093 13.7612C18.4093 13.212 18.4093 12.6794 18.4093 12.1136C17.4403 12.1302 16.5882 12.1302 15.6358 12.1302Z" fill="#0D5DA4"/>
<path d="M25.2045 23.406C25.2045 23.742 24.9706 23.9885 24.8537 24.2048C23.6173 26.6347 21.8462 28.582 19.6241 30.1465C19.2064 30.4294 18.7553 30.679 18.4044 30.1298C18.0869 29.6305 18.4378 29.3309 18.8388 29.048C20.9607 27.5834 22.6148 25.7027 23.7676 23.3893C23.9013 23.123 24.2437 22.7571 24.6365 22.8401C24.9428 22.9048 25.2045 23.0928 25.2045 23.406Z" fill="#0D5DA4"/>
<circle cx="25.0084" cy="21.0123" r="1.00055" fill="#0D5DA4"/>
</g>
</svg>
