<svg width="45" height="45" viewBox="0 0 45 45" fill="none" xmlns="http://www.w3.org/2000/svg">
<circle cx="22.5" cy="22.5" r="22.5" fill="white"/>
<mask id="mask0_7036_5520" style="mask-type:alpha" maskUnits="userSpaceOnUse" x="9" y="9" width="28" height="28">
<rect x="9" y="9" width="28" height="28" fill="#5C009F"/>
</mask>
<g mask="url(#mask0_7036_5520)">
<path d="M12.293 18.6748C12.293 17.2768 12.293 15.8925 12.293 14.4945C12.293 13.6584 12.5269 13.4528 13.2837 13.7269C16.0906 14.7275 18.4159 13.9188 20.3835 11.8355C21.0715 11.109 21.7045 10.3141 22.3236 9.53284C22.8878 8.82012 23.1079 8.83383 23.6858 9.50543C24.6215 10.5882 25.5571 11.6984 26.6028 12.6715C28.2127 14.1518 30.1528 14.4808 32.2442 13.8503C32.4919 13.7817 32.7258 13.6995 32.9735 13.6447C33.4138 13.5487 33.7302 13.7269 33.7165 14.1929C33.6477 17.6332 33.8954 21.1282 33.4 24.5137C32.6432 29.6946 29.4923 33.4501 25.1443 36.2735C23.6721 37.233 22.3787 37.2467 20.8926 36.2872C16.2144 33.2308 13.1323 29.1463 12.4306 23.5268C12.2379 21.9369 12.403 20.2922 12.403 18.6611C12.3755 18.6748 12.3342 18.6748 12.293 18.6748ZM13.4625 14.9194C13.435 15.1112 13.4075 15.2209 13.4075 15.3305C13.4075 17.688 13.3112 20.0455 13.4488 22.3892C13.8203 28.4747 17.0813 32.7511 22.2136 35.7801C22.7639 36.0954 23.3143 36.0817 23.8372 35.7527C24.4426 35.3826 25.0618 35.0263 25.6259 34.6014C29.451 31.7916 31.969 28.1321 32.4644 23.3486C32.6983 21.0871 32.5607 18.7845 32.5882 16.5093C32.5882 16.0158 32.5882 15.5087 32.5882 14.9057C28.0613 16.2626 25.4608 13.5762 22.9841 10.5334C20.5349 13.5487 17.9344 16.2489 13.4625 14.9194Z" fill="#5C009F"/>
<path d="M25.2728 25.2912C25.2728 26.0862 25.2591 26.7578 25.2728 27.4431C25.2866 27.9913 25.0527 28.238 24.5023 28.238C23.5116 28.2243 22.5347 28.2243 21.544 28.238C20.9524 28.2517 20.7322 27.9639 20.746 27.3883C20.7735 26.7304 20.746 26.0725 20.746 25.2912C20.0167 25.2912 19.3425 25.2775 18.6683 25.2912C18.0629 25.3186 17.7739 25.0856 17.7739 24.4689C17.7877 23.5094 17.7877 22.55 17.7739 21.5906C17.7602 21.0012 18.0354 20.7682 18.6133 20.7819C19.2875 20.8093 19.9754 20.7819 20.746 20.7819C20.746 20.0144 20.7597 19.3428 20.746 18.6574C20.7322 18.0818 20.9799 17.8214 21.5578 17.8214C22.521 17.8351 23.4841 17.8351 24.4473 17.8214C25.0252 17.8077 25.3004 18.0407 25.2728 18.6437C25.2453 19.329 25.2728 20.0006 25.2728 20.7819C26.0296 20.7819 26.7038 20.7956 27.378 20.7819C27.9422 20.7682 28.2449 20.9738 28.2311 21.5769C28.2174 22.5637 28.2174 23.5368 28.2311 24.5237C28.2311 25.0719 27.9835 25.3186 27.4331 25.3049C26.7589 25.2775 26.0709 25.2912 25.2728 25.2912ZM21.8743 18.9864C21.8743 19.4524 21.8743 19.8773 21.8743 20.3022C21.8743 21.8784 21.8743 21.8784 20.3194 21.8784C19.8654 21.8784 19.4251 21.8784 18.9572 21.8784C18.9572 22.6871 18.9572 23.3861 18.9572 24.1673C19.4251 24.1673 19.8516 24.1673 20.2782 24.1673C21.8605 24.1673 21.8605 24.1673 21.8605 25.7161C21.8605 26.1684 21.8605 26.607 21.8605 27.073C22.6723 27.073 23.374 27.073 24.1583 27.073C24.1583 26.4288 24.1583 25.8121 24.1583 25.209C24.1583 24.2358 24.2271 24.1673 25.2316 24.1673C25.837 24.1673 26.4562 24.1673 27.0753 24.1673C27.0753 23.3587 27.0753 22.6596 27.0753 21.8784C26.6075 21.8784 26.181 21.8784 25.7544 21.8784C24.1583 21.8784 24.1583 21.8784 24.1583 20.3296C24.1583 19.8773 24.1583 19.4387 24.1583 18.9727C23.3603 18.9864 22.6585 18.9864 21.8743 18.9864Z" fill="#5C009F"/>
<path d="M29.7562 28.2767C29.7562 28.5534 29.5636 28.7564 29.4673 28.9345C28.4491 30.9356 26.9906 32.5393 25.1605 33.8276C24.8166 34.0606 24.4451 34.2662 24.1561 33.8139C23.8947 33.4027 24.1836 33.156 24.5138 32.923C26.2613 31.7169 27.6235 30.1681 28.5729 28.2629C28.683 28.0436 28.965 27.7423 29.2884 27.8106C29.5407 27.8639 29.7562 28.0188 29.7562 28.2767Z" fill="#5C009F"/>
<circle cx="29.6013" cy="26.3035" r="0.823982" fill="#5C009F"/>
</g>
</svg>
