<svg width="56" height="56" viewBox="0 0 56 56" fill="none" xmlns="http://www.w3.org/2000/svg">
<circle cx="28" cy="28" r="28" fill="white"/>
<mask id="mask0_6318_1795" style="mask-type:alpha" maskUnits="userSpaceOnUse" x="11" y="11" width="34" height="34">
<rect x="11" y="11" width="34" height="34" fill="#D9D9D9"/>
</mask>
<g mask="url(#mask0_6318_1795)">
<path d="M16.0234 27.5959C15.5056 27.5959 14.9711 27.5959 14.4533 27.5959C13.9688 27.6127 13.735 27.3777 13.735 26.891C13.735 26.1693 13.6849 25.4308 13.7684 24.7092C13.8018 24.4574 14.2027 24.0211 14.3697 24.0546C16.2406 24.3903 17.6103 23.3162 19.0302 22.4267C21.5525 20.849 24.0748 19.2546 26.6305 17.7106C27.1484 17.3917 27.3488 17.0561 27.3321 16.4351C27.282 15.0421 27.3488 13.6323 27.2987 12.2393C27.282 11.5344 27.5827 11.2323 28.2174 11.098C29.203 10.8799 30.1217 11.0309 30.9736 11.5008C32.1429 12.1554 33.2955 12.8099 34.4481 13.4812C34.9826 13.7833 34.9826 14.2365 34.4314 14.5554C33.3623 15.1763 32.2097 15.3945 30.9736 15.3106C30.5894 15.2938 30.1718 15.1931 29.8043 15.277C29.3366 15.3777 28.6851 15.512 28.4847 15.8644C28.1005 16.519 28.468 17.2574 29.1362 17.677C32.3433 19.691 35.5338 21.7218 38.7911 23.6686C39.3758 24.0211 40.2277 23.9875 40.9627 23.9875C41.7645 23.9875 42.0985 24.256 42.015 25.0616C41.9816 25.4812 42.015 25.9008 42.015 26.3204C42.015 27.5959 42.015 27.5959 40.6954 27.5959C40.3947 27.5959 40.094 27.5959 40.0272 27.5959C39.5762 28.3511 39.2087 28.9553 38.8579 29.5763C38.7744 29.7105 38.7744 29.8952 38.7744 30.063C38.7744 32.2448 38.7744 34.4266 38.7744 36.6084C38.7744 36.8098 38.8412 37.0448 38.9415 37.2294C39.2421 37.7832 39.5595 38.3203 39.9771 39.0252C41.5807 38.9916 40.4949 40.5357 40.9125 41.2909C40.9627 41.3077 41.0128 41.3581 41.0629 41.3581C42.75 41.5427 42.75 41.5427 42.75 43.3217C42.75 45 42.75 45 41.0629 45C32.1262 45 23.1895 45 14.2528 45C13.0334 45 13 44.9664 13 43.7245C13 43.607 13 43.5063 13 43.3888C13 41.5259 13 41.5259 14.921 41.3245C14.921 40.821 14.9377 40.3007 14.921 39.7972C14.8876 38.9413 15.6225 39.2098 15.8731 38.8909C16.2239 38.3371 16.5747 37.7832 16.8921 37.1958C16.9923 37.0112 17.0257 36.7763 17.0257 36.5749C17.0424 34.4434 17.0424 32.3287 17.0257 30.1973C17.0257 29.9623 16.9589 29.7105 16.8419 29.5091C16.5413 28.9553 16.2072 28.4182 15.8898 27.8644C15.9399 27.7637 15.9733 27.6798 16.0234 27.5959ZM14.804 26.4714C23.557 26.4714 32.2431 26.4714 40.8958 26.4714C40.8958 25.9847 40.8958 25.5819 40.8958 25.028C39.0083 25.5148 37.7555 24.3232 36.3857 23.4672C33.546 21.705 30.723 19.9428 27.8666 18.1637C24.9434 19.9931 22.0369 21.8057 19.1471 23.6183C17.8609 24.4239 16.6415 25.3805 14.9711 25.1287C14.9377 25.1287 14.8876 25.1959 14.8207 25.2462C14.804 25.6155 14.804 26.0015 14.804 26.4714ZM33.4291 39.0252C33.8634 38.3035 34.1975 37.7497 34.5149 37.1791C34.6151 36.9944 34.6485 36.7595 34.6485 36.5413C34.6652 34.4266 34.6652 32.2952 34.6485 30.1805C34.6485 29.9623 34.6318 29.7273 34.5483 29.5427C34.2309 28.9385 33.8801 28.3679 33.4792 27.663C32.7609 27.663 31.8422 27.663 31.1072 27.663C30.8233 28.3008 30.6061 28.821 30.3723 29.3245C30.2553 29.6098 30.0215 29.8952 30.0048 30.1637C29.9714 32.2784 29.9881 34.4098 29.9881 36.5245C29.9881 36.7427 30.0048 36.9777 30.105 37.1623C30.4224 37.7329 30.7732 38.2867 31.2075 39.0252C31.8422 39.0252 32.761 39.0252 33.4291 39.0252ZM24.6261 27.663C23.9579 27.663 23.0392 27.663 22.2708 27.663C21.9868 28.3008 21.7529 28.8043 21.5358 29.3245C21.4022 29.6098 21.185 29.8952 21.1683 30.1805C21.1349 32.3119 21.1516 34.4266 21.1516 36.5581C21.1516 36.7763 21.185 37.0112 21.2852 37.1958C21.6026 37.7665 21.9534 38.3371 22.371 39.042C23.0559 39.042 23.9746 39.042 24.6261 39.042C25.0437 38.3203 25.3777 37.7832 25.6617 37.2294C25.7619 37.028 25.812 36.7595 25.812 36.5245C25.8287 34.4266 25.8287 32.3287 25.812 30.2308C25.812 29.9959 25.7786 29.7273 25.6784 29.5259C25.3777 28.9217 25.027 28.3679 24.6261 27.663ZM14.1025 43.842C23.3231 43.842 32.4603 43.842 41.6308 43.842C41.6308 43.372 41.6308 42.9692 41.6308 42.5497C32.4269 42.5497 23.273 42.5497 14.1025 42.5497C14.1025 43.0028 14.1025 43.3888 14.1025 43.842ZM39.7433 40.2336C31.7921 40.2336 23.8911 40.2336 16.0067 40.2336C16.0067 40.6364 16.0067 40.9553 16.0067 41.3077C23.9579 41.3077 31.8422 41.3077 39.7433 41.3077C39.7433 40.9049 39.7433 40.586 39.7433 40.2336ZM25.8789 27.6462C26.0626 28.0322 26.1294 28.4686 26.3132 28.5357C26.8978 28.7539 26.9312 29.1567 26.9312 29.6602C26.9145 32.1273 26.9145 34.5777 26.9312 37.0448C26.9312 37.5483 26.8978 37.9679 26.2965 38.1693C26.1461 38.2196 26.0626 38.5553 26.0292 38.7734C26.0125 38.8574 26.2296 39.0588 26.3299 39.0588C27.4657 39.0755 28.5849 39.0755 29.9213 39.0755C29.7208 38.6392 29.6707 38.2364 29.5037 38.186C28.8355 37.9679 28.9023 37.4811 28.9023 36.9777C28.9023 34.5944 28.9023 32.228 28.9023 29.8448C28.9023 29.291 28.8021 28.7203 29.5705 28.4854C29.7208 28.435 29.7542 27.9819 29.8711 27.6462C28.5181 27.6462 27.3321 27.6462 25.8789 27.6462ZM17.009 27.6462C17.2762 28.0826 17.46 28.3343 17.5936 28.6029C17.7607 28.905 18.0613 29.2238 18.0613 29.5427C18.0947 32.077 18.0947 34.628 18.0613 37.1623C18.0613 37.4811 17.744 37.7832 17.5769 38.1021C17.4266 38.3707 17.2762 38.6224 17.0591 39.0252C18.4956 39.0252 19.6816 39.0252 21.1516 39.0252C20.8843 38.6056 20.6839 38.3539 20.5335 38.0853C20.3665 37.8 20.0992 37.4979 20.0992 37.2126C20.0658 34.6448 20.0658 32.077 20.0992 29.5091C20.0992 29.2071 20.4333 28.905 20.6004 28.6029C20.7507 28.3343 20.901 28.0658 21.1182 27.663C19.715 27.6462 18.5291 27.6462 17.009 27.6462ZM34.6652 39.0923C35.9514 39.0923 37.0038 39.1091 38.0561 39.0755C38.2399 39.0755 38.5573 38.8741 38.5573 38.807C38.5239 38.5721 38.3735 38.3371 38.2566 38.1357C38.0896 37.8336 37.7388 37.5315 37.7388 37.2294C37.6887 34.628 37.7054 32.0434 37.7388 29.442C37.7388 29.1735 37.9392 28.7539 38.1564 28.6532C38.6909 28.4015 38.6575 28.0826 38.5072 27.6462C37.2878 27.6462 36.1018 27.6462 34.6986 27.6462C34.8991 28.0322 35.016 28.3175 35.1663 28.5861C35.3501 28.905 35.7176 29.2238 35.7176 29.5427C35.7677 32.077 35.7677 34.628 35.7176 37.1623C35.7176 37.4979 35.3668 37.8168 35.183 38.1357C35.016 38.3874 34.8824 38.6727 34.6652 39.0923ZM32.7442 14.2029C32.7609 14.1022 32.7777 13.9847 32.7944 13.884C31.4246 13.1959 30.3221 11.8365 28.4847 12.1386C28.4847 12.9274 28.4847 13.6323 28.4847 14.2029C29.938 14.2029 31.3411 14.2029 32.7442 14.2029Z" fill="#0D5DA4"/>
<path d="M27.9018 20.6603C29.2883 20.6771 30.4575 21.8519 30.4408 23.2282C30.4241 24.6044 29.2381 25.7624 27.8517 25.7456C26.4653 25.7288 25.296 24.5372 25.3127 23.1778C25.3294 21.8016 26.5154 20.6436 27.9018 20.6603ZM27.9018 21.7512C27.1 21.7345 26.4653 22.3554 26.4486 23.161C26.4151 24.0002 27.0499 24.6715 27.8684 24.6883C28.6702 24.7051 29.305 24.0841 29.3217 23.2785C29.3551 22.4226 28.737 21.7512 27.9018 21.7512Z" fill="#0D5DA4"/>
</g>
</svg>
