<svg width="45" height="45" viewBox="0 0 45 45" fill="none" xmlns="http://www.w3.org/2000/svg">
<circle cx="22.5" cy="22.5" r="22.5" fill="white"/>
<mask id="mask0_7036_5506" style="mask-type:alpha" maskUnits="userSpaceOnUse" x="9" y="8" width="28" height="28">
<rect x="9" y="8" width="28" height="28" fill="#5C009F"/>
</mask>
<g mask="url(#mask0_7036_5506)">
<path d="M13.1344 21.6672C12.708 21.6672 12.2678 21.6672 11.8413 21.6672C11.4424 21.681 11.2498 21.4875 11.2498 21.0867C11.2498 20.4924 11.2085 19.8842 11.2773 19.2899C11.3048 19.0826 11.635 18.7232 11.7725 18.7509C13.3133 19.0273 14.4413 18.1427 15.6106 17.4102C17.6878 16.111 19.765 14.7979 21.8697 13.5264C22.2961 13.2638 22.4612 12.9873 22.4475 12.4759C22.4062 11.3288 22.4612 10.1678 22.4199 9.02059C22.4062 8.44009 22.6538 8.1913 23.1765 8.08073C23.9882 7.90105 24.7448 8.02545 25.4463 8.41245C26.4093 8.95148 27.3585 9.49052 28.3076 10.0434C28.7478 10.2922 28.7478 10.6653 28.2939 10.9279C27.4135 11.4393 26.4643 11.619 25.4463 11.5499C25.1299 11.5361 24.786 11.4532 24.4834 11.5223C24.0982 11.6052 23.5617 11.7158 23.3966 12.006C23.0802 12.5451 23.3829 13.1532 23.9331 13.4987C26.5743 15.1573 29.2018 16.8297 31.8843 18.433C32.3658 18.7232 33.0673 18.6956 33.6726 18.6956C34.3329 18.6956 34.608 18.9167 34.5393 19.5802C34.5117 19.9257 34.5393 20.2712 34.5393 20.6168C34.5393 21.6672 34.5393 21.6672 33.4525 21.6672C33.2049 21.6672 32.9573 21.6672 32.9023 21.6672C32.5308 22.2892 32.2282 22.7867 31.9393 23.2981C31.8705 23.4087 31.8705 23.5607 31.8705 23.6989C31.8705 25.4957 31.8705 27.2925 31.8705 29.0893C31.8705 29.2551 31.9256 29.4486 32.0081 29.6007C32.2557 30.0568 32.5171 30.4991 32.861 31.0796C34.1816 31.0519 33.2874 32.3235 33.6313 32.9455C33.6726 32.9593 33.7139 33.0007 33.7551 33.0007C35.1445 33.1528 35.1445 33.1528 35.1445 34.6179C35.1445 36 35.1445 36 33.7551 36C26.3955 36 19.0359 36 11.6763 36C10.672 36 10.6445 35.9724 10.6445 34.9496C10.6445 34.8528 10.6445 34.7699 10.6445 34.6731C10.6445 33.139 10.6445 33.139 12.2265 32.9731C12.2265 32.5585 12.2403 32.13 12.2265 31.7154C12.199 31.0105 12.8043 31.2316 13.0106 30.969C13.2995 30.5129 13.5884 30.0568 13.8498 29.573C13.9323 29.421 13.9598 29.2275 13.9598 29.0616C13.9736 27.3063 13.9736 25.5648 13.9598 23.8095C13.9598 23.616 13.9048 23.4087 13.8085 23.2428C13.5609 22.7867 13.2857 22.3444 13.0244 21.8883C13.0656 21.8054 13.0932 21.7363 13.1344 21.6672ZM12.1302 20.7412C19.3385 20.7412 26.4918 20.7412 33.6176 20.7412C33.6176 20.3403 33.6176 20.0086 33.6176 19.5525C32.0631 19.9533 31.0314 18.972 29.9034 18.2671C27.5648 16.8159 25.24 15.3646 22.8877 13.8996C20.4803 15.4061 18.0867 16.8988 15.7069 18.3915C14.6476 19.0549 13.6434 19.8428 12.2678 19.6354C12.2403 19.6354 12.199 19.6907 12.144 19.7322C12.1302 20.0363 12.1302 20.3542 12.1302 20.7412ZM27.4685 31.0796C27.8262 30.4853 28.1013 30.0291 28.3627 29.5592C28.4452 29.4072 28.4727 29.2137 28.4727 29.034C28.4865 27.2925 28.4865 25.5372 28.4727 23.7957C28.4727 23.616 28.459 23.4225 28.3902 23.2705C28.1288 22.7729 27.8399 22.303 27.5098 21.7225C26.9183 21.7225 26.1617 21.7225 25.5564 21.7225C25.3225 22.2477 25.1437 22.6762 24.9511 23.0908C24.8548 23.3258 24.6622 23.5607 24.6485 23.7819C24.6209 25.5234 24.6347 27.2787 24.6347 29.0202C24.6347 29.1999 24.6485 29.3934 24.731 29.5454C24.9924 30.0153 25.2813 30.4714 25.6389 31.0796C26.1617 31.0796 26.9183 31.0796 27.4685 31.0796ZM20.2189 21.7225C19.6687 21.7225 18.9121 21.7225 18.2793 21.7225C18.0454 22.2477 17.8528 22.6623 17.674 23.0908C17.564 23.3258 17.3851 23.5607 17.3714 23.7957C17.3439 25.551 17.3576 27.2925 17.3576 29.0478C17.3576 29.2275 17.3851 29.421 17.4677 29.573C17.729 30.043 18.0179 30.5129 18.3618 31.0934C18.9258 31.0934 19.6824 31.0934 20.2189 31.0934C20.5628 30.4991 20.838 30.0568 21.0718 29.6007C21.1544 29.4348 21.1956 29.2137 21.1956 29.0202C21.2094 27.2925 21.2094 25.5648 21.1956 23.8372C21.1956 23.6437 21.1681 23.4225 21.0856 23.2567C20.838 22.7591 20.5491 22.303 20.2189 21.7225ZM11.5524 35.0463C19.1459 35.0463 26.6706 35.0463 34.2229 35.0463C34.2229 34.6593 34.2229 34.3276 34.2229 33.9821C26.6431 33.9821 19.1047 33.9821 11.5524 33.9821C11.5524 34.3552 11.5524 34.6731 11.5524 35.0463ZM32.6684 32.0747C26.1204 32.0747 19.6136 32.0747 13.1207 32.0747C13.1207 32.4064 13.1207 32.669 13.1207 32.9593C19.6687 32.9593 26.1617 32.9593 32.6684 32.9593C32.6684 32.6276 32.6684 32.365 32.6684 32.0747ZM21.2507 21.7087C21.402 22.0265 21.457 22.3859 21.6083 22.4412C22.0898 22.6209 22.1173 22.9526 22.1173 23.3672C22.1035 25.399 22.1035 27.4169 22.1173 29.4486C22.1173 29.8633 22.0898 30.2088 21.5946 30.3747C21.4708 30.4161 21.402 30.6926 21.3745 30.8723C21.3607 30.9414 21.5395 31.1072 21.6221 31.1072C22.5575 31.121 23.4792 31.121 24.5797 31.121C24.4146 30.7617 24.3733 30.43 24.2358 30.3885C23.6855 30.2088 23.7405 29.808 23.7405 29.3934C23.7405 27.4307 23.7405 25.4819 23.7405 23.5193C23.7405 23.0632 23.658 22.5932 24.2908 22.3997C24.4146 22.3583 24.4421 21.9851 24.5384 21.7087C23.4241 21.7087 22.4475 21.7087 21.2507 21.7087ZM13.946 21.7087C14.1661 22.068 14.3175 22.2753 14.4275 22.4965C14.5651 22.7453 14.8127 23.0079 14.8127 23.2705C14.8402 25.3575 14.8402 27.4584 14.8127 29.5454C14.8127 29.808 14.5513 30.0568 14.4138 30.3194C14.29 30.5405 14.1661 30.7479 13.9873 31.0796C15.1704 31.0796 16.1471 31.0796 17.3576 31.0796C17.1375 30.734 16.9724 30.5267 16.8486 30.3056C16.7111 30.0706 16.491 29.8218 16.491 29.5869C16.4635 27.4722 16.4635 25.3575 16.491 23.2428C16.491 22.994 16.7661 22.7453 16.9037 22.4965C17.0275 22.2753 17.1513 22.0542 17.3301 21.7225C16.1746 21.7087 15.1979 21.7087 13.946 21.7087ZM28.4865 31.1349C29.5457 31.1349 30.4124 31.1487 31.279 31.121C31.4303 31.121 31.6917 30.9552 31.6917 30.8999C31.6642 30.7064 31.5404 30.5129 31.4441 30.347C31.3065 30.0983 31.0176 29.8495 31.0176 29.6007C30.9764 27.4584 30.9901 25.3299 31.0176 23.1875C31.0176 22.9664 31.1827 22.6209 31.3615 22.5379C31.8017 22.3306 31.7742 22.068 31.6504 21.7087C30.6462 21.7087 29.6695 21.7087 28.514 21.7087C28.6791 22.0265 28.7754 22.2615 28.8992 22.4827C29.0505 22.7453 29.3531 23.0079 29.3531 23.2705C29.3944 25.3575 29.3944 27.4584 29.3531 29.5454C29.3531 29.8218 29.0642 30.0844 28.9129 30.347C28.7754 30.5544 28.6653 30.7893 28.4865 31.1349ZM26.9045 10.6377C26.9183 10.5548 26.932 10.458 26.9458 10.3751C25.8177 9.80841 24.9098 8.68888 23.3966 8.93766C23.3966 9.58727 23.3966 10.1678 23.3966 10.6377C24.5934 10.6377 25.749 10.6377 26.9045 10.6377Z" fill="#5C009F"/>
<path d="M22.9097 15.9538C24.0515 15.9676 25.0144 16.9351 25.0007 18.0684C24.9869 19.2018 24.0102 20.1555 22.8685 20.1417C21.7267 20.1278 20.7637 19.1465 20.7775 18.027C20.7912 16.8936 21.7679 15.9399 22.9097 15.9538ZM22.9097 16.8522C22.2494 16.8383 21.7267 17.3497 21.7129 18.0132C21.6854 18.7042 22.2081 19.2571 22.8822 19.2709C23.5425 19.2847 24.0652 18.7733 24.079 18.1099C24.1065 17.405 23.5975 16.8522 22.9097 16.8522Z" fill="#5C009F"/>
</g>
</svg>
