<svg width="45" height="45" viewBox="0 0 45 45" fill="none" xmlns="http://www.w3.org/2000/svg">
<circle cx="22.5" cy="22.5" r="22.5" fill="white"/>
<mask id="mask0_7036_5563" style="mask-type:alpha" maskUnits="userSpaceOnUse" x="9" y="9" width="28" height="28">
<rect x="9" y="9" width="28" height="28" fill="#5C009F"/>
</mask>
<g mask="url(#mask0_7036_5563)">
<path d="M16.6924 32.5319C15.1181 32.5046 13.784 32.2591 12.57 31.4682C12.4099 31.3591 12.1564 31.3591 11.9563 31.3727C11.1025 31.4545 10.4221 31.1272 10.0485 30.4044C9.66166 29.6543 9.76839 28.9179 10.3554 28.2087C10.4888 28.0451 10.6356 27.8269 10.6356 27.636C10.6756 26.0813 11.2626 24.7175 12.0364 23.4355C12.2231 23.1219 12.2365 22.9037 12.0364 22.59C11.2759 21.3081 10.6889 19.9443 10.6622 18.3896C10.6622 18.2123 10.5422 18.0077 10.4221 17.8714C9.76839 17.094 9.64832 16.3985 10.0619 15.6211C10.4354 14.8847 11.1025 14.571 12.023 14.6665C12.1831 14.6801 12.3966 14.6938 12.5166 14.6119C13.9041 13.6709 15.4517 13.4664 17.0526 13.5209C17.4928 13.5346 17.6796 13.3709 17.9331 13.0163C18.6402 12.0071 19.3339 10.9434 20.2277 10.1388C21.9354 8.61135 24.1767 8.62499 25.8843 10.1524C26.7515 10.9298 27.4319 11.9526 28.0989 12.9209C28.3924 13.33 28.6059 13.5482 29.1262 13.5209C30.6737 13.4664 32.1813 13.6846 33.5287 14.5847C33.6888 14.6938 33.9423 14.6665 34.1557 14.6529C34.9962 14.571 35.6766 14.912 36.0502 15.6348C36.4237 16.3712 36.3036 17.1076 35.7566 17.7759C35.6099 17.9532 35.4365 18.185 35.4365 18.4032C35.3964 19.8625 34.8761 21.158 34.1557 22.3718C33.8756 22.8355 33.8355 23.1492 34.129 23.6401C34.8628 24.8402 35.3831 26.1358 35.4231 27.595C35.4231 27.8133 35.5832 28.0451 35.7166 28.2224C36.2903 28.9179 36.397 29.6953 36.0101 30.4317C35.6366 31.1409 34.9695 31.4545 34.089 31.3727C33.9022 31.3591 33.6755 31.3454 33.5287 31.4409C32.1412 32.3683 30.5937 32.5728 28.9928 32.5183C28.5792 32.5046 28.3791 32.641 28.1523 32.9819C27.592 33.8548 27.045 34.7549 26.3246 35.4776C24.3101 37.5233 21.7086 37.496 19.6807 35.464C19.1204 34.9049 18.6135 34.2366 18.1999 33.5411C17.8263 32.8728 17.5195 32.15 16.6924 32.5319ZM29.4864 23.0264C29.4197 21.9899 29.3797 20.9671 29.2462 19.9579C29.2062 19.6443 29.0061 19.2488 28.7526 19.0851C27.0717 18.035 25.364 17.0122 23.643 16.0439C23.3495 15.8803 22.8159 15.8666 22.5357 16.0303C20.7881 17.0122 19.0671 18.0486 17.3594 19.0988C17.1193 19.2488 16.8925 19.6306 16.8925 19.917C16.8525 21.9763 16.8525 24.0356 16.8925 26.1085C16.8925 26.3949 17.1193 26.7768 17.3594 26.9268C19.0671 27.9905 20.7881 29.027 22.5357 29.9953C22.8292 30.1589 23.3495 30.1453 23.643 29.9816C25.3774 29.0134 27.0717 27.9905 28.7526 26.9404C29.0061 26.7768 29.2196 26.3813 29.2596 26.0676C29.3663 25.0721 29.4063 24.0492 29.4864 23.0264ZM18.7736 13.5755C19.5473 13.7528 20.3611 13.8482 21.0816 14.1483C22.4157 14.7074 23.683 14.721 25.0305 14.1483C25.7642 13.8346 26.5914 13.7528 27.3785 13.5618C26.538 11.4071 24.5769 9.87966 22.8292 9.97512C21.2683 10.0569 19.2405 11.8571 18.7736 13.5755ZM18.7736 32.5319C19.4673 34.5776 21.6019 36.2141 23.3895 36.0504C24.9238 35.9141 27.0717 33.9366 27.3118 32.5183C26.0044 32.1364 24.7103 31.7546 23.4029 31.3863C23.2028 31.3318 22.9626 31.3181 22.7625 31.3727C21.4418 31.7409 20.1343 32.1228 18.7736 32.5319ZM32.9417 15.3075C31.701 14.5574 30.3669 14.3937 28.9394 14.4483C29.2596 15.6211 29.6331 16.6849 29.8199 17.7895C29.9667 18.6351 30.3135 19.2351 30.9672 19.7397C31.8211 20.408 32.6349 21.1444 33.4487 21.8536C34.009 20.9944 34.4626 19.7943 34.5026 18.4578C32.6482 17.9941 32.3147 16.794 32.9417 15.3075ZM17.1326 14.421C15.7185 14.421 14.3577 14.5301 13.1437 15.3484C13.8507 16.9713 13.3838 17.9123 11.6094 18.4441C11.6762 19.7943 12.0897 21.008 12.8368 22.0718C13.8774 21.0489 14.8913 20.0534 15.8919 19.0715C15.9853 18.976 16.052 18.8533 16.092 18.7305C16.4389 17.3258 16.7724 15.9212 17.1326 14.421ZM17.1726 31.6182C16.8391 30.3635 16.4522 29.2179 16.2388 28.0587C16.1054 27.3905 15.8519 26.9132 15.3449 26.4904C14.4511 25.7267 13.6106 24.9084 12.7301 24.1038C12.1031 25.0721 11.6628 26.2722 11.5961 27.6087C13.4905 28.0724 13.7707 29.2998 13.1703 30.7454C14.3844 31.4954 15.7318 31.6182 17.1726 31.6182ZM34.5159 27.5814C34.4225 26.2449 34.0357 25.0175 33.2352 23.8992C32.5948 24.5948 32.0612 25.3176 31.3941 25.8631C30.4336 26.654 29.8599 27.5678 29.6865 28.8361C29.5531 29.7498 29.2062 30.6363 28.9527 31.55C30.3002 31.7409 32.0612 31.3318 32.9417 30.6635C32.3547 29.368 32.5415 28.0724 34.5159 27.5814ZM21.7486 15.2256C20.5479 14.9665 19.5207 14.7483 18.4934 14.5438C18.4 14.5301 18.2132 14.6256 18.1866 14.7074C17.8263 15.7439 17.4928 16.7803 17.0926 17.9805C18.7069 17.0258 20.121 16.1803 21.7486 15.2256ZM28.9661 17.9395C28.6993 17.0122 28.4324 16.2076 28.2323 15.3893C28.0589 14.6665 27.712 14.3937 26.9649 14.6256C26.1645 14.8711 25.3373 15.0211 24.4035 15.2393C26.0044 16.1803 27.4052 17.0258 28.9661 17.9395ZM17.2527 28.1542C17.2527 28.2633 17.2393 28.3451 17.2527 28.427C17.4128 29.0406 17.5729 29.6543 17.7596 30.2544C18.1599 31.5773 18.1732 31.5773 19.4673 31.3045C20.1744 31.1545 20.8681 30.9636 21.6686 30.759C20.1077 29.8453 18.6935 29.0134 17.2527 28.1542ZM24.3768 30.8136C25.5775 31.0727 26.6181 31.2909 27.672 31.5091C27.7521 31.5227 27.9121 31.4409 27.9388 31.3727C28.299 30.3362 28.6326 29.2861 29.0328 28.0724C27.3918 29.027 25.9777 29.8589 24.3768 30.8136ZM15.8252 20.258C15.0247 21.1717 14.3043 21.9899 13.6106 22.8218C13.5439 22.89 13.5305 23.1082 13.5839 23.1764C14.291 24.022 15.0247 24.8402 15.8252 25.7676C15.8252 23.8583 15.8252 22.1536 15.8252 20.258ZM30.2868 20.2852C30.2868 22.1672 30.2868 23.872 30.2868 25.754C31.1407 24.7993 31.9144 23.9401 32.7416 23.0128C31.9144 22.0854 31.1407 21.2399 30.2868 20.2852ZM12.57 16.4939C12.57 16.0166 12.1698 15.5939 11.6895 15.5802C11.1825 15.5666 10.7556 15.9894 10.7556 16.5076C10.7556 17.0122 11.1959 17.4486 11.7028 17.435C12.1698 17.394 12.57 16.9713 12.57 16.4939ZM34.4626 15.5666C33.9956 15.5666 33.5687 15.9621 33.5554 16.453C33.5287 16.9576 33.9556 17.4077 34.4626 17.4077C34.9295 17.4077 35.3564 16.9985 35.3698 16.5212C35.3831 16.0166 34.9562 15.5802 34.4626 15.5666ZM10.7556 29.5589C10.769 30.0635 11.2092 30.4862 11.7028 30.4726C12.1698 30.4453 12.57 30.0226 12.5567 29.5316C12.5433 29.0406 12.1431 28.6315 11.6628 28.6179C11.1825 28.6042 10.7423 29.0406 10.7556 29.5589ZM34.4225 28.6179C33.9556 28.6315 33.542 29.0543 33.542 29.5316C33.542 30.0362 33.969 30.4726 34.4759 30.459C34.9562 30.4453 35.3564 30.0226 35.3564 29.5452C35.3698 29.0406 34.9295 28.6042 34.4225 28.6179Z" fill="#5C009F"/>
<path d="M18.3857 26.514C17.8484 25.9796 18.0554 25.8608 18.2155 25.4653C18.6825 24.3061 19.1494 23.1605 19.6163 22.0013C19.8698 21.3876 20.0966 20.7739 20.3768 20.1875C20.4568 20.0102 20.6836 19.8057 20.8437 19.8057C21.0038 19.8057 21.2439 20.0102 21.3106 20.1875C22.0577 21.9604 22.7781 23.747 23.4852 25.5335C23.5519 25.7108 23.5613 26.1003 23.3118 26.2154C23.0498 26.3362 22.6981 26.0108 22.6714 25.8472C22.4046 24.5516 21.4202 24.2906 20.4435 24.4016C19.8431 24.4698 19.5972 24.5678 19.2961 25.2062C19.1618 25.4653 19.0827 25.7108 18.9893 25.9563C18.9226 26.1336 18.8559 26.3109 18.8025 26.4881C18.7091 26.4063 18.4524 26.5822 18.3857 26.514ZM21.6575 23.4606C21.3773 22.765 21.1372 22.1923 20.817 21.4422C20.5102 22.2195 20.2834 22.8196 20.0299 23.4606C20.5902 23.4606 21.0572 23.4606 21.6575 23.4606Z" fill="#5C009F"/>
<path d="M25.2941 20.748C24.9739 20.7207 24.6804 20.7616 24.4136 20.6662C24.2401 20.6116 24.0267 20.3798 24.0267 20.2161C24.0267 20.0661 24.2668 19.7933 24.4002 19.7797C25.3341 19.7388 26.268 19.7388 27.1885 19.7797C27.3352 19.7797 27.5754 20.0797 27.562 20.2161C27.5487 20.3798 27.3352 20.598 27.1618 20.6525C26.895 20.7343 26.6015 20.7071 26.2813 20.7207C26.2813 22.2481 26.2813 23.7346 26.2813 25.2757C26.5748 25.2893 26.8095 25.2757 27.0951 25.3439C27.2952 25.4121 27.5992 25.5191 27.6021 25.7803C27.6049 26.0335 27.2952 26.2303 27.1351 26.2303C26.2546 26.2713 25.3608 26.2713 24.4803 26.2303C24.3202 26.2167 24.0039 26.0473 24 25.7939C23.9961 25.5369 24.2935 25.4121 24.4803 25.3439C24.7204 25.2621 24.9872 25.303 25.2941 25.2757C25.2941 23.7619 25.2941 22.2754 25.2941 20.748Z" fill="#5C009F"/>
</g>
</svg>
