<svg width="34" height="34" viewBox="0 0 34 34" fill="none" xmlns="http://www.w3.org/2000/svg">
<mask id="mask0_6183_14856" style="mask-type:alpha" maskUnits="userSpaceOnUse" x="0" y="0" width="34" height="34">
<rect width="34" height="34" fill="#D9D9D9"/>
</mask>
<g mask="url(#mask0_6183_14856)">
<path d="M9.34464 28.5745C7.43306 28.5413 5.81308 28.2433 4.3389 27.2828C4.14451 27.1503 3.83671 27.1503 3.59371 27.1668C2.55693 27.2662 1.73074 26.8688 1.27715 25.9911C0.807352 25.0803 0.93695 24.186 1.64974 23.3249C1.81174 23.1262 1.98994 22.8612 1.98994 22.6294C2.03853 20.7415 2.75133 19.0855 3.69091 17.5289C3.91771 17.148 3.93391 16.883 3.69091 16.5022C2.76753 14.9455 2.05473 13.2895 2.02234 11.4016C2.02234 11.1864 1.87654 10.938 1.73074 10.7724C0.93695 9.82844 0.791152 8.98387 1.29335 8.03995C1.74694 7.1457 2.55693 6.76482 3.67471 6.88074C3.86911 6.8973 4.12831 6.91386 4.2741 6.8145C5.95888 5.67186 7.83806 5.42346 9.78203 5.4897C10.3166 5.50626 10.5434 5.30753 10.8512 4.87697C11.7098 3.65153 12.5522 2.35984 13.6376 1.38279C15.7111 -0.471935 18.4327 -0.455375 20.5063 1.39935C21.5593 2.34328 22.3855 3.58529 23.1954 4.76105C23.5518 5.25785 23.811 5.52282 24.4428 5.4897C26.322 5.42346 28.1526 5.68842 29.7888 6.78138C29.9832 6.91386 30.291 6.88074 30.5501 6.86418C31.5707 6.76482 32.3969 7.17882 32.8505 8.05651C33.3041 8.95075 33.1583 9.845 32.4941 10.6564C32.3159 10.8717 32.1053 11.1532 32.1053 11.4182C32.0567 13.1901 31.4249 14.7633 30.5501 16.2372C30.21 16.8002 30.1614 17.1811 30.5177 17.7773C31.4087 19.2346 32.0405 20.8078 32.0891 22.5797C32.0891 22.8447 32.2835 23.1262 32.4455 23.3415C33.1421 24.186 33.2717 25.13 32.8019 26.0242C32.3483 26.8853 31.5383 27.2662 30.4691 27.1668C30.2424 27.1503 29.967 27.1337 29.7888 27.2496C28.104 28.3757 26.2248 28.6241 24.2808 28.5579C23.7786 28.5413 23.5356 28.7069 23.2602 29.1209C22.5799 30.1808 21.9157 31.2737 21.0409 32.1514C18.5947 34.6354 15.4358 34.6023 12.9734 32.1349C12.293 31.4559 11.6774 30.6445 11.1752 29.7999C10.7216 28.9885 10.349 28.1108 9.34464 28.5745ZM24.8802 17.0321C24.7992 15.7735 24.7506 14.5315 24.5886 13.3061C24.54 12.9252 24.297 12.4449 23.9892 12.2462C21.9481 10.9711 19.8745 9.72908 17.7847 8.55331C17.4283 8.35459 16.7803 8.33803 16.4401 8.53675C14.318 9.72908 12.2282 10.9876 10.1546 12.2628C9.86303 12.4449 9.58763 12.9086 9.58763 13.2564C9.53903 15.7569 9.53903 18.2575 9.58763 20.7747C9.58763 21.1224 9.86303 21.5861 10.1546 21.7683C12.2282 23.0599 14.318 24.3185 16.4401 25.4943C16.7965 25.693 17.4283 25.6764 17.7847 25.4777C19.8907 24.302 21.9481 23.0599 23.9892 21.7848C24.297 21.5861 24.5562 21.1059 24.6048 20.725C24.7344 19.5161 24.783 18.2741 24.8802 17.0321ZM11.8718 5.55594C12.8114 5.77122 13.7996 5.88714 14.6744 6.25146C16.2943 6.93042 17.8333 6.94698 19.4695 6.25146C20.3605 5.87058 21.3649 5.77122 22.3207 5.53938C21.3001 2.92288 18.9187 1.06815 16.7965 1.18407C14.9012 1.28343 12.4388 3.46937 11.8718 5.55594ZM11.8718 28.5745C12.7142 31.0585 15.3062 33.0457 17.4769 32.847C19.3399 32.6814 21.9481 30.2801 22.2397 28.5579C20.6521 28.0942 19.0807 27.6305 17.4931 27.1834C17.2501 27.1172 16.9585 27.1006 16.7155 27.1668C15.1118 27.614 13.5242 28.0777 11.8718 28.5745ZM29.076 7.65907C27.5694 6.74826 25.9494 6.54954 24.216 6.61578C24.6048 8.03995 25.0584 9.33164 25.2852 10.673C25.4634 11.6997 25.8846 12.4284 26.6784 13.0411C27.7152 13.8525 28.7034 14.7468 29.6916 15.6079C30.372 14.5646 30.9227 13.1073 30.9713 11.4844C28.7196 10.9214 28.3146 9.46412 29.076 7.65907ZM9.87923 6.58266C8.16205 6.58266 6.50967 6.71514 5.03549 7.70875C5.89408 9.6794 5.32709 10.822 3.17252 11.4679C3.25352 13.1073 3.75571 14.5812 4.6629 15.8729C5.92648 14.6309 7.15767 13.422 8.37265 12.2297C8.48605 12.1137 8.56705 11.9647 8.61565 11.8156C9.03684 10.11 9.44183 8.40427 9.87923 6.58266ZM9.92783 27.4649C9.52283 25.9414 9.05304 24.5504 8.79384 23.1427C8.63184 22.3313 8.32405 21.7517 7.70846 21.2383C6.62307 20.311 5.60249 19.3174 4.5333 18.3403C3.77191 19.5161 3.23732 20.9734 3.15632 22.5963C5.45669 23.1593 5.79688 24.6497 5.06789 26.4051C6.54207 27.3159 8.17825 27.4649 9.92783 27.4649ZM30.9875 22.5631C30.8741 20.9403 30.4043 19.4498 29.4324 18.0919C28.6548 18.9365 28.0068 19.8142 27.1968 20.4766C26.0304 21.4371 25.3338 22.5466 25.1232 24.0867C24.9612 25.1962 24.54 26.2726 24.2322 27.3821C25.8684 27.614 28.0068 27.1172 29.076 26.3057C28.3632 24.7325 28.59 23.1593 30.9875 22.5631ZM15.4844 7.55971C14.0264 7.24507 12.779 6.9801 11.5316 6.7317C11.4182 6.71514 11.1914 6.83106 11.159 6.93042C10.7216 8.18899 10.3166 9.44756 9.83063 10.9048C11.7908 9.74564 13.508 8.71891 15.4844 7.55971ZM24.2484 10.8552C23.9244 9.72908 23.6004 8.75203 23.3574 7.75843C23.1468 6.88074 22.7257 6.54954 21.8185 6.83106C20.8465 7.12914 19.8421 7.31131 18.7081 7.57627C20.6521 8.71891 22.3531 9.74564 24.2484 10.8552ZM10.025 23.2587C10.025 23.3911 10.0088 23.4905 10.025 23.5899C10.2194 24.3351 10.4138 25.0803 10.6406 25.8089C11.1266 27.4152 11.1428 27.4152 12.7142 27.084C13.5728 26.9019 14.4152 26.67 15.3872 26.4216C13.4918 25.3121 11.7746 24.302 10.025 23.2587ZM18.6757 26.4879C20.1337 26.8025 21.3973 27.0675 22.6771 27.3324C22.7743 27.349 22.9687 27.2496 23.0011 27.1668C23.4384 25.9083 23.8434 24.6332 24.3294 23.1593C22.3369 24.3185 20.6197 25.3287 18.6757 26.4879ZM8.29165 13.6704C7.31966 14.7799 6.44487 15.7735 5.60249 16.7837C5.52149 16.8665 5.50529 17.1314 5.57009 17.2142C6.42868 18.241 7.31966 19.2346 8.29165 20.3607C8.29165 18.0422 8.29165 15.9722 8.29165 13.6704ZM25.8522 13.7035C25.8522 15.9888 25.8522 18.0588 25.8522 20.3441C26.889 19.1849 27.8286 18.1416 28.833 17.0155C27.8286 15.8894 26.889 14.8627 25.8522 13.7035ZM4.3389 9.09979C4.3389 8.52019 3.85291 8.00683 3.26972 7.99027C2.65413 7.97371 2.13573 8.48707 2.13573 9.11635C2.13573 9.72908 2.67033 10.259 3.28592 10.2424C3.85291 10.1928 4.3389 9.6794 4.3389 9.09979ZM30.9227 7.97371C30.3558 7.97371 29.8374 8.45395 29.8212 9.05011C29.7888 9.66284 30.3072 10.2093 30.9227 10.2093C31.4897 10.2093 32.0081 9.71252 32.0243 9.13291C32.0405 8.52019 31.5221 7.99027 30.9227 7.97371ZM2.13573 24.9644C2.15193 25.5771 2.68653 26.0904 3.28592 26.0739C3.85291 26.0408 4.3389 25.5274 4.3227 24.9312C4.3065 24.3351 3.82051 23.8383 3.23732 23.8217C2.65413 23.8051 2.11953 24.3351 2.13573 24.9644ZM30.8741 23.8217C30.3072 23.8383 29.805 24.3516 29.805 24.9312C29.805 25.544 30.3234 26.0739 30.9389 26.0573C31.5221 26.0408 32.0081 25.5274 32.0081 24.9478C32.0243 24.3351 31.4897 23.8051 30.8741 23.8217Z" fill="#0D5DA4"/>
<path d="M11.3897 21.2709C10.7373 20.622 10.9886 20.4777 11.183 19.9974C11.75 18.5898 12.317 17.1988 12.884 15.7912C13.1918 15.046 13.4672 14.3008 13.8074 13.5887C13.9046 13.3734 14.18 13.125 14.3744 13.125C14.5688 13.125 14.8604 13.3734 14.9414 13.5887C15.8486 15.7415 16.7233 17.9109 17.5819 20.0802C17.6629 20.2955 17.6743 20.7685 17.3713 20.9082C17.0532 21.0549 16.6261 20.6598 16.5937 20.4611C16.2697 18.8879 15.0745 18.571 13.8884 18.7057C13.1594 18.7885 12.8608 18.9076 12.4952 19.6828C12.332 19.9974 12.236 20.2955 12.1226 20.5936C12.0416 20.8089 11.9606 21.0242 11.8958 21.2394C11.7824 21.1401 11.4707 21.3537 11.3897 21.2709ZM15.3626 17.5631C15.0224 16.7185 14.7308 16.023 14.342 15.1122C13.9694 16.0561 13.694 16.7848 13.3862 17.5631C14.0666 17.5631 14.6336 17.5631 15.3626 17.5631Z" fill="#0D5DA4"/>
<path d="M19.7823 14.2677C19.3935 14.2346 19.0371 14.2843 18.7131 14.1684C18.5025 14.1021 18.2433 13.8206 18.2433 13.6219C18.2433 13.4397 18.5349 13.1085 18.6969 13.0919C19.8309 13.0423 20.9649 13.0423 22.0827 13.0919C22.2609 13.0919 22.5525 13.4563 22.5363 13.6219C22.5201 13.8206 22.2609 14.0856 22.0503 14.1518C21.7263 14.2512 21.3699 14.218 20.9811 14.2346C20.9811 16.0893 20.9811 17.8944 20.9811 19.7657C21.3375 19.7822 21.6224 19.7657 21.9693 19.8485C22.2123 19.9313 22.5814 20.0612 22.5849 20.3784C22.5883 20.6859 22.2123 20.9249 22.0179 20.9249C20.9487 20.9745 19.8633 20.9745 18.7941 20.9249C18.5997 20.9083 18.2157 20.7026 18.2109 20.3949C18.2062 20.0829 18.5673 19.9313 18.7941 19.8485C19.0857 19.7491 19.4097 19.7988 19.7823 19.7657C19.7823 17.9275 19.7823 16.1224 19.7823 14.2677Z" fill="#0D5DA4"/>
</g>
</svg>
