<svg width="65" height="65" viewBox="0 0 65 65" fill="none" xmlns="http://www.w3.org/2000/svg">
<mask id="mask0_6185_25665" style="mask-type:alpha" maskUnits="userSpaceOnUse" x="0" y="0" width="65" height="65">
<rect width="65" height="65" transform="matrix(-1 0 0 1 65 0)" fill="#D9D9D9"/>
</mask>
<g mask="url(#mask0_6185_25665)">
<rect x="-0.5" y="0.5" width="63.0152" height="64" rx="10.5" transform="matrix(-1 0 0 1 63.5078 0)" stroke="black"/>
<path d="M28.6419 32.6771C28.7817 32.8292 28.9115 32.9712 29.0313 33.0929C32.456 36.572 35.8808 40.0511 39.2955 43.5301C39.4453 43.6823 39.605 43.8446 39.7248 44.017C39.9844 44.4227 39.9146 44.9806 39.5851 45.3254C39.2256 45.7007 38.6864 45.7717 38.2671 45.4776C38.1073 45.366 37.9576 45.2139 37.8178 45.0719C34.0835 41.2885 30.3593 37.495 26.635 33.7116C25.8362 32.9002 25.8362 32.4336 26.635 31.6222C30.3593 27.8388 34.0935 24.0554 37.8178 20.2721C37.9476 20.1402 38.0774 19.9982 38.2272 19.8968C38.6665 19.5824 39.2156 19.6432 39.5851 20.0287C39.9245 20.3837 39.9844 20.9618 39.6949 21.3777C39.5851 21.54 39.4353 21.682 39.2955 21.824C35.8708 25.303 32.456 28.7821 29.0313 32.251C28.9015 32.393 28.7817 32.5249 28.6419 32.6771Z" fill="black"/>
</g>
</svg>
