<svg width="66" height="66" viewBox="0 0 66 66" fill="none" xmlns="http://www.w3.org/2000/svg">
<circle opacity="0.34" cx="33" cy="33" r="33" fill="#ADADAD"/>
<path d="M40.634 36.4171L41.337 35.7187L39.7044 34.0784L39.0045 34.7767L40.634 36.4171ZM43.6942 35.4258L46.6404 37.0276L47.7427 34.9957L44.7981 33.3954L43.6942 35.4258ZM47.2062 40.2096L45.017 42.388L46.6465 44.0267L48.8357 41.8499L47.2062 40.2096ZM43.6819 43.0879C41.4465 43.2975 35.6652 43.111 29.403 36.8857L27.7719 38.5245C34.6046 45.3187 41.1089 45.6517 43.8977 45.3911L43.6819 43.0879ZM29.403 36.8857C23.4352 30.9503 22.4455 25.96 22.3221 23.7939L20.0127 23.925C20.1669 26.6506 21.3925 32.1821 27.7719 38.5245L29.403 36.8857ZM31.5228 27.3582L31.9652 26.9173L30.3372 25.2785L29.8948 25.7179L31.5228 27.3582ZM32.3167 21.3134L30.3742 18.7172L28.5227 20.1047L30.4652 22.6993L32.3167 21.3134ZM23.836 18.1514L21.4156 20.5564L23.0467 22.1967L25.4656 19.7917L23.836 18.1514ZM30.7088 26.5381C29.8917 25.7179 29.8917 25.7179 29.8917 25.721H29.8886L29.884 25.7272C29.8107 25.801 29.7451 25.8821 29.6882 25.9692C29.605 26.0925 29.514 26.2544 29.4369 26.4595C29.2493 26.9888 29.2025 27.5578 29.3012 28.1106C29.5078 29.4441 30.4267 31.2062 32.7792 33.5465L34.4103 31.9062C32.2073 29.717 31.6831 28.385 31.586 27.756C31.5397 27.4569 31.5875 27.3089 31.6014 27.275C31.6107 27.2544 31.6107 27.2514 31.6014 27.2657C31.5877 27.287 31.5722 27.3071 31.5552 27.3259L31.5397 27.3413L31.5243 27.3552L30.7088 26.5381ZM32.7792 33.5465C35.1334 35.8867 36.9047 36.7994 38.2398 37.0029C38.9228 37.1077 39.4732 37.0245 39.891 36.8688C40.125 36.7832 40.3436 36.6603 40.5385 36.505L40.6155 36.4356L40.6263 36.4263L40.631 36.4217L40.6325 36.4186C40.6325 36.4186 40.634 36.4171 39.8185 35.5969C39.0014 34.7767 39.006 34.7752 39.006 34.7752L39.0091 34.7721L39.0122 34.769L39.0215 34.7613L39.0369 34.7459L39.0955 34.6997C39.1098 34.6904 39.1062 34.6914 39.0847 34.7027C39.0461 34.7166 38.895 34.7644 38.5913 34.7182C37.9531 34.6195 36.6118 34.0953 34.4103 31.9062L32.7792 33.5465ZM30.3742 18.7157C28.8017 16.619 25.7122 16.286 23.836 18.1514L25.4656 19.7917C26.2857 18.9762 27.7411 19.061 28.5227 20.1047L30.3742 18.7157ZM22.3237 23.7955C22.2928 23.262 22.538 22.704 23.0467 22.1983L21.4141 20.558C20.5862 21.3812 19.9341 22.5467 20.0127 23.925L22.3237 23.7955ZM45.017 42.388C44.5946 42.8104 44.1382 43.0478 43.6835 43.0894L43.8977 45.3911C45.0309 45.2847 45.9574 44.7143 46.6481 44.0283L45.017 42.388ZM31.9652 26.9173C33.4838 25.408 33.5963 23.0231 32.3183 21.3149L30.4667 22.7009C31.088 23.5318 30.9955 24.6218 30.3357 25.2801L31.9652 26.9173ZM46.6419 37.0291C47.9015 37.7136 48.0972 39.3262 47.2077 40.2111L48.8388 41.8499C50.9046 39.7949 50.2679 36.3677 47.7442 34.9972L46.6419 37.0291ZM41.337 35.7202C41.929 35.1313 42.8818 34.9864 43.6958 35.4273L44.7996 33.397C43.1285 32.4874 41.0565 32.7387 39.706 34.0799L41.337 35.7202Z" fill="white"/>
</svg>
