<svg width="56" height="56" viewBox="0 0 56 56" fill="none" xmlns="http://www.w3.org/2000/svg">
<circle cx="28" cy="28" r="28" fill="white"/>
<mask id="mask0_6318_1811" style="mask-type:alpha" maskUnits="userSpaceOnUse" x="11" y="11" width="34" height="34">
<rect x="11" y="11" width="34" height="34" fill="#D9D9D9"/>
</mask>
<g mask="url(#mask0_6318_1811)">
<path d="M42.1187 18.8229C42.1187 17.8736 42.1187 16.9082 42.1187 15.9589C42.1187 15.4441 42.1831 14.9292 42.8273 14.9131C43.4876 14.897 43.552 15.4119 43.552 15.9268C43.552 17.6162 43.5359 19.3056 43.552 20.995C43.5682 21.7512 43.2299 22.0569 42.4891 22.0408C40.798 22.0248 39.107 22.0408 37.4159 22.0408C36.9005 22.0408 36.3852 21.9604 36.4174 21.2846C36.4335 20.6571 36.9488 20.625 37.4159 20.625C38.6399 20.625 39.88 20.625 41.2973 20.625C41.0396 20.2227 40.8786 19.9331 40.6853 19.6596C37.0777 14.5913 30.2973 12.2422 24.4027 14.0121C18.025 15.9268 13.6927 21.3812 13.4511 27.7849C13.4511 27.9136 13.435 28.0584 13.4511 28.1871C13.4511 28.7342 13.3061 29.2008 12.678 29.1686C12.0821 29.1364 11.9855 28.6698 12.0016 28.171C12.1304 23.6981 13.7571 19.8687 16.946 16.7313C23.9679 9.81269 35.4349 10.585 41.5228 18.3724C41.6516 18.5333 41.7966 18.6942 41.9415 18.8551C41.9898 18.8551 42.0542 18.839 42.1187 18.8229Z" fill="#0D5DA4"/>
<path d="M14.8715 38.1632C14.8715 39.0964 14.8715 40.0135 14.8715 40.9467C14.8715 41.4776 14.8876 42.0569 14.1628 42.0729C13.4381 42.1051 13.4381 41.5259 13.4381 40.9949C13.4381 39.3377 13.4542 37.6644 13.4381 36.0071C13.422 35.2509 13.7441 34.9452 14.501 34.9452C16.1921 34.9613 17.8832 34.9452 19.5742 34.9452C20.0896 34.9452 20.605 35.0096 20.5889 35.6853C20.5728 36.3128 20.0735 36.3611 19.5903 36.3611C18.3663 36.3611 17.1262 36.3611 15.7089 36.3611C15.9666 36.7794 16.1277 37.1012 16.3531 37.3748C20.3312 42.4269 25.5171 44.422 31.7982 43.167C37.6928 41.9925 42.2989 37.0851 43.3297 31.1963C43.4585 30.4884 43.5068 29.7643 43.5551 29.0403C43.5873 28.4772 43.5229 27.7853 44.3282 27.8175C45.1335 27.8497 45.0368 28.5737 45.0046 29.1208C44.6986 34.5591 42.3794 38.9355 37.9021 42.0247C30.5903 47.0929 20.911 45.5322 15.4351 38.5493C15.3224 38.4045 15.1936 38.2597 15.0808 38.131C15.0003 38.1471 14.9359 38.1632 14.8715 38.1632Z" fill="#0D5DA4"/>
<path d="M27.7363 34.8469C27.7363 32.9805 27.7363 31.1623 27.7363 29.2476C26.2546 29.2637 24.9822 28.7489 24.2736 27.4778C23.8227 26.6411 23.4844 25.6114 23.5006 24.6782C23.5167 22.3452 24.95 21.0258 27.7041 20.5431C27.8973 20.0604 27.6074 19.1111 28.5576 19.272C28.912 19.3364 29.1535 19.9639 29.4434 20.334C29.379 20.3983 29.3146 20.4788 29.2663 20.5431C29.524 20.5753 29.7817 20.6075 30.0232 20.6397C31.5049 20.8006 32.4551 21.6533 33.0833 22.9405C33.2926 23.3749 33.3893 23.8576 32.8417 24.115C32.2941 24.3725 32.0203 24.0185 31.7787 23.568C31.1345 22.3613 30.4259 21.959 29.2663 22.1199C29.2663 23.9541 29.2663 25.7884 29.2663 27.7191C30.7158 27.703 32.0042 28.2179 32.7128 29.5051C33.1638 30.3417 33.502 31.3715 33.4859 32.3047C33.4698 34.6377 32.0364 35.957 29.2824 36.4397C29.0891 36.9224 29.379 37.8717 28.4288 37.7108C28.0745 37.6465 27.8329 37.019 27.543 36.6489C27.6074 36.5845 27.6718 36.5041 27.7202 36.4397C27.4947 36.4076 27.2692 36.3593 27.0276 36.3432C25.5298 36.2145 24.5474 35.3456 23.9032 34.0424C23.6938 33.608 23.5972 33.1253 24.1448 32.8678C24.6924 32.6104 24.9661 32.9644 25.2077 33.4149C25.8519 34.6216 26.5445 35.0078 27.7363 34.8469ZM27.7041 27.7352C27.7041 25.8366 27.7041 23.9702 27.7041 22.0877C26.0935 22.0073 24.9178 23.1979 24.9017 24.8713C24.8856 26.5446 26.0291 27.7674 27.7041 27.7352ZM29.2824 29.2798C29.2824 31.1945 29.2824 33.0448 29.2824 34.8951C30.909 34.9917 32.133 33.7367 32.0847 32.0473C32.0525 30.3417 30.8607 29.1511 29.2824 29.2798Z" fill="#0D5DA4"/>
</g>
</svg>
