<svg width="19" height="16" viewBox="0 0 19 16" fill="none" xmlns="http://www.w3.org/2000/svg">
<g clip-path="url(#clip0_6819_15385)">
<path d="M16.238 7.12807C16.0445 5.37464 15.2984 3.89757 14.0273 2.72545C10.9232 -0.161987 6.16113 0.43837 3.78469 3.98334C3.72943 4.05957 3.69258 4.18346 3.61889 4.21205C3.42546 4.28828 3.18598 4.42169 3.02939 4.35499C2.76227 4.24063 2.76227 3.96428 2.91886 3.70698C3.46231 2.81121 4.15313 2.04885 5.00054 1.4485C9.77184 -1.91541 16.0722 0.857668 17.067 6.74689C17.0946 6.91842 17.1314 7.08995 17.1775 7.35677C17.4815 7.0423 17.7486 6.76595 18.0157 6.49912C18.2368 6.27994 18.467 6.06076 18.7618 6.37524C19.0473 6.68018 18.8355 6.92795 18.6236 7.14713C18.1446 7.64266 17.6657 8.12866 17.1959 8.63372C16.9012 8.9482 16.634 8.96726 16.3301 8.65278C15.8327 8.12866 15.3353 7.61407 14.8379 7.09948C14.626 6.88983 14.5247 6.64206 14.7458 6.3943C14.9945 6.10841 15.2432 6.24182 15.455 6.47053C15.6853 6.7183 15.9156 6.97559 16.1366 7.22336C16.1551 7.18524 16.2011 7.15666 16.238 7.12807Z" fill="black"/>
<path d="M1.58584 8.64264C1.32794 8.94758 1.07003 9.26206 0.802909 9.567C0.600267 9.79571 0.360781 9.87194 0.121295 9.62418C-0.0905585 9.38594 0.00155157 9.1477 0.194983 8.94759C0.72001 8.39488 1.25425 7.84216 1.78849 7.29898C2.02797 7.06075 2.28588 7.07028 2.51616 7.30851C3.05039 7.86122 3.58463 8.4044 4.10966 8.95711C4.3123 9.16676 4.35836 9.405 4.1465 9.62418C3.93465 9.84336 3.69516 9.78618 3.50173 9.57653C3.26225 9.30971 3.04118 9.03335 2.8017 8.757C2.75564 8.78558 2.70959 8.80464 2.66353 8.83323C2.68195 9.00476 2.68195 9.18582 2.70959 9.34782C3.2254 12.1304 5.3163 14.3413 7.9967 14.9321C10.7232 15.5325 13.4865 14.3984 15.0708 12.0542C15.255 11.7874 15.4116 11.3395 15.8353 11.6254C16.2866 11.9208 15.9826 12.2638 15.78 12.5497C13.8825 15.1989 11.3311 16.3996 8.19934 15.8565C4.95707 15.2942 2.86617 13.2359 1.96349 9.93865C1.85296 9.54794 1.7977 9.12864 1.72401 8.72841C1.67795 8.70935 1.6319 8.67123 1.58584 8.64264Z" fill="black"/>
</g>
<defs>
<clipPath id="clip0_6819_15385">
<rect width="18.8918" height="16" fill="white"/>
</clipPath>
</defs>
</svg>
