<svg width="65" height="65" viewBox="0 0 65 65" fill="none" xmlns="http://www.w3.org/2000/svg">
<mask id="mask0_6185_25664" style="mask-type:alpha" maskUnits="userSpaceOnUse" x="0" y="0" width="65" height="65">
<rect width="65" height="65" fill="#D9D9D9"/>
</mask>
<g mask="url(#mask0_6185_25664)">
<rect x="0.992188" y="0.5" width="63.0152" height="64" rx="10.5" stroke="black"/>
<path d="M36.3581 32.6771C36.2183 32.8292 36.0885 32.9712 35.9687 33.0929C32.544 36.572 29.1192 40.0511 25.7045 43.5301C25.5547 43.6823 25.395 43.8446 25.2752 44.017C25.0156 44.4227 25.0854 44.9806 25.4149 45.3254C25.7744 45.7007 26.3136 45.7717 26.7329 45.4776C26.8927 45.366 27.0424 45.2139 27.1822 45.0719C30.9165 41.2885 34.6407 37.495 38.365 33.7116C39.1638 32.9002 39.1638 32.4336 38.365 31.6222C34.6407 27.8388 30.9065 24.0554 27.1822 20.2721C27.0524 20.1402 26.9226 19.9982 26.7728 19.8968C26.3335 19.5824 25.7844 19.6432 25.4149 20.0287C25.0755 20.3837 25.0156 20.9618 25.3051 21.3777C25.4149 21.54 25.5647 21.682 25.7045 21.824C29.1292 25.303 32.544 28.7821 35.9687 32.251C36.0985 32.393 36.2183 32.5249 36.3581 32.6771Z" fill="black"/>
</g>
</svg>
