<svg width="56" height="56" viewBox="0 0 56 56" fill="none" xmlns="http://www.w3.org/2000/svg">
<circle cx="28" cy="28" r="28" fill="white"/>
<mask id="mask0_6318_1802" style="mask-type:alpha" maskUnits="userSpaceOnUse" x="11" y="11" width="34" height="34">
<rect x="11" y="11" width="34" height="34" fill="#D9D9D9"/>
</mask>
<g mask="url(#mask0_6318_1802)">
<path d="M15 22.748C15 21.0504 15 19.3695 15 17.6719C15 16.6566 15.284 16.407 16.203 16.7398C19.6114 17.9548 22.435 16.9728 24.8243 14.4431C25.6597 13.561 26.4282 12.5957 27.1801 11.647C27.8651 10.7816 28.1324 10.7982 28.8342 11.6137C29.9703 12.9285 31.1065 14.2766 32.3763 15.4583C34.3311 17.2558 36.6869 17.6552 39.2265 16.8896C39.5273 16.8064 39.8113 16.7065 40.112 16.64C40.6467 16.5235 41.031 16.7398 41.0143 17.3057C40.9307 21.4831 41.2315 25.7271 40.63 29.838C39.7111 36.1291 35.8849 40.6894 30.6052 44.1179C28.8175 45.2829 27.2469 45.2995 25.4425 44.1345C19.7618 40.4231 16.0192 35.4634 15.1671 28.6397C14.9332 26.7091 15.1337 24.7119 15.1337 22.7314C15.1002 22.748 15.0501 22.748 15 22.748ZM16.4202 18.1878C16.3868 18.4208 16.3533 18.5539 16.3533 18.6871C16.3533 21.5497 16.2364 24.4123 16.4035 27.2583C16.8546 34.6479 20.8144 39.8406 27.0464 43.5187C27.7147 43.9015 28.3831 43.8849 29.018 43.4854C29.7531 43.0361 30.505 42.6033 31.19 42.0874C35.8348 38.6755 38.8924 34.2318 39.4939 28.4233C39.7779 25.6772 39.6108 22.8812 39.6442 20.1184C39.6442 19.5192 39.6442 18.9034 39.6442 18.1711C34.1473 19.8188 30.9895 16.5568 27.9821 12.862C25.0081 16.5235 21.8503 19.8022 16.4202 18.1878Z" fill="#0D5DA4"/>
<path d="M30.7627 30.7861C30.7627 31.7514 30.746 32.5669 30.7627 33.399C30.7794 34.0648 30.4954 34.3644 29.827 34.3644C28.6241 34.3477 27.4378 34.3477 26.2348 34.3644C25.5164 34.381 25.2491 34.0315 25.2658 33.3325C25.2992 32.5336 25.2658 31.7347 25.2658 30.7861C24.3802 30.7861 23.5616 30.7694 22.7429 30.7861C22.0077 30.8194 21.6568 30.5364 21.6568 29.7875C21.6736 28.6225 21.6736 27.4574 21.6568 26.2924C21.6401 25.5768 21.9743 25.2938 22.676 25.3105C23.4947 25.3437 24.3301 25.3105 25.2658 25.3105C25.2658 24.3784 25.2825 23.5629 25.2658 22.7308C25.2491 22.0318 25.5498 21.7155 26.2515 21.7155C27.4211 21.7322 28.5906 21.7322 29.7602 21.7155C30.4619 21.6989 30.7961 21.9818 30.7627 22.7141C30.7293 23.5463 30.7627 24.3618 30.7627 25.3105C31.6816 25.3105 32.5003 25.3271 33.319 25.3105C34.004 25.2938 34.3716 25.5435 34.3549 26.2758C34.3382 27.4741 34.3382 28.6557 34.3549 29.8541C34.3549 30.5198 34.0541 30.8194 33.3858 30.8027C32.5671 30.7694 31.7317 30.7861 30.7627 30.7861ZM26.6358 23.1302C26.6358 23.6961 26.6358 24.212 26.6358 24.728C26.6358 26.6419 26.6358 26.6419 24.7478 26.6419C24.1965 26.6419 23.6618 26.6419 23.0937 26.6419C23.0937 27.6239 23.0937 28.4727 23.0937 29.4213C23.6618 29.4213 24.1797 29.4213 24.6977 29.4213C26.6191 29.4213 26.6191 29.4213 26.6191 31.302C26.6191 31.8512 26.6191 32.3838 26.6191 32.9497C27.6049 32.9497 28.457 32.9497 29.4093 32.9497C29.4093 32.1675 29.4093 31.4185 29.4093 30.6862C29.4093 29.5045 29.4929 29.4213 30.7126 29.4213C31.4477 29.4213 32.1996 29.4213 32.9514 29.4213C32.9514 28.4394 32.9514 27.5906 32.9514 26.6419C32.3833 26.6419 31.8654 26.6419 31.3475 26.6419C29.4093 26.6419 29.4093 26.6419 29.4093 24.7612C29.4093 24.212 29.4093 23.6794 29.4093 23.1136C28.4403 23.1302 27.5882 23.1302 26.6358 23.1302Z" fill="#0D5DA4"/>
<path d="M36.2045 34.406C36.2045 34.742 35.9706 34.9885 35.8537 35.2048C34.6173 37.6347 32.8462 39.582 30.6241 41.1465C30.2064 41.4294 29.7553 41.679 29.4044 41.1298C29.0869 40.6305 29.4378 40.3309 29.8388 40.048C31.9607 38.5834 33.6148 36.7027 34.7676 34.3893C34.9013 34.123 35.2437 33.7571 35.6365 33.8401C35.9428 33.9048 36.2045 34.0928 36.2045 34.406Z" fill="#0D5DA4"/>
<circle cx="36.0084" cy="32.0123" r="1.00055" fill="#0D5DA4"/>
</g>
</svg>
