<svg width="939" height="104" viewBox="0 0 939 104" fill="none" xmlns="http://www.w3.org/2000/svg">
<path d="M839.746 19.1162H837.407C837.185 19.1163 836.856 19.1167 836.434 19.1172C835.588 19.1182 834.365 19.1201 832.854 19.124C829.834 19.1318 825.665 19.1475 821.076 19.1787C811.888 19.2412 801.044 19.3665 794.328 19.6152C788.518 19.8304 783.796 23.5799 780.434 29.5371C777.071 35.4949 775.254 43.3918 775.254 51.1162C775.254 57.8517 776.826 65.6542 780.032 71.8896C783.245 78.138 787.899 82.4781 793.961 83.1279C797.098 83.4642 807.974 83.7142 818.22 83.8779C823.309 83.9593 828.195 84.0193 831.81 84.0586C833.617 84.0782 835.106 84.0919 836.143 84.1016C836.661 84.1064 837.067 84.1099 837.343 84.1123C837.481 84.1135 837.586 84.1146 837.657 84.1152C837.693 84.1155 837.719 84.1161 837.737 84.1162H837.764L839.748 84.1328V100.031L837.835 100.114L837.748 98.1162L837.834 100.114H837.83C837.827 100.114 837.822 100.115 837.816 100.115C837.805 100.116 837.788 100.116 837.766 100.117C837.721 100.119 837.654 100.122 837.566 100.126C837.391 100.133 837.131 100.143 836.794 100.156C836.12 100.182 835.135 100.217 833.889 100.256C831.395 100.334 827.853 100.429 823.652 100.491C815.257 100.617 804.21 100.617 793.652 100.114C782.411 99.5787 773.626 93.5441 767.717 84.75C761.832 75.9921 758.755 64.4598 758.754 52.6162C758.753 42.849 761.059 31.279 765.85 21.8945C770.627 12.5365 778.109 4.95034 788.597 4.12207C798.921 3.30666 811.228 3.05648 820.928 3.00879C825.783 2.98492 829.996 3.01209 832.996 3.04492C834.496 3.06134 835.693 3.07895 836.516 3.09277C836.927 3.09968 837.245 3.10618 837.46 3.11035C837.568 3.11244 837.65 3.1141 837.705 3.11523C837.733 3.1158 837.753 3.11591 837.768 3.11621H837.788L837.789 3.11719L839.746 3.15918V19.1162Z" stroke="url(#paint0_linear_7114_3553)" stroke-width="4"/>
<path d="M644.352 3V18.5H615.852V100H599.852V18.5H571.852V3H644.352Z" stroke="url(#paint1_linear_7114_3553)" stroke-width="4"/>
<path d="M499.352 2V82H553.852V101H482.352V2H499.352Z" stroke="url(#paint2_linear_7114_3553)" stroke-width="4"/>
<path d="M329.449 3C345.497 3 355.181 8.85288 360.829 15.3076C363.627 18.5054 365.394 21.8054 366.465 24.5156C367.511 27.1645 367.949 29.3981 367.949 30.5V101H352.914L352.949 98.9658L354.949 99C352.993 98.9663 352.95 98.9653 352.949 98.9648V98.9551C352.949 98.9481 352.95 98.9377 352.95 98.9238C352.951 98.8961 352.951 98.8546 352.952 98.7998C352.954 98.6902 352.956 98.5272 352.96 98.3145C352.967 97.8887 352.977 97.2627 352.989 96.4639C353.014 94.8657 353.047 92.5742 353.082 89.8027C353.152 84.2594 353.23 76.7969 353.262 69.1172C353.293 61.4349 353.277 53.5453 353.16 47.1455C353.102 43.9445 353.018 41.1294 352.903 38.9053C352.786 36.6272 352.642 35.113 352.493 34.4189C352.076 32.4715 351.058 28.6682 347.757 25.3428C344.501 22.0625 338.772 19.0001 328.449 19C318.065 19 312.087 21.7686 308.604 24.9199C305.1 28.0896 303.869 31.8738 303.417 34.3574C303.32 34.8913 303.206 36.2895 303.095 38.4941C302.986 40.6406 302.886 43.4197 302.792 46.6133C302.605 52.9983 302.448 61.0039 302.323 68.8447C302.198 76.6837 302.105 84.3517 302.043 90.0605C302.012 92.9147 301.988 95.2792 301.973 96.9297C301.965 97.7549 301.959 98.4024 301.955 98.8428C301.953 99.0628 301.951 99.2313 301.95 99.3447C301.95 99.4015 301.949 99.4449 301.949 99.4736V99.5156L299.949 99.5L301.949 99.5166L301.932 101.581L299.869 101.498L287.369 100.998L285.627 100.929L285.458 99.1943L287.449 99L285.458 99.1924V99.1875C285.458 99.1847 285.457 99.181 285.457 99.1768C285.456 99.1683 285.454 99.1569 285.453 99.1426C285.451 99.1135 285.448 99.0719 285.443 99.0176C285.434 98.9085 285.421 98.7468 285.406 98.5273C285.376 98.0884 285.336 97.4156 285.293 96.4619C285.207 94.5548 285.11 91.5193 285.062 86.9727C284.965 77.8799 285.066 62.7291 285.851 38.4512C286.16 28.8662 288.917 19.9027 295.879 13.3574C302.83 6.82221 313.652 3 329.449 3Z" stroke="url(#paint3_linear_7114_3553)" stroke-width="4"/>
<path d="M212.965 3.16016C224.169 2.87324 237.804 2.86776 247.15 4.03613C248.519 4.2072 250.348 4.90713 252.26 5.99219C254.215 7.10238 256.402 8.69729 258.479 10.8027C262.646 15.026 266.405 21.3419 266.899 29.9053C267.667 43.2157 264.993 51.1748 261.883 55.874C260.378 58.1478 258.796 59.6137 257.524 60.5352C258.179 61.3322 258.973 62.3588 259.806 63.582C261.89 66.6438 264.287 71.0133 265.359 76.1084C266.262 80.3983 266.641 86.1717 266.8 90.7822C266.88 93.1063 266.906 95.1696 266.911 96.6523C266.914 97.3938 266.912 97.9912 266.909 98.4043C266.908 98.6109 266.906 98.7722 266.904 98.8818C266.904 98.9363 266.903 98.9782 266.902 99.0068V99.0518L264.902 99.0205L266.902 99.0527L266.87 101.021H250.829L250.903 98.9482V98.9473C250.903 98.9464 250.904 98.9445 250.904 98.9424C250.904 98.9381 250.904 98.9316 250.904 98.9229C250.905 98.9045 250.906 98.8762 250.907 98.8389C250.91 98.7642 250.913 98.6526 250.917 98.5078C250.924 98.2179 250.934 97.7948 250.94 97.2695C250.954 96.2181 250.958 94.7599 250.92 93.1348C250.842 89.8291 250.592 86.0262 249.962 83.5049C248.469 77.535 247.032 73.5594 245.409 71.041C243.866 68.6462 242.249 67.6961 240.222 67.5117C237.597 67.2731 225.989 67.2701 214.852 67.333C209.324 67.3642 203.967 67.4111 199.992 67.4502C198.005 67.4697 196.364 67.4873 195.219 67.5C194.646 67.5063 194.198 67.5111 193.893 67.5146C193.74 67.5164 193.623 67.5176 193.545 67.5186C193.506 67.519 193.476 67.5193 193.456 67.5195C193.446 67.5196 193.439 67.5195 193.434 67.5195C193.432 67.5196 193.43 67.5205 193.429 67.5205H193.427L191.402 67.5449V49.999L193.424 50.0205H193.425H193.457C193.479 50.0207 193.513 50.021 193.557 50.0215C193.645 50.0224 193.776 50.0236 193.946 50.0254C194.287 50.0289 194.788 50.0347 195.426 50.041C196.702 50.0537 198.53 50.0713 200.732 50.0908C205.137 50.1299 211.041 50.1768 217.038 50.208C223.036 50.2392 229.122 50.2548 233.893 50.2314C236.279 50.2197 238.328 50.1979 239.87 50.1641C240.642 50.1471 241.276 50.1272 241.758 50.1045C241.999 50.0931 242.192 50.0819 242.341 50.0703C242.415 50.0646 242.473 50.0593 242.516 50.0547C242.551 50.0508 242.569 50.0484 242.573 50.0479C242.886 49.9957 243.589 49.7243 244.534 49.0186C245.442 48.3412 246.457 47.3481 247.407 46.0352C249.298 43.4215 250.902 39.5784 250.902 34.5205C250.902 24.5772 244.225 20.7253 240.781 20.5166C232.612 20.0215 220.677 20.0205 210.74 20.1455C205.781 20.2079 201.336 20.3009 198.131 20.3789C196.528 20.4179 195.236 20.4532 194.345 20.4785C193.899 20.4912 193.554 20.5017 193.32 20.5088L192.988 20.5186C192.981 20.5188 192.974 20.5194 192.971 20.5195H192.966L190.902 20.585V4.14453L192.773 4.02441H192.774H192.775C192.777 4.02434 192.779 4.02358 192.781 4.02344C192.786 4.02315 192.792 4.023 192.801 4.02246C192.818 4.02133 192.845 4.01975 192.88 4.01758C192.949 4.01324 193.051 4.0072 193.185 3.99902C193.452 3.98263 193.847 3.95897 194.354 3.92969C195.37 3.87113 196.839 3.79015 198.658 3.7002C202.298 3.52029 207.343 3.30413 212.965 3.16016Z" stroke="url(#paint4_linear_7114_3553)" stroke-width="4"/>
<path d="M18 3V55.0566L56.9072 3.79102L57.5068 3H78.5332L76.0918 6.21094L40.5273 52.9795L76.0732 98.2646L78.6123 101.5H57.5322L56.9316 100.741L29.9463 66.6543L18 80.7344V101.5H2V3H18Z" stroke="url(#paint5_linear_7114_3553)" stroke-width="4"/>
<path d="M873.661 4V54.666L912.278 4.77539L912.879 4H933.828L931.326 7.22559L896.051 52.71L931.308 96.75L933.909 100H912.904L912.304 99.2568L885.508 66.0693L873.661 79.7607V100H857.746V4H873.661Z" stroke="url(#paint6_linear_7114_3553)" stroke-width="4"/>
<path d="M172.901 3V19H119.1C119.061 19.0083 119.015 19.0173 118.961 19.0303C118.759 19.079 118.453 19.1618 118.079 19.293C117.327 19.5571 116.328 20.006 115.339 20.7354C113.433 22.1403 111.403 24.6876 111.403 29.5C111.403 35.2038 113.541 38.7139 115.584 40.8066C116.622 41.8703 117.659 42.5891 118.426 43.0371C118.797 43.2541 119.103 43.405 119.309 43.5H172.901V58.9619L170.939 59L119.173 59.9951C119.143 60.0037 119.108 60.0128 119.069 60.0244C118.869 60.0845 118.566 60.1859 118.193 60.3428C117.445 60.6579 116.442 61.1864 115.441 62.0293C113.5 63.6645 111.403 66.6131 111.403 72C111.403 77.3869 113.5 80.3355 115.441 81.9707C116.442 82.8136 117.445 83.3421 118.193 83.6572C118.566 83.8141 118.869 83.9155 119.069 83.9756C119.101 83.9852 119.131 83.9925 119.157 84H172.901V100.5H118.833L118.765 100.495L118.901 98.5L118.763 100.495H118.76C118.758 100.495 118.756 100.494 118.753 100.494C118.747 100.494 118.741 100.494 118.732 100.493C118.716 100.492 118.695 100.49 118.668 100.487C118.615 100.483 118.54 100.476 118.447 100.467C118.261 100.447 117.999 100.417 117.67 100.369C117.013 100.274 116.088 100.112 114.985 99.8408C112.787 99.2995 109.836 98.3125 106.869 96.5254C100.836 92.8915 94.9014 86.0262 94.9014 73.5C94.9014 64.0802 97.6624 58.1273 100.6 54.4932C101.661 53.18 102.73 52.1898 103.67 51.457C102.411 50.465 100.896 49.029 99.4619 47.0469C96.1632 42.4871 93.4231 35.2163 94.9189 24.2305C96.29 14.1623 102.341 8.79659 107.96 6.01953C110.746 4.64285 113.432 3.89342 115.416 3.48633C116.411 3.28217 117.238 3.16203 117.824 3.09277C118.117 3.05815 118.351 3.03612 118.517 3.02246C118.599 3.01565 118.665 3.01096 118.712 3.00781C118.736 3.00624 118.755 3.00475 118.77 3.00391C118.777 3.00348 118.783 3.0032 118.788 3.00293H118.797C118.798 3.00728 118.803 3.08749 118.878 4.54883L118.799 3.00293L118.85 3H172.901Z" stroke="url(#paint7_linear_7114_3553)" stroke-width="4"/>
<path d="M464.351 3V19H410.549C410.511 19.0083 410.464 19.0173 410.41 19.0303C410.208 19.079 409.902 19.1618 409.528 19.293C408.776 19.5571 407.778 20.006 406.788 20.7354C404.882 22.1403 402.853 24.6876 402.853 29.5C402.853 35.2038 404.99 38.7139 407.033 40.8066C408.072 41.8703 409.108 42.5891 409.875 43.0371C410.247 43.2541 410.552 43.405 410.758 43.5H464.351V58.9619L462.389 59L410.622 59.9951C410.592 60.0037 410.557 60.0128 410.519 60.0244C410.319 60.0845 410.015 60.1859 409.643 60.3428C408.894 60.6579 407.891 61.1864 406.891 62.0293C404.949 63.6645 402.853 66.6131 402.853 72C402.853 77.3869 404.949 80.3355 406.891 81.9707C407.891 82.8136 408.894 83.3421 409.643 83.6572C410.015 83.8141 410.319 83.9155 410.519 83.9756C410.551 83.9852 410.58 83.9925 410.606 84H464.351V100.5H410.282L410.214 100.495L410.351 98.5L410.212 100.495H410.209C410.207 100.495 410.205 100.494 410.202 100.494C410.197 100.494 410.19 100.494 410.182 100.493C410.165 100.492 410.144 100.49 410.117 100.487C410.064 100.483 409.99 100.476 409.896 100.467C409.711 100.447 409.448 100.417 409.119 100.369C408.462 100.274 407.537 100.112 406.435 99.8408C404.236 99.2995 401.286 98.3125 398.318 96.5254C392.285 92.8915 386.351 86.0262 386.351 73.5C386.351 64.0802 389.112 58.1273 392.049 54.4932C393.11 53.18 394.179 52.1898 395.119 51.457C393.86 50.465 392.345 49.029 390.911 47.0469C387.612 42.4871 384.872 35.2163 386.368 24.2305C387.739 14.1623 393.79 8.79659 399.409 6.01953C402.195 4.64285 404.881 3.89342 406.865 3.48633C407.86 3.28217 408.687 3.16203 409.273 3.09277C409.567 3.05815 409.801 3.03612 409.966 3.02246C410.048 3.01565 410.114 3.01096 410.161 3.00781C410.185 3.00624 410.204 3.00475 410.219 3.00391C410.226 3.00348 410.232 3.0032 410.237 3.00293H410.246C410.247 3.00728 410.252 3.08749 410.327 4.54883L410.248 3.00293L410.299 3H464.351Z" stroke="url(#paint8_linear_7114_3553)" stroke-width="4"/>
<path d="M740.753 3V19H686.951C686.913 19.0083 686.866 19.0173 686.812 19.0303C686.61 19.079 686.304 19.1618 685.931 19.293C685.178 19.5571 684.18 20.006 683.19 20.7354C681.284 22.1403 679.255 24.6876 679.255 29.5C679.255 35.2038 681.392 38.7139 683.436 40.8066C684.474 41.8703 685.51 42.5891 686.277 43.0371C686.649 43.2541 686.954 43.405 687.16 43.5H740.753V58.9619L738.791 59L687.024 59.9951C686.994 60.0037 686.959 60.0128 686.921 60.0244C686.721 60.0845 686.417 60.1859 686.045 60.3428C685.297 60.6579 684.294 61.1864 683.293 62.0293C681.352 63.6645 679.255 66.6131 679.255 72C679.255 77.3869 681.352 80.3355 683.293 81.9707C684.294 82.8136 685.297 83.3421 686.045 83.6572C686.417 83.8141 686.721 83.9155 686.921 83.9756C686.953 83.9852 686.982 83.9925 687.009 84H740.753V100.5H686.685L686.616 100.495L686.753 98.5L686.614 100.495H686.611C686.609 100.495 686.607 100.494 686.604 100.494C686.599 100.494 686.592 100.494 686.584 100.493C686.568 100.492 686.546 100.49 686.52 100.487C686.466 100.483 686.392 100.476 686.299 100.467C686.113 100.447 685.85 100.417 685.521 100.369C684.864 100.274 683.94 100.112 682.837 99.8408C680.638 99.2995 677.688 98.3125 674.721 96.5254C668.687 92.8915 662.753 86.0262 662.753 73.5C662.753 64.0802 665.514 58.1273 668.451 54.4932C669.513 53.18 670.582 52.1898 671.521 51.457C670.262 50.465 668.747 49.029 667.313 47.0469C664.015 42.4871 661.275 35.2163 662.771 24.2305C664.142 14.1623 670.192 8.79659 675.812 6.01953C678.597 4.64285 681.284 3.89342 683.268 3.48633C684.262 3.28217 685.089 3.16203 685.676 3.09277C685.969 3.05815 686.203 3.03612 686.368 3.02246C686.451 3.01565 686.516 3.01096 686.563 3.00781C686.587 3.00624 686.607 3.00475 686.621 3.00391C686.628 3.00348 686.635 3.0032 686.64 3.00293H686.648C686.65 3.00728 686.654 3.08749 686.729 4.54883L686.65 3.00293L686.701 3H740.753Z" stroke="url(#paint9_linear_7114_3553)" stroke-width="4"/>
<defs>
<linearGradient id="paint0_linear_7114_3553" x1="760.754" y1="51.7803" x2="837.748" y2="51.7803" gradientUnits="userSpaceOnUse">
<stop offset="0.254808" stop-color="white"/>
<stop offset="0.485577" stop-color="white" stop-opacity="0.76"/>
<stop offset="0.9999" stop-color="white" stop-opacity="0.26"/>
<stop offset="1" stop-color="white" stop-opacity="0.26"/>
</linearGradient>
<linearGradient id="paint1_linear_7114_3553" x1="573.852" y1="51.5" x2="642.352" y2="51.5" gradientUnits="userSpaceOnUse">
<stop offset="0.254808" stop-color="white"/>
<stop offset="0.485577" stop-color="white" stop-opacity="0.76"/>
<stop offset="0.9999" stop-color="white" stop-opacity="0.26"/>
<stop offset="1" stop-color="white" stop-opacity="0.26"/>
</linearGradient>
<linearGradient id="paint2_linear_7114_3553" x1="484.352" y1="51.5" x2="551.852" y2="51.5" gradientUnits="userSpaceOnUse">
<stop offset="0.254808" stop-color="white"/>
<stop offset="0.485577" stop-color="white" stop-opacity="0.76"/>
<stop offset="0.9999" stop-color="white" stop-opacity="0.26"/>
<stop offset="1" stop-color="white" stop-opacity="0.26"/>
</linearGradient>
<linearGradient id="paint3_linear_7114_3553" x1="287.031" y1="52.2499" x2="365.949" y2="52.2499" gradientUnits="userSpaceOnUse">
<stop offset="0.254808" stop-color="white"/>
<stop offset="0.485577" stop-color="white" stop-opacity="0.76"/>
<stop offset="0.9999" stop-color="white" stop-opacity="0.26"/>
<stop offset="1" stop-color="white" stop-opacity="0.26"/>
</linearGradient>
<linearGradient id="paint4_linear_7114_3553" x1="192.902" y1="52.0101" x2="265.032" y2="52.0101" gradientUnits="userSpaceOnUse">
<stop offset="0.254808" stop-color="white"/>
<stop offset="0.485577" stop-color="white" stop-opacity="0.76"/>
<stop offset="0.9999" stop-color="white" stop-opacity="0.26"/>
<stop offset="1" stop-color="white" stop-opacity="0.26"/>
</linearGradient>
<linearGradient id="paint5_linear_7114_3553" x1="4" y1="52.25" x2="74.5" y2="52.25" gradientUnits="userSpaceOnUse">
<stop offset="0.254808" stop-color="white"/>
<stop offset="0.485577" stop-color="white" stop-opacity="0.76"/>
<stop offset="0.9999" stop-color="white" stop-opacity="0.26"/>
<stop offset="1" stop-color="white" stop-opacity="0.26"/>
</linearGradient>
<linearGradient id="paint6_linear_7114_3553" x1="859.746" y1="52" x2="929.746" y2="52" gradientUnits="userSpaceOnUse">
<stop offset="0.254808" stop-color="white"/>
<stop offset="0.485577" stop-color="white" stop-opacity="0.76"/>
<stop offset="0.9999" stop-color="white" stop-opacity="0.26"/>
<stop offset="1" stop-color="white" stop-opacity="0.26"/>
</linearGradient>
<linearGradient id="paint7_linear_7114_3553" x1="96.5" y1="51.75" x2="170.901" y2="51.75" gradientUnits="userSpaceOnUse">
<stop offset="0.254808" stop-color="white"/>
<stop offset="0.485577" stop-color="white" stop-opacity="0.76"/>
<stop offset="0.9999" stop-color="white" stop-opacity="0.26"/>
<stop offset="1" stop-color="white" stop-opacity="0.26"/>
</linearGradient>
<linearGradient id="paint8_linear_7114_3553" x1="387.949" y1="51.75" x2="462.35" y2="51.75" gradientUnits="userSpaceOnUse">
<stop offset="0.254808" stop-color="white"/>
<stop offset="0.485577" stop-color="white" stop-opacity="0.76"/>
<stop offset="0.9999" stop-color="white" stop-opacity="0.26"/>
<stop offset="1" stop-color="white" stop-opacity="0.26"/>
</linearGradient>
<linearGradient id="paint9_linear_7114_3553" x1="664.352" y1="51.75" x2="738.753" y2="51.75" gradientUnits="userSpaceOnUse">
<stop offset="0.254808" stop-color="white"/>
<stop offset="0.485577" stop-color="white" stop-opacity="0.76"/>
<stop offset="0.9999" stop-color="white" stop-opacity="0.26"/>
<stop offset="1" stop-color="white" stop-opacity="0.26"/>
</linearGradient>
</defs>
</svg>
